Oxygen-Light.ufo
<glyph name="numbersign" format="1">
  <advance width="1108"/>
  <unicode hex="0023"/>
  <outline>
    <contour>
      <point x="739" y="952" type="line"/>
      <point x="485" y="952" type="line"/>
      <point x="396" y="505" type="line"/>
      <point x="652" y="505" type="line"/>
    </contour>
    <contour>
      <point x="984" y="1041" type="line"/>
      <point x="969" y="952" type="line"/>
      <point x="847" y="952" type="line"/>
      <point x="777" y="505" type="line"/>
      <point x="902" y="505" type="line"/>
      <point x="892" y="414" type="line"/>
      <point x="764" y="414" type="line"/>
      <point x="676" y="-28" type="line"/>
      <point x="546" y="-28" type="line"/>
      <point x="632" y="414" type="line"/>
      <point x="376" y="414" type="line"/>
      <point x="296" y="-28" type="line"/>
      <point x="194" y="-28" type="line"/>
      <point x="265" y="414" type="line"/>
      <point x="109" y="414" type="line"/>
      <point x="119" y="505" type="line"/>
      <point x="282" y="505" type="line"/>
      <point x="346" y="951" type="line"/>
      <point x="185" y="951" type="line"/>
      <point x="195" y="1041" type="line"/>
      <point x="368" y="1041" type="line"/>
      <point x="452" y="1464" type="line"/>
      <point x="586" y="1464" type="line"/>
      <point x="505" y="1041" type="line"/>
      <point x="758" y="1041" type="line"/>
      <point x="828" y="1464" type="line"/>
      <point x="928" y="1464" type="line"/>
      <point x="866" y="1041" type="line"/>
    </contour>
  </outline>
</glyph>
<glyph name="dollar" format="1">
  <advance width="1263"/>
  <unicode hex="0024"/>
  <outline>
    <contour>
      <point x="679" y="742" type="curve"/>
      <point x="679" y="63" type="line"/>
      <point x="898" y="70"/>
      <point x="1013" y="188"/>
      <point x="1013" y="433" type="curve" smooth="yes"/>
      <point x="1013" y="574"/>
      <point x="965" y="675"/>
      <point x="738" y="729" type="curve"/>
      <point x="742" y="727"/>
      <point x="675" y="744"/>
    </contour>
    <contour>
      <point x="592" y="873" type="curve"/>
      <point x="592" y="1454" type="line"/>
      <point x="359" y="1441"/>
      <point x="240" y="1343"/>
      <point x="240" y="1145" type="curve" smooth="yes"/>
      <point x="240" y="1011"/>
      <point x="328" y="933"/>
      <point x="494" y="897" type="curve"/>
      <point x="490" y="899"/>
      <point x="592" y="873"/>
    </contour>
    <contour>
      <point x="592" y="1741" type="line"/>
      <point x="679" y="1741" type="line"/>
      <point x="679" y="1566" type="line"/>
      <point x="851" y="1562"/>
      <point x="1003" y="1516"/>
      <point x="1092" y="1458" type="curve"/>
      <point x="1054" y="1355" type="line"/>
      <point x="989" y="1392"/>
      <point x="836" y="1448"/>
      <point x="679" y="1454" type="curve"/>
      <point x="679" y="862" type="line"/>
      <point x="685" y="862"/>
      <point x="805" y="832"/>
      <point x="799" y="835" type="curve"/>
      <point x="1015" y="802"/>
      <point x="1151" y="681"/>
      <point x="1151" y="430" type="curve" smooth="yes"/>
      <point x="1151" y="108"/>
      <point x="962" y="-41"/>
      <point x="679" y="-50" type="curve"/>
      <point x="679" y="-213" type="line"/>
      <point x="592" y="-213" type="line"/>
      <point x="592" y="-49" type="line"/>
      <point x="343" y="-38"/>
      <point x="171" y="38"/>
      <point x="100" y="82" type="curve"/>
      <point x="156" y="178" type="line"/>
      <point x="281" y="119"/>
      <point x="417" y="78"/>
      <point x="592" y="67" type="curve"/>
      <point x="592" y="756" type="line"/>
      <point x="428" y="795" type="line"/>
      <point x="228" y="832"/>
      <point x="101" y="944"/>
      <point x="101" y="1134" type="curve" smooth="yes"/>
      <point x="101" y="1428"/>
      <point x="291" y="1552"/>
      <point x="592" y="1565" type="curve"/>
    </contour>
  </outline>
</glyph>
<glyph name="ampersand" format="1">
  <advance width="1496"/>
  <unicode hex="0026"/>
  <outline>
    <contour>
      <point x="679" y="1365" type="curve" smooth="yes"/>
      <point x="546" y="1365"/>
      <point x="457" y="1289"/>
      <point x="457" y="1168" type="curve" smooth="yes"/>
      <point x="457" y="1066"/>
      <point x="522" y="997"/>
      <point x="620" y="901" type="curve"/>
      <point x="772" y="976"/>
      <point x="893" y="1042"/>
      <point x="893" y="1174" type="curve" smooth="yes"/>
      <point x="893" y="1300"/>
      <point x="790" y="1365"/>
    </contour>
    <contour>
      <point x="560" y="743" type="curve"/>
      <point x="393" y="658"/>
      <point x="278" y="544"/>
      <point x="278" y="393" type="curve" smooth="yes"/>
      <point x="278" y="226"/>
      <point x="405" y="108"/>
      <point x="648" y="108" type="curve" smooth="yes"/>
      <point x="804" y="108"/>
      <point x="921" y="164"/>
      <point x="1024" y="248" type="curve"/>
      <point x="824" y="486"/>
      <point x="761" y="505"/>
    </contour>
    <contour>
      <point x="462" y="844" type="curve"/>
      <point x="350" y="969"/>
      <point x="286" y="1044"/>
      <point x="286" y="1175" type="curve" smooth="yes"/>
      <point x="286" y="1356"/>
      <point x="426" y="1492"/>
      <point x="678" y="1492" type="curve" smooth="yes"/>
      <point x="888" y="1492"/>
      <point x="1063" y="1387"/>
      <point x="1063" y="1191" type="curve" smooth="yes"/>
      <point x="1063" y="1024"/>
      <point x="920" y="910"/>
      <point x="716" y="816" type="curve"/>
      <point x="1141" y="356" type="line"/>
      <point x="1197" y="414"/>
      <point x="1243" y="493"/>
      <point x="1277" y="576" type="curve"/>
      <point x="1375" y="498" type="line"/>
      <point x="1339" y="412"/>
      <point x="1289" y="333"/>
      <point x="1226" y="258" type="curve"/>
      <point x="1395" y="43" type="line"/>
      <point x="1327" y="15"/>
      <point x="1331" y="14"/>
      <point x="1262" y="-8" type="curve"/>
      <point x="1129" y="150" type="line"/>
      <point x="1010" y="50"/>
      <point x="853" y="-23"/>
      <point x="638" y="-23" type="curve" smooth="yes"/>
      <point x="264" y="-23"/>
      <point x="125" y="163"/>
      <point x="125" y="389" type="curve" smooth="yes"/>
      <point x="125" y="605"/>
      <point x="251" y="738"/>
    </contour>
  </outline>
</glyph>
<glyph name="quotesingle" format="1">
  <advance width="415"/>
  <unicode hex="0027"/>
  <outline>
    <contour>
      <point x="267" y="1500" type="line"/>
      <point x="247" y="1006" type="line"/>
      <point x="152" y="1006" type="line"/>
      <point x="137" y="1500" type="line"/>
    </contour>
  </outline>
</glyph>
<glyph name="parenleft" format="1">
  <advance width="590"/>
  <unicode hex="0028"/>
  <outline>
    <contour>
      <point x="108" y="598" type="curve" smooth="yes"/>
      <point x="108" y="922"/>
      <point x="203" y="1225"/>
      <point x="376" y="1485" type="curve"/>
      <point x="495" y="1485" type="line"/>
      <point x="301" y="1156"/>
      <point x="242" y="895"/>
      <point x="242" y="604" type="curve" smooth="yes"/>
      <point x="242" y="337"/>
      <point x="307" y="45"/>
      <point x="495" y="-268" type="curve"/>
      <point x="379" y="-268" type="line"/>
      <point x="210" y="-34"/>
      <point x="108" y="287"/>
    </contour>
  </outline>
</glyph>
<glyph name="parenright" format="1">
  <advance width="590"/>
  <unicode hex="0029"/>
  <outline>
    <contour>
      <point x="482" y="598" type="curve" smooth="yes"/>
      <point x="482" y="284"/>
      <point x="378" y="-33"/>
      <point x="210" y="-268" type="curve"/>
      <point x="95" y="-268" type="line"/>
      <point x="282" y="44"/>
      <point x="348" y="336"/>
      <point x="348" y="604" type="curve" smooth="yes"/>
      <point x="348" y="895"/>
      <point x="288" y="1156"/>
      <point x="94" y="1485" type="curve"/>
      <point x="212" y="1485" type="line"/>
      <point x="384" y="1224"/>
      <point x="482" y="920"/>
    </contour>
  </outline>
</glyph>
<glyph name="asterisk" format="1">
  <advance width="1106"/>
  <unicode hex="002A"/>
  <outline>
    <contour>
      <point x="633" y="1533" type="line"/>
      <point x="596" y="1096" type="line"/>
      <point x="960" y="1259" type="line"/>
      <point x="1005" y="1112" type="line"/>
      <point x="631" y="1024" type="line"/>
      <point x="686" y="942"/>
      <point x="776" y="840"/>
      <point x="886" y="674" type="curve"/>
      <point x="818" y="624"/>
      <point x="822" y="642"/>
      <point x="754" y="593" type="curve"/>
      <point x="546" y="980" type="line"/>
      <point x="350" y="592" type="line"/>
      <point x="216" y="674" type="line"/>
      <point x="466" y="1024" type="line"/>
      <point x="97" y="1111" type="line"/>
      <point x="141" y="1259" type="line"/>
      <point x="504" y="1096" type="line"/>
      <point x="466" y="1533" type="line"/>
    </contour>
  </outline>
</glyph>
<glyph name="plus" format="1">
  <advance width="1101"/>
  <unicode hex="002B"/>
  <outline>
    <contour>
      <point x="612" y="700" type="line"/>
      <point x="994" y="700" type="line"/>
      <point x="994" y="600" type="line"/>
      <point x="611" y="600" type="line"/>
      <point x="611" y="157" type="line"/>
      <point x="502" y="157" type="line"/>
      <point x="502" y="600" type="line"/>
      <point x="110" y="600" type="line"/>
      <point x="110" y="700" type="line"/>
      <point x="503" y="700" type="line"/>
      <point x="503" y="1135" type="line"/>
      <point x="612" y="1135" type="line"/>
    </contour>
  </outline>
</glyph>
<glyph name="comma" format="1">
  <advance width="504"/>
  <unicode hex="002C"/>
  <outline>
    <contour>
      <point x="130" y="-275" type="line"/>
      <point x="137" y="-139"/>
      <point x="162" y="106"/>
      <point x="162" y="235" type="curve"/>
      <point x="338" y="235" type="line"/>
      <point x="339" y="194" type="line"/>
      <point x="307" y="54"/>
      <point x="248" y="-136"/>
      <point x="202" y="-275" type="curve"/>
    </contour>
  </outline>
</glyph>
<glyph name="hyphen" format="1">
  <advance width="670"/>
  <unicode hex="002D"/>
  <outline>
    <contour>
      <point x="93" y="531" type="line"/>
      <point x="93" y="641" type="line"/>
      <point x="577" y="641" type="line"/>
      <point x="577" y="531" type="line"/>
    </contour>
  </outline>
</glyph>
<glyph name="period" format="1">
  <advance width="517"/>
  <unicode hex="002E"/>
  <outline>
    <contour>
      <point x="275" y="-8" type="curve" smooth="yes"/>
      <point x="187" y="-8"/>
      <point x="152" y="55"/>
      <point x="152" y="111" type="curve" smooth="yes"/>
      <point x="152" y="166"/>
      <point x="186" y="228"/>
      <point x="275" y="228" type="curve" smooth="yes"/>
      <point x="365" y="228"/>
      <point x="399" y="166"/>
      <point x="399" y="111" type="curve" smooth="yes"/>
      <point x="399" y="55"/>
      <point x="365" y="-8"/>
    </contour>
  </outline>
</glyph>
<glyph name="slash" format="1">
  <advance width="953"/>
  <unicode hex="002F"/>
  <outline>
    <contour>
      <point x="161" y="-237" type="line"/>
      <point x="49" y="-237" type="line"/>
      <point x="750" y="1451" type="line"/>
      <point x="863" y="1451" type="line"/>
    </contour>
  </outline>
</glyph>
<glyph name="zero" format="1">
  <advance width="1216"/>
  <unicode hex="0030"/>
  <outline>
    <contour>
      <point x="609" y="-24" type="curve" smooth="yes"/>
      <point x="265" y="-24"/>
      <point x="113" y="297"/>
      <point x="113" y="763" type="curve" smooth="yes"/>
      <point x="113" y="1259"/>
      <point x="285" y="1548"/>
      <point x="609" y="1548" type="curve" smooth="yes"/>
      <point x="933" y="1548"/>
      <point x="1101" y="1260"/>
      <point x="1101" y="763" type="curve" smooth="yes"/>
      <point x="1101" y="297"/>
      <point x="952" y="-24"/>
    </contour>
    <contour>
      <point x="609" y="1433" type="curve" smooth="yes"/>
      <point x="407" y="1433"/>
      <point x="268" y="1177"/>
      <point x="269" y="766" type="curve"/>
      <point x="269" y="348"/>
      <point x="407" y="91"/>
      <point x="608" y="91" type="curve" smooth="yes"/>
      <point x="810" y="91"/>
      <point x="949" y="350"/>
      <point x="949" y="768" type="curve" smooth="yes"/>
      <point x="949" y="1177"/>
      <point x="810" y="1433"/>
    </contour>
  </outline>
</glyph>
<glyph name="one" format="1">
  <advance width="599"/>
  <unicode hex="0031"/>
  <outline>
    <contour>
      <point x="287" y="1520" type="curve"/>
      <point x="418" y="1520" type="line"/>
      <point x="418" y="0" type="line"/>
      <point x="275" y="0" type="line"/>
      <point x="275" y="1372" type="line"/>
      <point x="169" y="1294"/>
      <point x="131" y="1291"/>
      <point x="34" y="1257" type="curve"/>
      <point x="34" y="1401" type="line"/>
      <point x="152" y="1460"/>
      <point x="180" y="1437"/>
    </contour>
  </outline>
</glyph>
<glyph name="two" format="1">
  <advance width="1144"/>
  <unicode hex="0032"/>
  <outline>
    <contour>
      <point x="133" y="0" type="line"/>
      <point x="1010" y="0" type="line"/>
      <point x="1018" y="126" type="line"/>
      <point x="278" y="126" type="line"/>
      <point x="745" y="654" type="line" smooth="yes"/>
      <point x="924" y="857"/>
      <point x="1006" y="1271"/>
      <point x="1006" y="1158" type="curve" smooth="yes"/>
      <point x="1006" y="1387"/>
      <point x="847" y="1548"/>
      <point x="578" y="1548" type="curve" smooth="yes"/>
      <point x="379" y="1548"/>
      <point x="250" y="1495"/>
      <point x="176" y="1425" type="curve"/>
      <point x="226" y="1306" type="line"/>
      <point x="314" y="1404"/>
      <point x="444" y="1426"/>
      <point x="567" y="1426" type="curve" smooth="yes"/>
      <point x="754" y="1426"/>
      <point x="847" y="1330"/>
      <point x="847" y="1140" type="curve" smooth="yes"/>
      <point x="847" y="1205"/>
      <point x="768" y="896"/>
      <point x="640" y="747" type="curve" smooth="yes"/>
      <point x="102" y="130" type="line"/>
    </contour>
  </outline>
</glyph>
<glyph name="three" format="1">
  <advance width="1115"/>
  <unicode hex="0033"/>
  <outline>
    <contour>
      <point x="501" y="-24" type="curve" smooth="yes"/>
      <point x="297" y="-24"/>
      <point x="165" y="49"/>
      <point x="124" y="87" type="curve"/>
      <point x="173" y="206" type="line"/>
      <point x="249" y="148"/>
      <point x="345" y="91"/>
      <point x="502" y="91" type="curve" smooth="yes"/>
      <point x="717" y="91"/>
      <point x="861" y="198"/>
      <point x="861" y="412" type="curve" smooth="yes"/>
      <point x="861" y="687"/>
      <point x="656" y="752"/>
      <point x="402" y="760" type="curve" smooth="yes"/>
      <point x="375" y="761"/>
      <point x="369" y="761"/>
      <point x="342" y="761" type="curve"/>
      <point x="342" y="874" type="line"/>
      <point x="364" y="874"/>
      <point x="366" y="875"/>
      <point x="388" y="875" type="curve" smooth="yes"/>
      <point x="598" y="882"/>
      <point x="797" y="922"/>
      <point x="797" y="1170" type="curve" smooth="yes"/>
      <point x="797" y="1375"/>
      <point x="692" y="1433"/>
      <point x="508" y="1433" type="curve" smooth="yes"/>
      <point x="369" y="1433"/>
      <point x="249" y="1386"/>
      <point x="173" y="1318" type="curve"/>
      <point x="125" y="1434" type="line"/>
      <point x="206" y="1503"/>
      <point x="337" y="1548"/>
      <point x="553" y="1548" type="curve" smooth="yes"/>
      <point x="747" y="1548"/>
      <point x="961" y="1440"/>
      <point x="961" y="1195" type="curve" smooth="yes"/>
      <point x="961" y="981"/>
      <point x="852" y="864"/>
      <point x="687" y="815" type="curve"/>
      <point x="873" y="777"/>
      <point x="995" y="733"/>
      <point x="995" y="418" type="curve" smooth="yes"/>
      <point x="995" y="156"/>
      <point x="791" y="-24"/>
    </contour>
  </outline>
</glyph>
<glyph name="five" format="1">
  <advance width="1195"/>
  <unicode hex="0035"/>
  <outline>
    <contour>
      <point x="1005" y="1521" type="line"/>
      <point x="992" y="1385" type="line"/>
      <point x="353" y="1385" type="line"/>
      <point x="346" y="1168"/>
      <point x="342" y="1059"/>
      <point x="337" y="842" type="curve"/>
      <point x="425" y="905"/>
      <point x="515" y="931"/>
      <point x="610" y="931" type="curve" smooth="yes"/>
      <point x="928" y="931"/>
      <point x="1067" y="722"/>
      <point x="1067" y="483" type="curve" smooth="yes"/>
      <point x="1067" y="178"/>
      <point x="854" y="-24"/>
      <point x="514" y="-24" type="curve" smooth="yes"/>
      <point x="359" y="-24"/>
      <point x="248" y="-11"/>
      <point x="129" y="111" type="curve"/>
      <point x="187" y="221" type="line"/>
      <point x="273" y="146"/>
      <point x="371" y="106"/>
      <point x="536" y="106" type="curve" smooth="yes"/>
      <point x="770" y="106"/>
      <point x="921" y="258"/>
      <point x="921" y="478" type="curve" smooth="yes"/>
      <point x="921" y="659"/>
      <point x="813" y="804"/>
      <point x="580" y="804" type="curve" smooth="yes"/>
      <point x="477" y="804"/>
      <point x="396" y="776"/>
      <point x="335" y="711" type="curve"/>
      <point x="212" y="720" type="line"/>
      <point x="252" y="1521" type="line"/>
    </contour>
  </outline>
</glyph>
<glyph name="six" format="1">
  <advance width="1196"/>
  <unicode hex="0036"/>
  <outline>
    <contour>
      <point x="253" y="454" type="curve" smooth="yes"/>
      <point x="250" y="273"/>
      <point x="382" y="87"/>
      <point x="602" y="87" type="curve" smooth="yes"/>
      <point x="819" y="87"/>
      <point x="955" y="263"/>
      <point x="955" y="443" type="curve" smooth="yes"/>
      <point x="955" y="637"/>
      <point x="829" y="813"/>
      <point x="607" y="813" type="curve" smooth="yes"/>
      <point x="373" y="813"/>
      <point x="256" y="645"/>
    </contour>
    <contour>
      <point x="626" y="922" type="curve" smooth="yes"/>
      <point x="862" y="922"/>
      <point x="1084" y="721"/>
      <point x="1084" y="444" type="curve" smooth="yes"/>
      <point x="1084" y="191"/>
      <point x="887" y="-24"/>
      <point x="604" y="-24" type="curve" smooth="yes"/>
      <point x="297" y="-24"/>
      <point x="121" y="218"/>
      <point x="121" y="473" type="curve" smooth="yes"/>
      <point x="121" y="673"/>
      <point x="183" y="759"/>
      <point x="423" y="1081" type="curve"/>
      <point x="538" y="1232"/>
      <point x="776" y="1511"/>
      <point x="776" y="1511" type="curve"/>
      <point x="913" y="1511" type="line"/>
      <point x="387" y="849" type="line"/>
      <point x="461" y="897"/>
      <point x="531" y="922"/>
    </contour>
  </outline>
</glyph>
<glyph name="seven" format="1">
  <advance width="1059"/>
  <unicode hex="0037"/>
  <outline>
    <contour>
      <point x="276" y="0" type="line"/>
      <point x="806" y="1396" type="line"/>
      <point x="116" y="1396" type="line"/>
      <point x="131" y="1521" type="line"/>
      <point x="965" y="1521" type="line"/>
      <point x="965" y="1398" type="line"/>
      <point x="419" y="0" type="line"/>
    </contour>
  </outline>
</glyph>
<glyph name="eight" format="1">
  <advance width="1196"/>
  <unicode hex="0038"/>
  <outline>
    <contour>
      <point x="601" y="-24" type="curve" smooth="yes"/>
      <point x="340" y="-24"/>
      <point x="121" y="118"/>
      <point x="121" y="383" type="curve" smooth="yes"/>
      <point x="121" y="576"/>
      <point x="241" y="741"/>
      <point x="456" y="802" type="curve"/>
      <point x="266" y="860"/>
      <point x="153" y="986"/>
      <point x="153" y="1173" type="curve" smooth="yes"/>
      <point x="153" y="1406"/>
      <point x="338" y="1548"/>
      <point x="602" y="1548" type="curve" smooth="yes"/>
      <point x="863" y="1548"/>
      <point x="1043" y="1407"/>
      <point x="1043" y="1173" type="curve" smooth="yes"/>
      <point x="1043" y="984"/>
      <point x="936" y="860"/>
      <point x="765" y="802" type="curve"/>
      <point x="959" y="742"/>
      <point x="1076" y="578"/>
      <point x="1076" y="383" type="curve" smooth="yes"/>
      <point x="1076" y="119"/>
      <point x="863" y="-24"/>
    </contour>
    <contour>
      <point x="601" y="719" type="curve"/>
      <point x="411" y="676"/>
      <point x="266" y="571"/>
      <point x="266" y="400" type="curve" smooth="yes"/>
      <point x="266" y="220"/>
      <point x="416" y="108"/>
      <point x="601" y="108" type="curve" smooth="yes"/>
      <point x="785" y="108"/>
      <point x="931" y="220"/>
      <point x="931" y="399" type="curve" smooth="yes"/>
      <point x="931" y="570"/>
      <point x="794" y="676"/>
    </contour>
    <contour>
      <point x="601" y="1415" type="curve" smooth="yes"/>
      <point x="451" y="1415"/>
      <point x="306" y="1338"/>
      <point x="306" y="1180" type="curve" smooth="yes"/>
      <point x="306" y="1014"/>
      <point x="406" y="910"/>
      <point x="601" y="865" type="curve"/>
      <point x="795" y="909"/>
      <point x="892" y="1013"/>
      <point x="892" y="1180" type="curve" smooth="yes"/>
      <point x="892" y="1338"/>
      <point x="751" y="1415"/>
    </contour>
  </outline>
</glyph>
<glyph name="nine" format="1">
  <advance width="1142"/>
  <unicode hex="0039"/>
  <outline>
    <contour>
      <point x="551" y="627" type="curve" smooth="yes"/>
      <point x="314" y="627"/>
      <point x="93" y="803"/>
      <point x="93" y="1080" type="curve" smooth="yes"/>
      <point x="93" y="1333"/>
      <point x="278" y="1548"/>
      <point x="581" y="1548" type="curve" smooth="yes"/>
      <point x="899" y="1548"/>
      <point x="1056" y="1319"/>
      <point x="1056" y="1064" type="curve" smooth="yes"/>
      <point x="1056" y="859"/>
      <point x="1003" y="767"/>
      <point x="824" y="512" type="curve"/>
      <point x="824" y="511"/>
      <point x="428" y="0"/>
      <point x="428" y="0" type="curve"/>
      <point x="265" y="0" type="line"/>
      <point x="824" y="711" type="line"/>
      <point x="750" y="664"/>
      <point x="646" y="627"/>
    </contour>
    <contour>
      <point x="903" y="1086" type="curve" smooth="yes"/>
      <point x="903" y="1267"/>
      <point x="804" y="1428"/>
      <point x="584" y="1428" type="curve" smooth="yes"/>
      <point x="367" y="1428"/>
      <point x="243" y="1260"/>
      <point x="243" y="1081" type="curve" smooth="yes"/>
      <point x="243" y="886"/>
      <point x="369" y="754"/>
      <point x="577" y="754" type="curve" smooth="yes"/>
      <point x="812" y="754"/>
      <point x="903" y="908"/>
    </contour>
  </outline>
</glyph>
<glyph name="semicolon" format="1">
  <advance width="550"/>
  <unicode hex="003B"/>
  <outline>
    <contour>
      <point x="197" y="928" type="line"/>
      <point x="197" y="1136" type="line"/>
      <point x="376" y="1136" type="line"/>
      <point x="376" y="928" type="line"/>
    </contour>
    <contour>
      <point x="370" y="165" type="line"/>
      <point x="245" y="-302" type="line"/>
      <point x="152" y="-302" type="line"/>
      <point x="208" y="165" type="line"/>
    </contour>
  </outline>
</glyph>
<glyph name="equal" format="1">
  <advance width="1240"/>
  <unicode hex="003D"/>
  <outline>
    <contour>
      <point x="149" y="829" type="line"/>
      <point x="149" y="941" type="line"/>
      <point x="1091" y="941" type="line"/>
      <point x="1091" y="829" type="line"/>
    </contour>
    <contour>
      <point x="150" y="390" type="line"/>
      <point x="150" y="500" type="line"/>
      <point x="1090" y="500" type="line"/>
      <point x="1090" y="390" type="line"/>
    </contour>
  </outline>
</glyph>
<glyph name="greater" format="1">
  <advance width="1167"/>
  <unicode hex="003E"/>
  <outline>
    <contour>
      <point x="113" y="250" type="line"/>
      <point x="919" y="622" type="line"/>
      <point x="116" y="1042" type="line"/>
      <point x="116" y="1165" type="line"/>
      <point x="1070" y="656" type="line"/>
      <point x="1070" y="577" type="line"/>
      <point x="113" y="122" type="line"/>
    </contour>
  </outline>
</glyph>
<glyph name="question" format="1">
  <advance width="855"/>
  <unicode hex="003F"/>
  <outline>
    <contour>
      <point x="390" y="427" type="curve"/>
      <point x="314" y="427" type="line"/>
      <point x="297" y="624"/>
      <point x="600" y="1030"/>
      <point x="600" y="1234" type="curve" smooth="yes"/>
      <point x="598" y="1377"/>
      <point x="501" y="1420"/>
      <point x="367" y="1420" type="curve" smooth="yes"/>
      <point x="254" y="1420"/>
      <point x="160" y="1367"/>
      <point x="117" y="1341" type="curve"/>
      <point x="83" y="1456" type="line"/>
      <point x="168" y="1530"/>
      <point x="307" y="1547"/>
      <point x="394" y="1547" type="curve" smooth="yes"/>
      <point x="616" y="1547"/>
      <point x="742" y="1426"/>
      <point x="742" y="1235" type="curve" smooth="yes"/>
      <point x="742" y="940"/>
      <point x="538" y="780"/>
    </contour>
    <contour>
      <point x="252" y="111" type="curve" smooth="yes"/>
      <point x="252" y="166"/>
      <point x="287" y="228"/>
      <point x="375" y="228" type="curve" smooth="yes"/>
      <point x="465" y="228"/>
      <point x="499" y="166"/>
      <point x="499" y="111" type="curve" smooth="yes"/>
      <point x="499" y="55"/>
      <point x="465" y="-8"/>
      <point x="375" y="-8" type="curve" smooth="yes"/>
      <point x="287" y="-8"/>
      <point x="252" y="55"/>
    </contour>
  </outline>
</glyph>
<glyph name="at" format="1">
  <advance width="1867"/>
  <unicode hex="0040"/>
  <outline>
    <contour>
      <point x="702" y="677" type="curve" smooth="yes"/>
      <point x="702" y="534"/>
      <point x="760" y="452"/>
      <point x="881" y="452" type="curve" smooth="yes"/>
      <point x="1033" y="452"/>
      <point x="1088" y="555"/>
      <point x="1104" y="748" type="curve" smooth="yes"/>
      <point x="1111" y="827"/>
      <point x="1118" y="910"/>
      <point x="1125" y="997" type="curve"/>
      <point x="1088" y="1014"/>
      <point x="1016" y="1023"/>
      <point x="964" y="1023" type="curve" smooth="yes"/>
      <point x="768" y="1023"/>
      <point x="702" y="885"/>
    </contour>
    <contour>
      <point x="1735" y="839" type="curve" smooth="yes"/>
      <point x="1735" y="512"/>
      <point x="1530" y="327"/>
      <point x="1334" y="327" type="curve" smooth="yes"/>
      <point x="1226" y="327"/>
      <point x="1148" y="391"/>
      <point x="1128" y="467" type="curve"/>
      <point x="1084" y="438"/>
      <point x="994" y="332"/>
      <point x="855" y="332" type="curve" smooth="yes"/>
      <point x="691" y="332"/>
      <point x="580" y="455"/>
      <point x="580" y="683" type="curve" smooth="yes"/>
      <point x="580" y="938"/>
      <point x="702" y="1143"/>
      <point x="970" y="1143" type="curve" smooth="yes"/>
      <point x="1054" y="1143"/>
      <point x="1185" y="1122"/>
      <point x="1268" y="1095" type="curve"/>
      <point x="1242" y="879"/>
      <point x="1208" y="659"/>
      <point x="1218" y="556" type="curve"/>
      <point x="1227" y="495"/>
      <point x="1273" y="436"/>
      <point x="1348" y="436" type="curve" smooth="yes"/>
      <point x="1470" y="436"/>
      <point x="1616" y="589"/>
      <point x="1616" y="848" type="curve" smooth="yes"/>
      <point x="1616" y="1225"/>
      <point x="1342" y="1443"/>
      <point x="965" y="1443" type="curve" smooth="yes"/>
      <point x="584" y="1443"/>
      <point x="251" y="1208"/>
      <point x="251" y="696" type="curve" smooth="yes"/>
      <point x="251" y="286"/>
      <point x="489" y="33"/>
      <point x="885" y="33" type="curve" smooth="yes"/>
      <point x="1042" y="33"/>
      <point x="1184" y="68"/>
      <point x="1305" y="118" type="curve"/>
      <point x="1331" y="5" type="line"/>
      <point x="1210" y="-61"/>
      <point x="1047" y="-82"/>
      <point x="882" y="-82" type="curve" smooth="yes"/>
      <point x="430" y="-82"/>
      <point x="131" y="200"/>
      <point x="131" y="682" type="curve" smooth="yes"/>
      <point x="131" y="1174"/>
      <point x="476" y="1553"/>
      <point x="978" y="1553" type="curve" smooth="yes"/>
      <point x="1410" y="1553"/>
      <point x="1735" y="1282"/>
    </contour>
  </outline>
</glyph>
<glyph name="A" format="1">
  <advance width="1276"/>
  <unicode hex="0041"/>
  <outline>
    <contour>
      <point x="638" y="1491" type="move" name="top"/>
    </contour>
    <contour>
      <point x="1149" y="10" type="move" name="ogonek"/>
    </contour>
    <contour>
      <point x="1138" y="0" type="line"/>
      <point x="1270" y="0" type="line"/>
      <point x="710" y="1493" type="line"/>
      <point x="587" y="1493" type="line"/>
      <point x="6" y="0" type="line"/>
      <point x="133" y="0" type="line"/>
      <point x="327" y="505" type="line"/>
      <point x="952" y="505" type="line"/>
    </contour>
    <contour>
      <point x="902" y="613" type="curve"/>
      <point x="380" y="613" type="line"/>
      <point x="380" y="613"/>
      <point x="620" y="1264"/>
      <point x="647" y="1363" type="curve"/>
      <point x="677" y="1249"/>
      <point x="902" y="613"/>
    </contour>
  </outline>
</glyph>
<glyph name="B" format="1">
  <advance width="1264"/>
  <unicode hex="0042"/>
  <outline>
    <contour>
      <point x="309" y="727" type="line"/>
      <point x="309" y="100" type="line"/>
      <point x="652" y="100" type="line" smooth="yes"/>
      <point x="919" y="100"/>
      <point x="1057" y="201"/>
      <point x="1057" y="419" type="curve" smooth="yes"/>
      <point x="1057" y="659"/>
      <point x="897" y="727"/>
      <point x="594" y="727" type="curve" smooth="yes"/>
    </contour>
    <contour>
      <point x="309" y="825" type="line"/>
      <point x="665" y="825" type="line" smooth="yes"/>
      <point x="863" y="825"/>
      <point x="998" y="878"/>
      <point x="998" y="1107" type="curve" smooth="yes"/>
      <point x="998" y="1324"/>
      <point x="846" y="1384"/>
      <point x="581" y="1384" type="curve" smooth="yes"/>
      <point x="309" y="1384" type="line"/>
    </contour>
    <contour>
      <point x="181" y="1488" type="line"/>
      <point x="587" y="1488" type="line" smooth="yes"/>
      <point x="961" y="1488"/>
      <point x="1139" y="1374"/>
      <point x="1139" y="1127" type="curve" smooth="yes"/>
      <point x="1139" y="1069"/>
      <point x="1125" y="863"/>
      <point x="872" y="785" type="curve"/>
      <point x="1089" y="753"/>
      <point x="1194" y="594"/>
      <point x="1194" y="419" type="curve" smooth="yes"/>
      <point x="1194" y="168"/>
      <point x="1043" y="0"/>
      <point x="685" y="0" type="curve" smooth="yes"/>
      <point x="181" y="0" type="line"/>
    </contour>
  </outline>
</glyph>
<glyph name="C" format="1">
  <advance width="1285"/>
  <unicode hex="0043"/>
  <outline>
    <contour>
      <point x="642" y="1491" type="move" name="top"/>
    </contour>
    <contour>
      <point x="642" y="0" type="move" name="bottom"/>
    </contour>
    <contour>
      <point x="826" y="1409" type="curve" smooth="yes"/>
      <point x="451" y="1409"/>
      <point x="259" y="1112"/>
      <point x="259" y="742" type="curve" smooth="yes"/>
      <point x="259" y="387"/>
      <point x="429" y="84"/>
      <point x="831" y="84" type="curve" smooth="yes"/>
      <point x="960" y="84"/>
      <point x="1079" y="125"/>
      <point x="1181" y="171" type="curve"/>
      <point x="1207" y="68" type="line"/>
      <point x="1119" y="13"/>
      <point x="991" y="-23"/>
      <point x="812" y="-23" type="curve" smooth="yes"/>
      <point x="344" y="-23"/>
      <point x="117" y="308"/>
      <point x="117" y="749" type="curve" smooth="yes"/>
      <point x="117" y="1189"/>
      <point x="372" y="1516"/>
      <point x="825" y="1516" type="curve" smooth="yes"/>
      <point x="1010" y="1516"/>
      <point x="1140" y="1471"/>
      <point x="1239" y="1412" type="curve"/>
      <point x="1178" y="1313" type="line"/>
      <point x="1080" y="1372"/>
      <point x="954" y="1409"/>
    </contour>
  </outline>
</glyph>
<glyph name="D" format="1">
  <advance width="1497"/>
  <unicode hex="0044"/>
  <outline>
    <contour>
      <point x="748" y="1491" type="move" name="top"/>
    </contour>
    <contour>
      <point x="748" y="746" type="move" name="center"/>
    </contour>
    <contour>
      <point x="1236" y="738" type="curve" smooth="yes"/>
      <point x="1236" y="315"/>
      <point x="1010" y="107"/>
      <point x="601" y="107" type="curve" smooth="yes"/>
      <point x="309" y="107" type="line"/>
      <point x="309" y="1382" type="line"/>
      <point x="572" y="1382" type="line" smooth="yes"/>
      <point x="982" y="1382"/>
      <point x="1236" y="1204"/>
    </contour>
    <contour>
      <point x="1379" y="743" type="curve" smooth="yes"/>
      <point x="1379" y="1268"/>
      <point x="1059" y="1488"/>
      <point x="584" y="1488" type="curve" smooth="yes"/>
      <point x="181" y="1488" type="line"/>
      <point x="181" y="0" type="line"/>
      <point x="615" y="0" type="line" smooth="yes"/>
      <point x="1089" y="0"/>
      <point x="1379" y="248"/>
    </contour>
  </outline>
</glyph>
<glyph name="E" format="1">
  <advance width="1141"/>
  <unicode hex="0045"/>
  <outline>
    <contour>
      <point x="571" y="1491" type="move" name="top"/>
    </contour>
    <contour>
      <point x="1027" y="10" type="move" name="ogonek"/>
    </contour>
    <contour>
      <point x="571" y="0" type="move" name="bottom"/>
    </contour>
    <contour>
      <point x="181" y="0" type="line"/>
      <point x="1016" y="0" type="line"/>
      <point x="1027" y="111" type="line"/>
      <point x="309" y="111" type="line"/>
      <point x="309" y="713" type="line"/>
      <point x="971" y="713" type="line"/>
      <point x="971" y="822" type="line"/>
      <point x="309" y="822" type="line"/>
      <point x="309" y="1377" type="line"/>
      <point x="1005" y="1377" type="line"/>
      <point x="1010" y="1488" type="line"/>
      <point x="181" y="1488" type="line"/>
    </contour>
  </outline>
</glyph>
<glyph name="F" format="1">
  <advance width="1024"/>
  <unicode hex="0046"/>
  <outline>
    <contour>
      <point x="310" y="0" type="line"/>
      <point x="310" y="686" type="line"/>
      <point x="945" y="686" type="line"/>
      <point x="945" y="789" type="line"/>
      <point x="310" y="789" type="line"/>
      <point x="310" y="1377" type="line"/>
      <point x="975" y="1377" type="line"/>
      <point x="981" y="1488" type="line"/>
      <point x="181" y="1488" type="line"/>
      <point x="181" y="0" type="line"/>
    </contour>
  </outline>
</glyph>
<glyph name="G" format="1">
  <advance width="1459"/>
  <unicode hex="0047"/>
  <outline>
    <contour>
      <point x="730" y="1491" type="move" name="top"/>
    </contour>
    <contour>
      <point x="730" y="0" type="move" name="bottom"/>
    </contour>
    <contour>
      <point x="822" y="-23" type="curve" smooth="yes"/>
      <point x="1026" y="-23"/>
      <point x="1163" y="3"/>
      <point x="1330" y="89" type="curve"/>
      <point x="1330" y="745" type="line"/>
      <point x="850" y="745" type="line"/>
      <point x="842" y="634" type="line"/>
      <point x="1211" y="634" type="line"/>
      <point x="1211" y="158" type="line"/>
      <point x="1123" y="123"/>
      <point x="986" y="83"/>
      <point x="865" y="83" type="curve" smooth="yes"/>
      <point x="453" y="83"/>
      <point x="259" y="349"/>
      <point x="259" y="742" type="curve" smooth="yes"/>
      <point x="259" y="1108"/>
      <point x="448" y="1409"/>
      <point x="849" y="1409" type="curve" smooth="yes"/>
      <point x="982" y="1409"/>
      <point x="1129" y="1360"/>
      <point x="1235" y="1296" type="curve"/>
      <point x="1292" y="1399" type="line"/>
      <point x="1169" y="1472"/>
      <point x="1022" y="1516"/>
      <point x="848" y="1516" type="curve" smooth="yes"/>
      <point x="382" y="1516"/>
      <point x="119" y="1186"/>
      <point x="119" y="740" type="curve" smooth="yes"/>
      <point x="119" y="315"/>
      <point x="359" y="-23"/>
    </contour>
  </outline>
</glyph>
<glyph name="H" format="1">
  <advance width="1474"/>
  <unicode hex="0048"/>
  <outline>
    <contour>
      <point x="737" y="1491" type="move" name="top"/>
    </contour>
    <contour>
      <point x="737" y="746" type="move" name="center"/>
    </contour>
    <contour>
      <point x="1291" y="0" type="line"/>
      <point x="1291" y="1488" type="line"/>
      <point x="1163" y="1488" type="line"/>
      <point x="1163" y="830" type="line"/>
      <point x="309" y="830" type="line"/>
      <point x="309" y="1488" type="line"/>
      <point x="181" y="1488" type="line"/>
      <point x="181" y="0" type="line"/>
      <point x="309" y="0" type="line"/>
      <point x="309" y="718" type="line"/>
      <point x="1163" y="718" type="line"/>
      <point x="1163" y="0" type="line"/>
    </contour>
  </outline>
</glyph>
<glyph name="I" format="1">
  <advance width="512"/>
  <unicode hex="0049"/>
  <outline>
    <contour>
      <point x="256" y="1491" type="move" name="top"/>
    </contour>
    <contour>
      <point x="461" y="10" type="move" name="ogonek"/>
    </contour>
    <contour>
      <point x="190" y="0" type="line"/>
      <point x="190" y="1488" type="line"/>
      <point x="318" y="1488" type="line"/>
      <point x="318" y="0" type="line"/>
    </contour>
  </outline>
</glyph>
<glyph name="J" format="1">
  <advance width="512"/>
  <unicode hex="004A"/>
  <outline>
    <contour>
      <point x="256" y="1491" type="move" name="top"/>
    </contour>
    <contour>
      <point x="234" y="216" type="curve" smooth="yes"/>
      <point x="234" y="1514" type="line"/>
      <point x="367" y="1514" type="line"/>
      <point x="367" y="303" type="line" smooth="yes"/>
      <point x="367" y="7"/>
      <point x="366" y="-138"/>
      <point x="13" y="-138" type="curve" smooth="yes"/>
      <point x="28" y="-138"/>
      <point x="-6" y="-140"/>
      <point x="6" y="-143" type="curve"/>
      <point x="-20" y="-48" type="line"/>
      <point x="-33" y="-45"/>
      <point x="53" y="-43"/>
      <point x="40" y="-43" type="curve" smooth="yes"/>
      <point x="234" y="-43"/>
      <point x="234" y="78"/>
    </contour>
  </outline>
</glyph>
<glyph name="K" format="1">
  <advance width="1208"/>
  <unicode hex="004B"/>
  <outline>
    <contour>
      <point x="1226" y="0" type="line"/>
      <point x="1063" y="0" type="line"/>
      <point x="456" y="739" type="line"/>
      <point x="311" y="603" type="line"/>
      <point x="311" y="0" type="line"/>
      <point x="182" y="0" type="line"/>
      <point x="182" y="1488" type="line"/>
      <point x="311" y="1488" type="line"/>
      <point x="311" y="719" type="line"/>
      <point x="254" y="610"/>
      <point x="1065" y="1594"/>
      <point x="1006" y="1488" type="curve"/>
      <point x="1175" y="1488" type="line"/>
      <point x="554" y="817" type="line"/>
    </contour>
    <contour>
      <point x="604" y="1488" type="move" name="top"/>
    </contour>
    <contour>
      <point x="604" y="0" type="move" name="bottom"/>
    </contour>
  </outline>
</glyph>
<glyph name="L" format="1">
  <advance width="997"/>
  <unicode hex="004C"/>
  <outline>
    <contour>
      <point x="499" y="1491" type="move" name="top"/>
    </contour>
    <contour>
      <point x="499" y="0" type="move" name="bottom"/>
    </contour>
    <contour>
      <point x="181" y="0" type="line"/>
      <point x="181" y="1488" type="line"/>
      <point x="310" y="1488" type="line"/>
      <point x="310" y="113" type="line"/>
      <point x="979" y="113" type="line"/>
      <point x="973" y="0" type="line"/>
    </contour>
  </outline>
</glyph>
<glyph name="M" format="1">
  <advance width="1806"/>
  <unicode hex="004D"/>
  <outline>
    <contour>
      <point x="833" y="85" type="line"/>
      <point x="339" y="1222" type="line"/>
      <point x="300" y="1342" type="line"/>
      <point x="307" y="996" type="line"/>
      <point x="307" y="0" type="line"/>
      <point x="182" y="0" type="line"/>
      <point x="182" y="1488" type="line"/>
      <point x="362" y="1488" type="line"/>
      <point x="910" y="231" type="line"/>
      <point x="1449" y="1488" type="line"/>
      <point x="1622" y="1488" type="line"/>
      <point x="1622" y="0" type="line"/>
      <point x="1492" y="0" type="line"/>
      <point x="1492" y="1001" type="line"/>
      <point x="1499" y="1339" type="line"/>
      <point x="1462" y="1219" type="line"/>
      <point x="973" y="85" type="line"/>
    </contour>
  </outline>
</glyph>
<glyph name="N" format="1">
  <advance width="1498"/>
  <unicode hex="004E"/>
  <outline>
    <contour>
      <point x="749" y="1491" type="move" name="top"/>
    </contour>
    <contour>
      <point x="749" y="0" type="move" name="bottom"/>
    </contour>
    <contour>
      <point x="1316" y="0" type="line"/>
      <point x="1164" y="0" type="line"/>
      <point x="347" y="1253" type="line"/>
      <point x="296" y="1326" type="line"/>
      <point x="303" y="1129"/>
      <point x="304" y="1116"/>
      <point x="304" y="938" type="curve"/>
      <point x="304" y="0" type="line"/>
      <point x="181" y="0" type="line"/>
      <point x="181" y="1488" type="line"/>
      <point x="330" y="1488" type="line"/>
      <point x="1149" y="233" type="line"/>
      <point x="1202" y="160" type="line"/>
      <point x="1202" y="160"/>
      <point x="1195" y="468"/>
      <point x="1195" y="543" type="curve"/>
      <point x="1195" y="1488" type="line"/>
      <point x="1316" y="1488" type="line"/>
    </contour>
  </outline>
</glyph>
<glyph name="O" format="1">
  <advance width="1626"/>
  <unicode hex="004F"/>
  <outline>
    <contour>
      <point x="813" y="1491" type="move" name="top"/>
    </contour>
    <contour>
      <point x="257" y="745" type="curve" smooth="yes"/>
      <point x="257" y="348"/>
      <point x="438" y="82"/>
      <point x="814" y="82" type="curve" smooth="yes"/>
      <point x="1191" y="82"/>
      <point x="1366" y="349"/>
      <point x="1366" y="745" type="curve" smooth="yes"/>
      <point x="1366" y="1161"/>
      <point x="1181" y="1410"/>
      <point x="815" y="1410" type="curve" smooth="yes"/>
      <point x="448" y="1410"/>
      <point x="257" y="1163"/>
    </contour>
    <contour>
      <point x="1508" y="743" type="curve" smooth="yes"/>
      <point x="1508" y="305"/>
      <point x="1269" y="-23"/>
      <point x="814" y="-23" type="curve" smooth="yes"/>
      <point x="351" y="-23"/>
      <point x="117" y="296"/>
      <point x="117" y="744" type="curve" smooth="yes"/>
      <point x="117" y="1208"/>
      <point x="363" y="1517"/>
      <point x="815" y="1517" type="curve" smooth="yes"/>
      <point x="1258" y="1517"/>
      <point x="1508" y="1205"/>
    </contour>
  </outline>
</glyph>
<glyph name="P" format="1">
  <advance width="1138"/>
  <unicode hex="0050"/>
  <outline>
    <contour>
      <point x="289" y="0" type="line"/>
      <point x="153" y="0" type="line"/>
      <point x="153" y="1514" type="line"/>
      <point x="632" y="1514" type="line" smooth="yes"/>
      <point x="892" y="1514"/>
      <point x="1107" y="1411"/>
      <point x="1107" y="1135" type="curve" smooth="yes"/>
      <point x="1107" y="848"/>
      <point x="989" y="671"/>
      <point x="543" y="671" type="curve" smooth="yes"/>
      <point x="481" y="671"/>
      <point x="365" y="680"/>
      <point x="289" y="687" type="curve"/>
    </contour>
    <contour>
      <point x="582" y="795" type="curve" smooth="yes"/>
      <point x="944" y="795"/>
      <point x="964" y="974"/>
      <point x="964" y="1136" type="curve" smooth="yes"/>
      <point x="964" y="1323"/>
      <point x="821" y="1383"/>
      <point x="637" y="1383" type="curve" smooth="yes"/>
      <point x="289" y="1383" type="line"/>
      <point x="289" y="797" type="line"/>
      <point x="280" y="799"/>
      <point x="510" y="795"/>
    </contour>
  </outline>
</glyph>
<glyph name="Q" format="1">
  <advance width="1626"/>
  <unicode hex="0051"/>
  <outline>
    <contour>
      <point x="1260" y="-470" type="curve"/>
      <point x="1366" y="-365" type="line"/>
      <point x="1247" y="-245"/>
      <point x="1080" y="79"/>
      <point x="1102" y="28" type="curve"/>
      <point x="1368" y="138"/>
      <point x="1501" y="408"/>
      <point x="1501" y="745" type="curve" smooth="yes"/>
      <point x="1501" y="1208"/>
      <point x="1263" y="1517"/>
      <point x="816" y="1517" type="curve" smooth="yes"/>
      <point x="359" y="1517"/>
      <point x="125" y="1212"/>
      <point x="125" y="746" type="curve" smooth="yes"/>
      <point x="125" y="295"/>
      <point x="347" y="-23"/>
      <point x="814" y="-23" type="curve" smooth="yes"/>
      <point x="864" y="-23"/>
      <point x="910" y="-19"/>
      <point x="954" y="-12" type="curve"/>
      <point x="1041" y="-200"/>
      <point x="1257" y="-462"/>
    </contour>
    <contour>
      <point x="814" y="91" type="curve" smooth="yes"/>
      <point x="445" y="91"/>
      <point x="269" y="346"/>
      <point x="269" y="747" type="curve" smooth="yes"/>
      <point x="269" y="1171"/>
      <point x="457" y="1403"/>
      <point x="815" y="1403" type="curve" smooth="yes"/>
      <point x="1173" y="1403"/>
      <point x="1354" y="1169"/>
      <point x="1354" y="747" type="curve" smooth="yes"/>
      <point x="1354" y="346"/>
      <point x="1183" y="91"/>
    </contour>
  </outline>
</glyph>
<glyph name="R" format="1">
  <advance width="1344"/>
  <unicode hex="0052"/>
  <outline>
    <contour>
      <point x="673" y="1491" type="move" name="top"/>
    </contour>
    <contour>
      <point x="673" y="0" type="move" name="bottom"/>
    </contour>
    <contour>
      <point x="1249" y="0" type="line"/>
      <point x="1089" y="0" type="line"/>
      <point x="871" y="518" type="line"/>
      <point x="831" y="611"/>
      <point x="814" y="654"/>
      <point x="773" y="730" type="curve"/>
      <point x="738" y="726"/>
      <point x="603" y="721"/>
      <point x="572" y="721" type="curve" smooth="yes"/>
      <point x="547" y="721"/>
      <point x="290" y="733"/>
      <point x="290" y="733" type="curve"/>
      <point x="290" y="0" type="line"/>
      <point x="155" y="0" type="line"/>
      <point x="155" y="1514" type="line"/>
      <point x="596" y="1514" type="line" smooth="yes"/>
      <point x="956" y="1514"/>
      <point x="1185" y="1471"/>
      <point x="1185" y="1133" type="curve" smooth="yes"/>
      <point x="1185" y="957"/>
      <point x="1083" y="803"/>
      <point x="895" y="755" type="curve"/>
      <point x="874" y="782"/>
      <point x="964" y="634"/>
      <point x="995" y="568" type="curve"/>
    </contour>
    <contour>
      <point x="290" y="1390" type="line"/>
      <point x="290" y="851" type="line"/>
      <point x="454" y="849"/>
      <point x="525" y="845"/>
      <point x="690" y="845" type="curve" smooth="yes"/>
      <point x="979" y="845"/>
      <point x="1053" y="946"/>
      <point x="1053" y="1131" type="curve" smooth="yes"/>
      <point x="1053" y="1295"/>
      <point x="977" y="1390"/>
      <point x="725" y="1390" type="curve" smooth="yes"/>
    </contour>
  </outline>
</glyph>
<glyph name="S" format="1">
  <advance width="1247"/>
  <unicode hex="0053"/>
  <outline>
    <contour>
      <point x="155" y="197" type="line"/>
      <point x="283" y="136"/>
      <point x="460" y="85"/>
      <point x="668" y="85" type="curve" smooth="yes"/>
      <point x="897" y="85"/>
      <point x="1024" y="209.5"/>
      <point x="1024" y="431" type="curve" smooth="yes"/>
      <point x="1024" y="582.003"/>
      <point x="980.379" y="673.308"/>
      <point x="738" y="723" type="curve" smooth="yes"/>
      <point x="499" y="772" type="line" smooth="yes"/>
      <point x="246.47" y="823.774"/>
      <point x="97" y="924"/>
      <point x="97" y="1151" type="curve" smooth="yes"/>
      <point x="97" y="1437"/>
      <point x="324" y="1547"/>
      <point x="653" y="1547" type="curve" smooth="yes"/>
      <point x="838" y="1547"/>
      <point x="1006" y="1500"/>
      <point x="1097" y="1441" type="curve"/>
      <point x="1060" y="1340" type="line"/>
      <point x="998" y="1375"/>
      <point x="821" y="1439"/>
      <point x="650" y="1439" type="curve" smooth="yes"/>
      <point x="375" y="1439"/>
      <point x="228" y="1348"/>
      <point x="228" y="1138" type="curve" smooth="yes"/>
      <point x="228" y="1004"/>
      <point x="324" y="931"/>
      <point x="493" y="895" type="curve" smooth="yes"/>
      <point x="760" y="838" type="line" smooth="yes"/>
      <point x="1012.19" y="784.161"/>
      <point x="1158.17" y="687.83"/>
      <point x="1158.17" y="428.335" type="curve" smooth="yes"/>
      <point x="1158.17" y="135.187"/>
      <point x="951.132" y="-24"/>
      <point x="657" y="-24" type="curve" smooth="yes"/>
      <point x="374" y="-24"/>
      <point x="178" y="59"/>
      <point x="99" y="107" type="curve"/>
    </contour>
    <contour>
      <point x="624" y="1488" type="move" name="top"/>
    </contour>
    <contour>
      <point x="624" y="0" type="move" name="bottom"/>
    </contour>
  </outline>
</glyph>
<glyph name="T" format="1">
  <advance width="1081"/>
  <unicode hex="0054"/>
  <outline>
    <contour>
      <point x="541" y="1491" type="move" name="top"/>
    </contour>
    <contour>
      <point x="541" y="746" type="move" name="center"/>
    </contour>
    <contour>
      <point x="541" y="0" type="move" name="bottom"/>
    </contour>
    <contour>
      <point x="605" y="0" type="line"/>
      <point x="475" y="0" type="line"/>
      <point x="475" y="1378" type="line"/>
      <point x="7" y="1378" type="line"/>
      <point x="7" y="1488" type="line"/>
      <point x="1073" y="1488" type="line"/>
      <point x="1073" y="1378" type="line"/>
      <point x="605" y="1378" type="line"/>
    </contour>
  </outline>
</glyph>
<glyph name="U" format="1">
  <advance width="1425"/>
  <unicode hex="0055"/>
  <outline>
    <contour>
      <point x="1246" y="1488" type="line"/>
      <point x="1246" y="515" type="line" smooth="yes"/>
      <point x="1246" y="196"/>
      <point x="1090" y="-23"/>
      <point x="695" y="-23" type="curve" smooth="yes"/>
      <point x="301" y="-23"/>
      <point x="152" y="197"/>
      <point x="152" y="517" type="curve" smooth="yes"/>
      <point x="152" y="1488" type="line"/>
      <point x="281" y="1488" type="line"/>
      <point x="281" y="497" type="line" smooth="yes"/>
      <point x="281" y="211"/>
      <point x="421" y="79"/>
      <point x="702" y="79" type="curve" smooth="yes"/>
      <point x="975" y="79"/>
      <point x="1118" y="213"/>
      <point x="1118" y="498" type="curve" smooth="yes"/>
      <point x="1118" y="1488" type="line"/>
    </contour>
    <contour>
      <point x="713" y="1488" type="move" name="top"/>
    </contour>
    <contour>
      <point x="1282" y="10" type="move" name="ogonek"/>
    </contour>
  </outline>
</glyph>
<glyph name="bracketleft" format="1">
  <advance width="688"/>
  <unicode hex="005B"/>
  <outline>
    <contour>
      <point x="595" y="-311" type="line"/>
      <point x="147" y="-311" type="line"/>
      <point x="147" y="1467" type="line"/>
      <point x="595" y="1467" type="line"/>
      <point x="595" y="1367" type="line"/>
      <point x="283" y="1367" type="line"/>
      <point x="283" y="-211" type="line"/>
      <point x="595" y="-211" type="line"/>
    </contour>
  </outline>
</glyph>
<glyph name="backslash" format="1">
  <advance width="816"/>
  <unicode hex="005C"/>
  <outline>
    <contour>
      <point x="184" y="1465" type="line"/>
      <point x="774" y="-60" type="line"/>
      <point x="652" y="-60" type="line"/>
      <point x="62" y="1465" type="line"/>
    </contour>
  </outline>
</glyph>
<glyph name="bracketright" format="1">
  <advance width="688"/>
  <unicode hex="005D"/>
  <outline>
    <contour>
      <point x="93" y="-211" type="line"/>
      <point x="405" y="-211" type="line"/>
      <point x="405" y="1367" type="line"/>
      <point x="93" y="1367" type="line"/>
      <point x="93" y="1467" type="line"/>
      <point x="541" y="1467" type="line"/>
      <point x="541" y="-311" type="line"/>
      <point x="93" y="-311" type="line"/>
    </contour>
  </outline>
</glyph>
<glyph name="underscore" format="1">
  <advance width="1053"/>
  <unicode hex="005F"/>
  <outline>
    <contour>
      <point x="978" y="-295" type="line"/>
      <point x="73" y="-295" type="line"/>
      <point x="73" y="-187" type="line"/>
      <point x="978" y="-187" type="line"/>
    </contour>
  </outline>
</glyph>
<glyph name="grave" format="1">
  <advance width="702"/>
  <unicode hex="0060"/>
  <outline>
    <contour>
      <point x="332" y="1097" type="move" name="_top"/>
    </contour>
    <contour>
      <point x="447" y="1288" type="line"/>
      <point x="128" y="1678" type="line"/>
      <point x="352" y="1678" type="line"/>
      <point x="536" y="1288" type="line"/>
    </contour>
  </outline>
</glyph>
<glyph name="a" format="1">
  <advance width="1077"/>
  <unicode hex="0061"/>
  <outline>
    <contour>
      <point x="539" y="1097" type="move" name="top"/>
    </contour>
    <contour>
      <point x="969" y="10" type="move" name="ogonek"/>
    </contour>
    <contour>
      <point x="444" y="77" type="curve" smooth="yes"/>
      <point x="610" y="77"/>
      <point x="767" y="179"/>
      <point x="802" y="380" type="curve"/>
      <point x="802" y="547" type="line"/>
      <point x="766" y="544"/>
      <point x="696" y="536"/>
      <point x="657" y="535" type="curve"/>
      <point x="329" y="505"/>
      <point x="232" y="439"/>
      <point x="232" y="277" type="curve" smooth="yes"/>
      <point x="232" y="138"/>
      <point x="318" y="77"/>
    </contour>
    <contour>
      <point x="825" y="0" type="line"/>
      <point x="817" y="39"/>
      <point x="809" y="102"/>
      <point x="803" y="141" type="curve"/>
      <point x="669" y="1"/>
      <point x="575" y="-24"/>
      <point x="440" y="-24" type="curve" smooth="yes"/>
      <point x="239" y="-24"/>
      <point x="99" y="79"/>
      <point x="99" y="277" type="curve" smooth="yes"/>
      <point x="99" y="512"/>
      <point x="310" y="599"/>
      <point x="615" y="622" type="curve"/>
      <point x="679" y="626"/>
      <point x="743" y="630"/>
      <point x="805" y="635" type="curve"/>
      <point x="805" y="757" type="line" smooth="yes"/>
      <point x="805" y="921"/>
      <point x="736" y="1010"/>
      <point x="563" y="1010" type="curve" smooth="yes"/>
      <point x="455" y="1010"/>
      <point x="340" y="983"/>
      <point x="238" y="927" type="curve"/>
      <point x="226" y="958"/>
      <point x="209" y="990"/>
      <point x="199" y="1022" type="curve"/>
      <point x="280" y="1075"/>
      <point x="427" y="1116"/>
      <point x="557" y="1116" type="curve" smooth="yes"/>
      <point x="813" y="1116"/>
      <point x="926" y="1025"/>
      <point x="926" y="732" type="curve" smooth="yes"/>
      <point x="926" y="0" type="line"/>
    </contour>
  </outline>
</glyph>
<glyph name="b" format="1">
  <advance width="1194"/>
  <unicode hex="0062"/>
  <outline>
    <contour>
      <point x="632" y="1016" type="curve" smooth="yes"/>
      <point x="400" y="1016"/>
      <point x="276" y="840"/>
      <point x="277" y="537" type="curve"/>
      <point x="277" y="265"/>
      <point x="374" y="75"/>
      <point x="632" y="75" type="curve" smooth="yes"/>
      <point x="889" y="75"/>
      <point x="966" y="310"/>
      <point x="966" y="543" type="curve" smooth="yes"/>
      <point x="966" y="778"/>
      <point x="889" y="1016"/>
    </contour>
    <contour>
      <point x="626" y="1116" type="curve" smooth="yes"/>
      <point x="931" y="1116"/>
      <point x="1097" y="872"/>
      <point x="1097" y="549" type="curve" smooth="yes"/>
      <point x="1097" y="218"/>
      <point x="939" y="-24"/>
      <point x="626" y="-24" type="curve" smooth="yes"/>
      <point x="482" y="-24"/>
      <point x="361" y="34"/>
      <point x="271" y="159" type="curve"/>
      <point x="258" y="0" type="line"/>
      <point x="154" y="0" type="line"/>
      <point x="154" y="1521" type="line"/>
      <point x="277" y="1532" type="line"/>
      <point x="277" y="1163" type="line" smooth="yes"/>
      <point x="277" y="1072"/>
      <point x="277" y="994"/>
      <point x="274" y="930" type="curve"/>
      <point x="360" y="1062"/>
      <point x="500" y="1116"/>
    </contour>
  </outline>
</glyph>
<glyph name="c" format="1">
  <advance width="956"/>
  <unicode hex="0063"/>
  <outline>
    <contour>
      <point x="604" y="-24" type="curve" smooth="yes"/>
      <point x="275" y="-24"/>
      <point x="97" y="235"/>
      <point x="97" y="537" type="curve" smooth="yes"/>
      <point x="98" y="849"/>
      <point x="275" y="1116"/>
      <point x="608" y="1116" type="curve" smooth="yes"/>
      <point x="715" y="1116"/>
      <point x="833" y="1083"/>
      <point x="882" y="1045" type="curve"/>
      <point x="843" y="952" type="line"/>
      <point x="763" y="997"/>
      <point x="666" y="1010"/>
      <point x="599" y="1010" type="curve" smooth="yes"/>
      <point x="369" y="1010"/>
      <point x="228" y="819"/>
      <point x="228" y="537" type="curve" smooth="yes"/>
      <point x="228" y="269"/>
      <point x="366" y="79"/>
      <point x="599" y="79" type="curve" smooth="yes"/>
      <point x="689" y="79"/>
      <point x="779" y="105"/>
      <point x="857" y="139" type="curve"/>
      <point x="876" y="50" type="line"/>
      <point x="811" y="2"/>
      <point x="701" y="-24"/>
    </contour>
    <contour>
      <point x="478" y="1096" type="move" name="top"/>
    </contour>
    <contour>
      <point x="478" y="0" type="move" name="bottom"/>
    </contour>
  </outline>
</glyph>
<glyph name="d" format="1">
  <advance width="1189"/>
  <unicode hex="0064"/>
  <outline>
    <contour>
      <point x="595" y="549" type="move" name="center"/>
    </contour>
    <contour>
      <point x="556" y="83" type="curve" smooth="yes"/>
      <point x="810" y="83"/>
      <point x="910" y="270"/>
      <point x="909" y="526" type="curve"/>
      <point x="909" y="819"/>
      <point x="819" y="1011"/>
      <point x="554" y="1011" type="curve" smooth="yes"/>
      <point x="317" y="1011"/>
      <point x="230" y="774"/>
      <point x="230" y="547" type="curve" smooth="yes"/>
      <point x="230" y="299"/>
      <point x="317" y="83"/>
    </contour>
    <contour>
      <point x="915" y="165" type="line"/>
      <point x="834" y="34"/>
      <point x="686" y="-23"/>
      <point x="561" y="-23" type="curve" smooth="yes"/>
      <point x="269" y="-23"/>
      <point x="97" y="192"/>
      <point x="97" y="549" type="curve" smooth="yes"/>
      <point x="97" y="883"/>
      <point x="279" y="1116"/>
      <point x="557" y="1116" type="curve" smooth="yes"/>
      <point x="672" y="1116"/>
      <point x="839" y="1071"/>
      <point x="916" y="935" type="curve"/>
      <point x="918" y="896"/>
      <point x="916" y="1002"/>
      <point x="916" y="968" type="curve" smooth="yes"/>
      <point x="916" y="1521" type="line"/>
      <point x="1036" y="1532" type="line"/>
      <point x="1036" y="0" type="line"/>
      <point x="933" y="0" type="line"/>
    </contour>
  </outline>
</glyph>
<glyph name="e" format="1">
  <advance width="1086"/>
  <unicode hex="0065"/>
  <outline>
    <contour>
      <point x="591" y="-24" type="curve" smooth="yes"/>
      <point x="289" y="-24"/>
      <point x="97" y="192"/>
      <point x="97" y="540" type="curve" smooth="yes"/>
      <point x="97" y="875"/>
      <point x="289" y="1110"/>
      <point x="565" y="1116" type="curve"/>
      <point x="821" y="1116"/>
      <point x="992" y="919"/>
      <point x="992" y="608" type="curve" smooth="yes"/>
      <point x="992" y="590"/>
      <point x="991" y="554"/>
      <point x="991" y="533" type="curve"/>
      <point x="228" y="533" type="line"/>
      <point x="231" y="250"/>
      <point x="376" y="88"/>
      <point x="594" y="88" type="curve" smooth="yes"/>
      <point x="732" y="88"/>
      <point x="848" y="131"/>
      <point x="945" y="179" type="curve"/>
      <point x="966" y="78" type="line"/>
      <point x="860" y="13"/>
      <point x="749" y="-24"/>
    </contour>
    <contour>
      <point x="561" y="1011" type="curve" smooth="yes"/>
      <point x="370" y="1011"/>
      <point x="254" y="853"/>
      <point x="233" y="633" type="curve"/>
      <point x="857" y="633" type="line"/>
      <point x="857" y="881"/>
      <point x="741" y="1011"/>
    </contour>
    <contour>
      <point x="543" y="1096" type="move" name="top"/>
    </contour>
    <contour>
      <point x="543" y="0" type="move" name="bottom"/>
    </contour>
    <contour>
      <point x="977" y="10" type="move" name="ogonek"/>
    </contour>
  </outline>
</glyph>
<glyph name="f" format="1">
  <advance width="638"/>
  <unicode hex="0066"/>
  <outline>
    <contour>
      <point x="552" y="1463" type="curve"/>
      <point x="384" y="1469"/>
      <point x="340" y="1380"/>
      <point x="340" y="1131" type="curve" smooth="yes"/>
      <point x="340" y="1096" type="line"/>
      <point x="607" y="1096" type="line"/>
      <point x="607" y="1005" type="line"/>
      <point x="340" y="1005" type="line"/>
      <point x="340" y="0" type="line"/>
      <point x="216" y="0" type="line"/>
      <point x="216" y="1005" type="line"/>
      <point x="36" y="1005" type="line"/>
      <point x="36" y="1101" type="line"/>
      <point x="216" y="1096" type="line"/>
      <point x="216" y="1137" type="line" smooth="yes"/>
      <point x="216" y="1439"/>
      <point x="326" y="1558"/>
      <point x="546" y="1549" type="curve" smooth="yes"/>
      <point x="582" y="1547"/>
      <point x="627" y="1541"/>
      <point x="676" y="1534" type="curve"/>
      <point x="670" y="1446" type="line"/>
      <point x="630" y="1453"/>
      <point x="589" y="1458"/>
    </contour>
  </outline>
</glyph>
<glyph name="g" format="1">
  <advance width="1150"/>
  <unicode hex="0067"/>
  <outline>
    <contour>
      <point x="293" y="-509" type="line"/>
      <point x="494" y="-509" type="line" smooth="yes"/>
      <point x="1005" y="-509"/>
      <point x="1011" y="-151"/>
      <point x="1011" y="80" type="curve" smooth="yes"/>
      <point x="1011" y="1096" type="line"/>
      <point x="880" y="1096" type="line"/>
      <point x="889" y="942" type="line"/>
      <point x="796" y="1065"/>
      <point x="692" y="1116"/>
      <point x="554" y="1116" type="curve" smooth="yes"/>
      <point x="185" y="1116"/>
      <point x="68" y="812"/>
      <point x="68" y="534" type="curve" smooth="yes"/>
      <point x="68" y="337"/>
      <point x="189" y="1"/>
      <point x="530" y="1" type="curve" smooth="yes"/>
      <point x="704" y="1"/>
      <point x="808" y="80"/>
      <point x="886" y="198" type="curve"/>
      <point x="884" y="224"/>
      <point x="883" y="106"/>
      <point x="883" y="133" type="curve" smooth="yes"/>
      <point x="883" y="-178"/>
      <point x="879" y="-398"/>
      <point x="515" y="-398" type="curve" smooth="yes"/>
      <point x="278" y="-398" type="line"/>
    </contour>
    <contour>
      <point x="548" y="117" type="curve" smooth="yes"/>
      <point x="298" y="117"/>
      <point x="198" y="372"/>
      <point x="198" y="549" type="curve" smooth="yes"/>
      <point x="198" y="722"/>
      <point x="287" y="1014"/>
      <point x="543" y="1014" type="curve"/>
      <point x="796" y="1015"/>
      <point x="889" y="812"/>
      <point x="889" y="613" type="curve" smooth="yes"/>
      <point x="889" y="615"/>
      <point x="889" y="497"/>
      <point x="889" y="499" type="curve" smooth="yes"/>
      <point x="890" y="309"/>
      <point x="799" y="117"/>
    </contour>
    <contour>
      <point x="576" y="1097" type="move" name="top"/>
    </contour>
  </outline>
</glyph>
<glyph name="h" format="1">
  <advance width="1055"/>
  <unicode hex="0068"/>
  <outline>
    <contour>
      <point x="528" y="1097" type="move" name="top"/>
    </contour>
    <contour>
      <point x="528" y="549" type="move" name="center"/>
    </contour>
    <contour>
      <point x="889" y="0" type="line"/>
      <point x="889" y="661" type="line" smooth="yes"/>
      <point x="889" y="899"/>
      <point x="829" y="1011"/>
      <point x="631" y="1011" type="curve" smooth="yes"/>
      <point x="436" y="1011"/>
      <point x="304" y="896"/>
      <point x="276" y="741" type="curve"/>
      <point x="274" y="701"/>
      <point x="274" y="660"/>
      <point x="274" y="622" type="curve" smooth="yes"/>
      <point x="274" y="0" type="line"/>
      <point x="150" y="0" type="line"/>
      <point x="150" y="1521" type="line"/>
      <point x="274" y="1532" type="line"/>
      <point x="274" y="1009" type="line" smooth="yes"/>
      <point x="274" y="949"/>
      <point x="273" y="993"/>
      <point x="271" y="930" type="curve"/>
      <point x="363" y="1054"/>
      <point x="494" y="1116"/>
      <point x="655" y="1116" type="curve" smooth="yes"/>
      <point x="907" y="1116"/>
      <point x="1012" y="956"/>
      <point x="1012" y="685" type="curve" smooth="yes"/>
      <point x="1012" y="0" type="line"/>
    </contour>
  </outline>
</glyph>
<glyph name="i" format="1">
  <advance width="445"/>
  <unicode hex="0069"/>
  <outline>
    <contour>
      <point x="294" y="1096" type="line"/>
      <point x="294" y="0" type="line"/>
      <point x="169" y="0" type="line"/>
      <point x="169" y="1096" type="line"/>
    </contour>
    <contour>
      <point x="293" y="1505" type="line"/>
      <point x="293" y="1324" type="line"/>
      <point x="169" y="1324" type="line"/>
      <point x="169" y="1505" type="line"/>
    </contour>
  </outline>
</glyph>
<glyph name="j" format="1">
  <advance width="408"/>
  <unicode hex="006A"/>
  <outline>
    <contour>
      <point x="286" y="1096" type="line"/>
      <point x="286" y="-249" type="line" smooth="yes"/>
      <point x="286" y="-490"/>
      <point x="228" y="-552"/>
      <point x="-9" y="-552" type="curve" smooth="yes"/>
      <point x="-58" y="-552" type="line"/>
      <point x="-77" y="-430" type="line"/>
      <point x="-28" y="-430" type="line" smooth="yes"/>
      <point x="162" y="-430"/>
      <point x="161" y="-356"/>
      <point x="161" y="-191" type="curve" smooth="yes"/>
      <point x="161" y="1096" type="line"/>
    </contour>
    <contour>
      <point x="286" y="1505" type="line"/>
      <point x="286" y="1324" type="line"/>
      <point x="161" y="1324" type="line"/>
      <point x="161" y="1505" type="line"/>
    </contour>
  </outline>
</glyph>
<glyph name="k" format="1">
  <advance width="986"/>
  <unicode hex="006B"/>
  <outline>
    <contour>
      <point x="149" y="0" type="line"/>
      <point x="149" y="1522" type="line"/>
      <point x="272" y="1532" type="line"/>
      <point x="272" y="663" type="line" smooth="yes"/>
      <point x="272" y="636"/>
      <point x="274" y="578"/>
      <point x="274" y="578" type="curve"/>
      <point x="290" y="598"/>
      <point x="292" y="598"/>
      <point x="310" y="619" type="curve"/>
      <point x="438" y="753"/>
      <point x="623" y="941"/>
      <point x="777" y="1096" type="curve"/>
      <point x="943" y="1096" type="line"/>
      <point x="485" y="637" type="line"/>
      <point x="976" y="0" type="line"/>
      <point x="819" y="0" type="line"/>
      <point x="400" y="567" type="line"/>
      <point x="272" y="450" type="line"/>
      <point x="272" y="0" type="line"/>
    </contour>
    <contour>
      <point x="493" y="0" type="move" name="bottom"/>
    </contour>
  </outline>
</glyph>
<glyph name="l" format="1">
  <advance width="528"/>
  <unicode hex="006C"/>
  <outline>
    <contour>
      <point x="265" y="1097" type="move" name="top"/>
    </contour>
    <contour>
      <point x="508" y="1097" type="move" name="topright"/>
    </contour>
    <contour>
      <point x="265" y="0" type="move" name="bottom"/>
    </contour>
    <contour>
      <point x="279" y="427" type="line"/>
      <point x="279" y="168"/>
      <point x="286" y="79"/>
      <point x="447" y="79" type="curve" smooth="yes"/>
      <point x="501" y="79"/>
      <point x="520" y="83"/>
      <point x="567" y="86" type="curve"/>
      <point x="576" y="-11" type="line"/>
      <point x="479" y="-28"/>
      <point x="414" y="-24"/>
      <point x="409" y="-24" type="curve" smooth="yes"/>
      <point x="238" y="-24"/>
      <point x="157" y="46"/>
      <point x="157" y="320" type="curve" smooth="yes"/>
      <point x="157" y="1522" type="line"/>
      <point x="279" y="1532" type="line"/>
    </contour>
  </outline>
</glyph>
<glyph name="m" format="1">
  <advance width="1805"/>
  <unicode hex="006D"/>
  <outline>
    <contour>
      <point x="1541" y="0" type="line"/>
      <point x="1541" y="536" type="line" smooth="yes"/>
      <point x="1541" y="797"/>
      <point x="1526" y="1010"/>
      <point x="1310" y="1010" type="curve" smooth="yes"/>
      <point x="1142" y="1010"/>
      <point x="1020" y="905"/>
      <point x="975" y="726" type="curve"/>
      <point x="976" y="674"/>
      <point x="977" y="623"/>
      <point x="980" y="568" type="curve"/>
      <point x="980" y="0" type="line"/>
      <point x="857" y="0" type="line"/>
      <point x="857" y="558" type="line" smooth="yes"/>
      <point x="857" y="817"/>
      <point x="823" y="1010"/>
      <point x="622" y="1010" type="curve" smooth="yes"/>
      <point x="438" y="1010"/>
      <point x="311" y="904"/>
      <point x="276" y="740" type="curve"/>
      <point x="274" y="699"/>
      <point x="274" y="661"/>
      <point x="274" y="623" type="curve" smooth="yes"/>
      <point x="274" y="0" type="line"/>
      <point x="150" y="0" type="line"/>
      <point x="150" y="0"/>
      <point x="147" y="994"/>
      <point x="147" y="1096" type="curve"/>
      <point x="255" y="1096" type="line"/>
      <point x="271" y="928" type="line"/>
      <point x="334" y="1035"/>
      <point x="471" y="1116"/>
      <point x="617" y="1116" type="curve" smooth="yes"/>
      <point x="839" y="1116"/>
      <point x="917" y="1001"/>
      <point x="947" y="909" type="curve"/>
      <point x="1029" y="1054"/>
      <point x="1158" y="1116"/>
      <point x="1316" y="1116" type="curve" smooth="yes"/>
      <point x="1560" y="1116"/>
      <point x="1665" y="973"/>
      <point x="1665" y="708" type="curve" smooth="yes"/>
      <point x="1665" y="0" type="line"/>
    </contour>
  </outline>
</glyph>
<glyph name="n" format="1">
  <advance width="1152"/>
  <unicode hex="006E"/>
  <outline>
    <contour>
      <point x="147" y="0" type="line"/>
      <point x="147" y="1096" type="line"/>
      <point x="255" y="1096" type="line"/>
      <point x="272" y="927" type="line"/>
      <point x="350" y="1044"/>
      <point x="492" y="1116"/>
      <point x="645" y="1116" type="curve" smooth="yes"/>
      <point x="895" y="1116"/>
      <point x="1012" y="987"/>
      <point x="1012" y="680" type="curve" smooth="yes"/>
      <point x="1012" y="0" type="line"/>
      <point x="889" y="0" type="line"/>
      <point x="889" y="0"/>
      <point x="889" y="666"/>
      <point x="888" y="736" type="curve"/>
      <point x="881" y="929"/>
      <point x="813" y="1010"/>
      <point x="638" y="1010" type="curve" smooth="yes"/>
      <point x="432" y="1010"/>
      <point x="307" y="893"/>
      <point x="277" y="741" type="curve"/>
      <point x="274" y="706"/>
      <point x="274" y="673"/>
      <point x="274" y="643" type="curve" smooth="yes"/>
      <point x="274" y="0" type="line"/>
    </contour>
    <contour>
      <point x="576" y="1096" type="move" name="top"/>
    </contour>
    <contour>
      <point x="576" y="0" type="move" name="bottom"/>
    </contour>
  </outline>
</glyph>
<glyph name="o" format="1">
  <advance width="1191"/>
  <unicode hex="006F"/>
  <outline>
    <contour>
      <point x="596" y="1097" type="move" name="top"/>
    </contour>
    <contour>
      <point x="230" y="542" type="curve" smooth="yes"/>
      <point x="230" y="283"/>
      <point x="350" y="75"/>
      <point x="601" y="75" type="curve" smooth="yes"/>
      <point x="849" y="75"/>
      <point x="961" y="282"/>
      <point x="961" y="545" type="curve" smooth="yes"/>
      <point x="961" y="811"/>
      <point x="855" y="1015"/>
      <point x="597" y="1015" type="curve" smooth="yes"/>
      <point x="349" y="1015"/>
      <point x="230" y="805"/>
    </contour>
    <contour>
      <point x="1093" y="547" type="curve" smooth="yes"/>
      <point x="1093" y="222"/>
      <point x="910" y="-24"/>
      <point x="592" y="-24" type="curve" smooth="yes"/>
      <point x="287" y="-24"/>
      <point x="97" y="222"/>
      <point x="97" y="545" type="curve" smooth="yes"/>
      <point x="97" y="870"/>
      <point x="285" y="1116"/>
      <point x="600" y="1116" type="curve" smooth="yes"/>
      <point x="916" y="1116"/>
      <point x="1093" y="869"/>
    </contour>
  </outline>
</glyph>
<glyph name="q" format="1">
  <advance width="1189"/>
  <unicode hex="0071"/>
  <outline>
    <contour>
      <point x="560" y="-24" type="curve" smooth="yes"/>
      <point x="264" y="-24"/>
      <point x="103" y="214"/>
      <point x="103" y="532" type="curve" smooth="yes"/>
      <point x="103" y="874"/>
      <point x="262" y="1116"/>
      <point x="568" y="1116" type="curve" smooth="yes"/>
      <point x="708" y="1116"/>
      <point x="825" y="1050"/>
      <point x="919" y="931" type="curve"/>
      <point x="927" y="1096" type="line"/>
      <point x="1038" y="1096" type="line"/>
      <point x="1038" y="-481" type="line"/>
      <point x="914" y="-488" type="line"/>
      <point x="914" y="13" type="line" smooth="yes"/>
      <point x="914" y="74"/>
      <point x="916" y="124"/>
      <point x="919" y="165" type="curve"/>
      <point x="836" y="33"/>
      <point x="681" y="-24"/>
    </contour>
    <contour>
      <point x="560" y="84" type="curve" smooth="yes"/>
      <point x="816" y="84"/>
      <point x="908" y="266"/>
      <point x="911" y="525" type="curve"/>
      <point x="911" y="813"/>
      <point x="823" y="1009"/>
      <point x="559" y="1009" type="curve" smooth="yes"/>
      <point x="315" y="1009"/>
      <point x="234" y="767"/>
      <point x="234" y="544" type="curve" smooth="yes"/>
      <point x="234" y="309"/>
      <point x="315" y="84"/>
    </contour>
  </outline>
</glyph>
<glyph name="r" format="1">
  <advance width="722"/>
  <unicode hex="0072"/>
  <outline>
    <contour>
      <point x="361" y="1097" type="move" name="top"/>
    </contour>
    <contour>
      <point x="361" y="0" type="move" name="bottom"/>
    </contour>
    <contour>
      <point x="604" y="1102" type="curve" smooth="yes"/>
      <point x="636" y="1102"/>
      <point x="665" y="1099"/>
      <point x="692" y="1095" type="curve"/>
      <point x="685" y="989" type="line"/>
      <point x="655" y="994"/>
      <point x="629" y="998"/>
      <point x="607" y="998" type="curve" smooth="yes"/>
      <point x="419" y="998"/>
      <point x="279" y="825"/>
      <point x="279" y="629" type="curve" smooth="yes"/>
      <point x="279" y="0" type="line"/>
      <point x="156" y="0" type="line"/>
      <point x="156" y="0"/>
      <point x="154" y="965"/>
      <point x="154" y="1096" type="curve"/>
      <point x="256" y="1096" type="line"/>
      <point x="264" y="880" type="line"/>
      <point x="339" y="1005"/>
      <point x="468" y="1102"/>
    </contour>
  </outline>
</glyph>
<glyph name="s" format="1">
  <advance width="944"/>
  <unicode hex="0073"/>
  <outline>
    <contour>
      <point x="467" y="-25" type="curve" smooth="yes"/>
      <point x="315" y="-25"/>
      <point x="185" y="20"/>
      <point x="121" y="63" type="curve"/>
      <point x="139" y="167" type="line"/>
      <point x="208" y="131"/>
      <point x="319" y="81"/>
      <point x="455" y="81" type="curve" smooth="yes"/>
      <point x="626" y="81"/>
      <point x="729" y="143"/>
      <point x="736" y="282" type="curve"/>
      <point x="736" y="390"/>
      <point x="688" y="441"/>
      <point x="463" y="516" type="curve"/>
      <point x="463" y="516"/>
      <point x="363" y="553"/>
      <point x="368" y="549" type="curve"/>
      <point x="170" y="609"/>
      <point x="110" y="710"/>
      <point x="109" y="824" type="curve"/>
      <point x="109" y="966"/>
      <point x="240" y="1116"/>
      <point x="485" y="1116" type="curve" smooth="yes"/>
      <point x="609" y="1116"/>
      <point x="716" y="1090"/>
      <point x="810" y="1048" type="curve"/>
      <point x="768" y="956" type="line"/>
      <point x="683" y="988"/>
      <point x="587" y="1014"/>
      <point x="482" y="1014" type="curve" smooth="yes"/>
      <point x="327" y="1014"/>
      <point x="233" y="939"/>
      <point x="233" y="822" type="curve" smooth="yes"/>
      <point x="233" y="726"/>
      <point x="275" y="689"/>
      <point x="449" y="631" type="curve" smooth="yes"/>
      <point x="477" y="621"/>
      <point x="508" y="611"/>
      <point x="543" y="600" type="curve" smooth="yes"/>
      <point x="778" y="527"/>
      <point x="852" y="441"/>
      <point x="852" y="277" type="curve"/>
      <point x="848" y="82"/>
      <point x="693" y="-25"/>
    </contour>
    <contour>
      <point x="472" y="1096" type="move" name="top"/>
    </contour>
    <contour>
      <point x="472" y="0" type="move" name="bottom"/>
    </contour>
  </outline>
</glyph>
<glyph name="t" format="1">
  <advance width="671"/>
  <unicode hex="0074"/>
  <outline>
    <contour>
      <point x="456" y="-23" type="curve" smooth="yes"/>
      <point x="274" y="-23"/>
      <point x="190" y="53"/>
      <point x="190" y="243" type="curve" smooth="yes"/>
      <point x="190" y="1005" type="line"/>
      <point x="35" y="1005" type="line"/>
      <point x="37" y="1079" type="line"/>
      <point x="192" y="1094" type="line"/>
      <point x="225" y="1345" type="line"/>
      <point x="312" y="1351" type="line"/>
      <point x="312" y="1096" type="line"/>
      <point x="632" y="1096" type="line"/>
      <point x="632" y="1005" type="line"/>
      <point x="312" y="1005" type="line"/>
      <point x="312" y="269" type="line" smooth="yes"/>
      <point x="312" y="108"/>
      <point x="362" y="74"/>
      <point x="484" y="74" type="curve" smooth="yes"/>
      <point x="534" y="74"/>
      <point x="594" y="86"/>
      <point x="638" y="97" type="curve"/>
      <point x="643" y="1" type="line"/>
      <point x="537" y="-20"/>
      <point x="495" y="-23"/>
    </contour>
    <contour>
      <point x="336" y="548" type="move" name="center"/>
    </contour>
    <contour>
      <point x="336" y="0" type="move" name="bottom"/>
    </contour>
  </outline>
</glyph>
<glyph name="u" format="1">
  <advance width="1087"/>
  <unicode hex="0075"/>
  <outline>
    <contour>
      <point x="543" y="1097" type="move" name="top"/>
    </contour>
    <contour>
      <point x="978" y="10" type="move" name="ogonek"/>
    </contour>
    <contour>
      <point x="113" y="350" type="curve" smooth="yes"/>
      <point x="113" y="1096" type="line"/>
      <point x="237" y="1096" type="line"/>
      <point x="237" y="347" type="line" smooth="yes"/>
      <point x="237" y="130"/>
      <point x="379" y="84"/>
      <point x="545" y="84" type="curve" smooth="yes"/>
      <point x="709" y="84"/>
      <point x="849" y="133"/>
      <point x="849" y="347" type="curve" smooth="yes"/>
      <point x="849" y="1096" type="line"/>
      <point x="973" y="1096" type="line"/>
      <point x="973" y="350" type="line" smooth="yes"/>
      <point x="973" y="60"/>
      <point x="761" y="-27"/>
      <point x="545" y="-27" type="curve" smooth="yes"/>
      <point x="329" y="-27"/>
      <point x="113" y="64"/>
    </contour>
  </outline>
</glyph>
<glyph name="v" format="1">
  <advance width="988"/>
  <unicode hex="0076"/>
  <outline>
    <contour>
      <point x="416" y="0" type="line"/>
      <point x="-2" y="1096" type="line"/>
      <point x="131" y="1096" type="line"/>
      <point x="385" y="405" type="line"/>
      <point x="431" y="258"/>
      <point x="494" y="111"/>
      <point x="494" y="111" type="curve"/>
      <point x="531" y="239"/>
      <point x="548" y="241"/>
      <point x="599" y="402" type="curve"/>
      <point x="669" y="624"/>
      <point x="701" y="630"/>
      <point x="852" y="1096" type="curve"/>
      <point x="985" y="1096" type="line"/>
      <point x="560" y="0" type="line"/>
    </contour>
  </outline>
</glyph>
<glyph name="w" format="1">
  <advance width="1557"/>
  <unicode hex="0077"/>
  <outline>
    <contour>
      <point x="1090" y="0" type="line"/>
      <point x="1086" y="-1"/>
      <point x="807" y="860"/>
      <point x="780" y="960" type="curve"/>
      <point x="754" y="840"/>
      <point x="473" y="-1"/>
      <point x="472" y="0" type="curve"/>
      <point x="328" y="0" type="line"/>
      <point x="22" y="1096" type="line"/>
      <point x="152" y="1096" type="line"/>
      <point x="400" y="137" type="line"/>
      <point x="414" y="172"/>
      <point x="678" y="995"/>
      <point x="710" y="1096" type="curve"/>
      <point x="862" y="1096" type="line"/>
      <point x="896" y="985"/>
      <point x="1155" y="204"/>
      <point x="1170" y="140" type="curve"/>
      <point x="1406" y="1096" type="line"/>
      <point x="1535" y="1096" type="line"/>
      <point x="1234" y="0" type="line"/>
    </contour>
    <contour>
      <point x="779" y="1096" type="move" name="top"/>
    </contour>
  </outline>
</glyph>
<glyph name="x" format="1">
  <advance width="1011"/>
  <unicode hex="0078"/>
  <outline>
    <contour>
      <point x="445" y="555" type="line"/>
      <point x="49" y="1096" type="line"/>
      <point x="191" y="1096" type="line"/>
      <point x="507" y="649" type="line"/>
      <point x="821" y="1096" type="line"/>
      <point x="966" y="1096" type="line"/>
      <point x="571" y="551" type="line"/>
      <point x="974" y="0" type="line"/>
      <point x="841" y="0" type="line"/>
      <point x="508" y="469" type="line"/>
      <point x="179" y="0" type="line"/>
      <point x="36" y="0" type="line"/>
    </contour>
  </outline>
</glyph>
<glyph name="y" format="1">
  <advance width="981"/>
  <unicode hex="0079"/>
  <outline>
    <contour>
      <point x="491" y="1097" type="move" name="top"/>
    </contour>
    <contour>
      <point x="7" y="1096" type="line"/>
      <point x="137" y="1096" type="line"/>
      <point x="510" y="110" type="line"/>
      <point x="484" y="-23"/>
      <point x="865" y="1225"/>
      <point x="836" y="1096" type="curve"/>
      <point x="966" y="1096" type="line"/>
      <point x="966" y="1096"/>
      <point x="528" y="-135"/>
      <point x="508" y="-192" type="curve" smooth="yes"/>
      <point x="422" y="-398"/>
      <point x="316" y="-520"/>
      <point x="98" y="-520" type="curve" smooth="yes"/>
      <point x="69" y="-520"/>
      <point x="40" y="-517"/>
      <point x="13" y="-512" type="curve"/>
      <point x="4" y="-410" type="line"/>
      <point x="28" y="-411"/>
      <point x="51" y="-413"/>
      <point x="73" y="-413" type="curve" smooth="yes"/>
      <point x="239" y="-413"/>
      <point x="301" y="-364"/>
      <point x="367" y="-195" type="curve" smooth="yes"/>
      <point x="389" y="-134"/>
      <point x="414" y="-69"/>
      <point x="438" y="0" type="curve"/>
    </contour>
  </outline>
</glyph>
<glyph name="z" format="1">
  <advance width="882"/>
  <unicode hex="007A"/>
  <outline>
    <contour>
      <point x="441" y="1097" type="move" name="top"/>
    </contour>
    <contour>
      <point x="816" y="0" type="line"/>
      <point x="89" y="0" type="line"/>
      <point x="89" y="104" type="line"/>
      <point x="668" y="997" type="line"/>
      <point x="99" y="997" type="line"/>
      <point x="99" y="1096" type="line"/>
      <point x="798" y="1096" type="line"/>
      <point x="798" y="979" type="line"/>
      <point x="217" y="93" type="line"/>
      <point x="816" y="93" type="line"/>
    </contour>
  </outline>
</glyph>
<glyph name="bar" format="1">
  <advance width="817"/>
  <unicode hex="007C"/>
  <outline>
    <contour>
      <point x="349" y="1606" type="line"/>
      <point x="468" y="1606" type="line"/>
      <point x="468" y="-413" type="line"/>
      <point x="349" y="-413" type="line"/>
    </contour>
  </outline>
</glyph>
<glyph name="exclamdown" format="1">
  <advance width="650"/>
  <unicode hex="00A1"/>
  <outline>
    <contour>
      <point x="235" y="13" type="line"/>
      <point x="235" y="103" type="line"/>
      <point x="285" y="1109" type="line"/>
      <point x="351" y="1109" type="line"/>
      <point x="412" y="103" type="line"/>
      <point x="412" y="13" type="line"/>
    </contour>
    <contour>
      <point x="449" y="1424" type="curve" smooth="yes"/>
      <point x="449" y="1369"/>
      <point x="413" y="1307"/>
      <point x="325" y="1307" type="curve" smooth="yes"/>
      <point x="235" y="1307"/>
      <point x="202" y="1369"/>
      <point x="202" y="1424" type="curve" smooth="yes"/>
      <point x="202" y="1479"/>
      <point x="235" y="1542"/>
      <point x="325" y="1542" type="curve" smooth="yes"/>
      <point x="413" y="1542"/>
      <point x="449" y="1479"/>
    </contour>
  </outline>
</glyph>
<glyph name="cent" format="1">
  <advance width="1111"/>
  <unicode hex="00A2"/>
  <outline>
    <contour>
      <point x="535" y="1558" type="line"/>
      <point x="628" y="1558" type="line"/>
      <point x="628" y="1402" type="line"/>
      <point x="735" y="1397"/>
      <point x="830" y="1360"/>
      <point x="879" y="1308" type="curve"/>
      <point x="838" y="1225" type="line"/>
      <point x="761" y="1280"/>
      <point x="692" y="1293"/>
      <point x="628" y="1298" type="curve"/>
      <point x="628" y="350" type="line"/>
      <point x="711" y="359"/>
      <point x="784" y="393"/>
      <point x="838" y="431" type="curve"/>
      <point x="876" y="348" type="line"/>
      <point x="820" y="288"/>
      <point x="718" y="254"/>
      <point x="628" y="247" type="curve"/>
      <point x="628" y="136" type="line"/>
      <point x="535" y="136" type="line"/>
      <point x="535" y="247" type="line"/>
      <point x="220" y="276"/>
      <point x="65" y="564"/>
      <point x="65" y="812" type="curve" smooth="yes"/>
      <point x="67" y="1062"/>
      <point x="225" y="1368"/>
      <point x="535" y="1401" type="curve"/>
    </contour>
    <contour>
      <point x="535" y="352" type="curve"/>
      <point x="535" y="1297" type="line"/>
      <point x="341" y="1268"/>
      <point x="201" y="1050"/>
      <point x="201" y="810" type="curve" smooth="yes"/>
      <point x="201" y="583"/>
      <point x="332" y="383"/>
    </contour>
  </outline>
</glyph>
<glyph name="sterling" format="1">
  <advance width="1124"/>
  <unicode hex="00A3"/>
  <outline>
    <contour>
      <point x="693" y="1514" type="curve" smooth="yes"/>
      <point x="839" y="1514"/>
      <point x="952" y="1461"/>
      <point x="1037" y="1390" type="curve"/>
      <point x="971" y="1303" type="line"/>
      <point x="883" y="1375"/>
      <point x="793" y="1409"/>
      <point x="690" y="1409" type="curve" smooth="yes"/>
      <point x="475" y="1409"/>
      <point x="414" y="1236"/>
      <point x="414" y="977" type="curve" smooth="yes"/>
      <point x="414" y="800" type="line"/>
      <point x="832" y="800" type="line"/>
      <point x="832" y="695" type="line"/>
      <point x="414" y="695" type="line"/>
      <point x="414" y="526" type="line" smooth="yes"/>
      <point x="414" y="342"/>
      <point x="403" y="202"/>
      <point x="287" y="113" type="curve"/>
      <point x="331" y="116"/>
      <point x="333" y="121"/>
      <point x="376" y="121" type="curve" smooth="yes"/>
      <point x="1051" y="121" type="line"/>
      <point x="1055" y="0" type="line"/>
      <point x="101" y="0" type="line"/>
      <point x="92" y="105" type="line"/>
      <point x="230" y="153"/>
      <point x="277" y="275"/>
      <point x="277" y="436" type="curve" smooth="yes"/>
      <point x="277" y="696" type="line"/>
      <point x="91" y="696" type="line"/>
      <point x="91" y="800" type="line"/>
      <point x="277" y="800" type="line"/>
      <point x="277" y="890" type="line" smooth="yes"/>
      <point x="277" y="1189"/>
      <point x="323" y="1514"/>
    </contour>
  </outline>
</glyph>
<glyph name="currency" format="1">
  <advance width="1146"/>
  <unicode hex="00A4"/>
  <outline>
    <contour>
      <point x="157" y="732" type="curve" smooth="yes"/>
      <point x="157" y="826"/>
      <point x="188" y="914"/>
      <point x="243" y="989" type="curve"/>
      <point x="57" y="1171" type="line"/>
      <point x="121" y="1230" type="line"/>
      <point x="306" y="1053" type="line"/>
      <point x="380" y="1117"/>
      <point x="473" y="1151"/>
      <point x="574" y="1151" type="curve" smooth="yes"/>
      <point x="676" y="1151"/>
      <point x="766" y="1116"/>
      <point x="840" y="1053" type="curve"/>
      <point x="1027" y="1230" type="line"/>
      <point x="1088" y="1168" type="line"/>
      <point x="904" y="989" type="line"/>
      <point x="959" y="910"/>
      <point x="990" y="822"/>
      <point x="990" y="732" type="curve" smooth="yes"/>
      <point x="990" y="634"/>
      <point x="960" y="546"/>
      <point x="905" y="474" type="curve"/>
      <point x="1087" y="295" type="line"/>
      <point x="1027" y="234" type="line"/>
      <point x="840" y="412" type="line"/>
      <point x="766" y="350"/>
      <point x="676" y="314"/>
      <point x="574" y="314" type="curve" smooth="yes"/>
      <point x="471" y="314"/>
      <point x="380" y="348"/>
      <point x="306" y="412" type="curve"/>
      <point x="121" y="235" type="line"/>
      <point x="58" y="294" type="line"/>
      <point x="243" y="474" type="line"/>
      <point x="188" y="548"/>
      <point x="157" y="637"/>
    </contour>
    <contour>
      <point x="252" y="732" type="curve" smooth="yes"/>
      <point x="252" y="549"/>
      <point x="396" y="402"/>
      <point x="574" y="402" type="curve" smooth="yes"/>
      <point x="752" y="402"/>
      <point x="896" y="551"/>
      <point x="896" y="732" type="curve" smooth="yes"/>
      <point x="896" y="913"/>
      <point x="751" y="1063"/>
      <point x="574" y="1063" type="curve" smooth="yes"/>
      <point x="395" y="1063"/>
      <point x="252" y="914"/>
    </contour>
  </outline>
</glyph>
<glyph name="brokenbar" format="1">
  <advance width="775"/>
  <unicode hex="00A6"/>
  <outline>
    <contour>
      <point x="329" y="1606" type="line"/>
      <point x="449" y="1606" type="line"/>
      <point x="449" y="907" type="line"/>
      <point x="329" y="907" type="line"/>
    </contour>
    <contour>
      <point x="329" y="290" type="line"/>
      <point x="449" y="290" type="line"/>
      <point x="449" y="-412" type="line"/>
      <point x="329" y="-412" type="line"/>
    </contour>
  </outline>
</glyph>
<glyph name="dieresis" format="1">
  <advance width="769"/>
  <unicode hex="00A8"/>
  <outline>
    <contour>
      <point x="272" y="1266" type="line"/>
      <point x="136" y="1266" type="line"/>
      <point x="136" y="1443" type="line"/>
      <point x="272" y="1443" type="line"/>
    </contour>
    <contour>
      <point x="649" y="1266" type="line"/>
      <point x="512" y="1266" type="line"/>
      <point x="512" y="1443" type="line"/>
      <point x="649" y="1443" type="line"/>
    </contour>
    <contour>
      <point x="392.5" y="1096" type="move" name="_top"/>
    </contour>
  </outline>
</glyph>
<glyph name="copyright" format="1">
  <advance width="1886"/>
  <unicode hex="00A9"/>
  <outline>
    <contour>
      <point x="1724" y="807" type="curve" smooth="yes"/>
      <point x="1724" y="208"/>
      <point x="1328" y="-28"/>
      <point x="917" y="-28" type="curve" smooth="yes"/>
      <point x="538" y="-28"/>
      <point x="129" y="208"/>
      <point x="129" y="807" type="curve" smooth="yes"/>
      <point x="129" y="1404"/>
      <point x="531" y="1640"/>
      <point x="910" y="1640" type="curve" smooth="yes"/>
      <point x="1322" y="1640"/>
      <point x="1724" y="1401"/>
    </contour>
    <contour>
      <point x="917" y="60" type="curve" smooth="yes"/>
      <point x="1397" y="60"/>
      <point x="1612" y="395"/>
      <point x="1612" y="803" type="curve" smooth="yes"/>
      <point x="1612" y="1209"/>
      <point x="1393" y="1552"/>
      <point x="910" y="1552" type="curve" smooth="yes"/>
      <point x="460" y="1552"/>
      <point x="241" y="1211"/>
      <point x="241" y="810" type="curve" smooth="yes"/>
      <point x="241" y="398"/>
      <point x="461" y="60"/>
    </contour>
    <contour>
      <point x="1224" y="465" type="curve"/>
      <point x="1261" y="363" type="line"/>
      <point x="1195" y="323"/>
      <point x="1058" y="280"/>
      <point x="933" y="280" type="curve" smooth="yes"/>
      <point x="653" y="280"/>
      <point x="452" y="508"/>
      <point x="452" y="813" type="curve" smooth="yes"/>
      <point x="452" y="1122"/>
      <point x="647" y="1343"/>
      <point x="948" y="1343" type="curve" smooth="yes"/>
      <point x="1068" y="1343"/>
      <point x="1175" y="1306"/>
      <point x="1257" y="1248" type="curve"/>
      <point x="1214" y="1158" type="line"/>
      <point x="1159" y="1201"/>
      <point x="1043" y="1236"/>
      <point x="943" y="1236" type="curve" smooth="yes"/>
      <point x="697" y="1236"/>
      <point x="584" y="1035"/>
      <point x="584" y="820" type="curve" smooth="yes"/>
      <point x="584" y="575"/>
      <point x="703" y="386"/>
      <point x="962" y="386" type="curve" smooth="yes"/>
      <point x="1060" y="386"/>
      <point x="1177" y="430"/>
    </contour>
  </outline>
</glyph>
<glyph name="ordfeminine" format="1">
  <advance width="830"/>
  <unicode hex="00AA"/>
  <outline>
    <contour>
      <point x="373" y="876" type="curve" smooth="yes"/>
      <point x="244" y="876"/>
      <point x="152" y="973"/>
      <point x="152" y="1108" type="curve" smooth="yes"/>
      <point x="152" y="1288"/>
      <point x="299" y="1330"/>
      <point x="560" y="1341" type="curve"/>
      <point x="560" y="1350"/>
      <point x="560" y="1341"/>
      <point x="560" y="1349" type="curve" smooth="yes"/>
      <point x="556" y="1476"/>
      <point x="531" y="1532"/>
      <point x="427" y="1532" type="curve" smooth="yes"/>
      <point x="351" y="1532"/>
      <point x="287" y="1534"/>
      <point x="228" y="1424" type="curve"/>
      <point x="158" y="1481" type="line"/>
      <point x="225" y="1611"/>
      <point x="315" y="1641"/>
      <point x="428" y="1641" type="curve" smooth="yes"/>
      <point x="550" y="1641"/>
      <point x="656" y="1561"/>
      <point x="656" y="1371" type="curve" smooth="yes"/>
      <point x="653" y="1048" type="line"/>
      <point x="653" y="1029"/>
      <point x="655" y="1039"/>
      <point x="661" y="902" type="curve"/>
      <point x="551" y="902" type="line"/>
      <point x="555" y="977" type="line"/>
      <point x="516" y="916"/>
      <point x="464" y="876"/>
    </contour>
    <contour>
      <point x="393" y="976" type="curve" smooth="yes"/>
      <point x="535" y="976"/>
      <point x="575" y="1131"/>
      <point x="560" y="1283" type="curve"/>
      <point x="560" y="1254" type="line"/>
      <point x="455" y="1247"/>
      <point x="254" y="1268"/>
      <point x="254" y="1101" type="curve" smooth="yes"/>
      <point x="254" y="1008"/>
      <point x="310" y="976"/>
    </contour>
    <contour>
      <point x="144" y="798" type="line"/>
      <point x="682" y="798" type="line"/>
      <point x="682" y="701" type="line"/>
      <point x="144" y="701" type="line"/>
    </contour>
  </outline>
</glyph>
<glyph name="guillemotleft" format="1">
  <advance width="962"/>
  <unicode hex="00AB"/>
  <outline>
    <contour>
      <point x="752" y="157" type="line"/>
      <point x="460" y="573" type="line"/>
      <point x="754" y="959" type="line"/>
      <point x="849" y="935" type="line"/>
      <point x="597" y="561" type="line"/>
      <point x="846" y="182" type="line"/>
    </contour>
    <contour>
      <point x="391" y="157" type="line"/>
      <point x="141" y="503" type="line"/>
      <point x="107" y="553" type="line"/>
      <point x="394" y="959" type="line"/>
      <point x="508" y="935" type="line"/>
      <point x="237" y="561" type="line"/>
      <point x="503" y="182" type="line"/>
    </contour>
  </outline>
</glyph>
<glyph name="logicalnot" format="1">
  <advance width="1197"/>
  <unicode hex="00AC"/>
  <outline>
    <contour>
      <point x="1076" y="819" type="line"/>
      <point x="1076" y="268" type="line"/>
      <point x="967" y="268" type="line"/>
      <point x="967" y="707" type="line"/>
      <point x="99" y="707" type="line"/>
      <point x="99" y="819" type="line"/>
    </contour>
  </outline>
</glyph>
<glyph name="registered" format="1">
  <advance width="1865"/>
  <unicode hex="00AE"/>
  <outline>
    <contour>
      <point x="940" y="735" type="curve"/>
      <point x="742" y="735" type="line"/>
      <point x="742" y="321" type="line"/>
      <point x="618" y="321" type="line"/>
      <point x="618" y="1311" type="line"/>
      <point x="856" y="1311" type="line" smooth="yes"/>
      <point x="1195" y="1311"/>
      <point x="1338" y="1204"/>
      <point x="1338" y="1035" type="curve" smooth="yes"/>
      <point x="1338" y="915"/>
      <point x="1273" y="772"/>
      <point x="1058" y="755" type="curve"/>
      <point x="1164" y="682"/>
      <point x="1188" y="596"/>
      <point x="1349" y="321" type="curve"/>
      <point x="1208" y="321" type="line"/>
      <point x="1083" y="541" type="line"/>
      <point x="1036" y="621"/>
      <point x="1003" y="681"/>
    </contour>
    <contour>
      <point x="871" y="863" type="line" smooth="yes"/>
      <point x="1071" y="863"/>
      <point x="1175" y="896"/>
      <point x="1175" y="1023" type="curve" smooth="yes"/>
      <point x="1175" y="1155"/>
      <point x="1089" y="1182"/>
      <point x="861" y="1182" type="curve" smooth="yes"/>
      <point x="743" y="1182" type="line"/>
      <point x="743" y="863" type="line"/>
    </contour>
    <contour>
      <point x="918" y="60" type="curve" smooth="yes"/>
      <point x="1398" y="60"/>
      <point x="1614" y="395"/>
      <point x="1614" y="803" type="curve" smooth="yes"/>
      <point x="1614" y="1209"/>
      <point x="1394" y="1552"/>
      <point x="911" y="1552" type="curve" smooth="yes"/>
      <point x="460" y="1552"/>
      <point x="241" y="1211"/>
      <point x="241" y="810" type="curve" smooth="yes"/>
      <point x="241" y="398"/>
      <point x="462" y="60"/>
    </contour>
    <contour>
      <point x="1726" y="807" type="curve" smooth="yes"/>
      <point x="1726" y="208"/>
      <point x="1329" y="-28"/>
      <point x="918" y="-28" type="curve" smooth="yes"/>
      <point x="538" y="-28"/>
      <point x="129" y="208"/>
      <point x="129" y="807" type="curve" smooth="yes"/>
      <point x="129" y="1404"/>
      <point x="531" y="1640"/>
      <point x="911" y="1640" type="curve" smooth="yes"/>
      <point x="1323" y="1640"/>
      <point x="1726" y="1401"/>
    </contour>
  </outline>
</glyph>
<glyph name="macron" format="1">
  <advance width="1131"/>
  <unicode hex="00AF"/>
  <outline>
    <contour>
      <point x="987" y="1688" type="line"/>
      <point x="987" y="1561" type="line"/>
      <point x="145" y="1561" type="line"/>
      <point x="145" y="1688" type="line"/>
    </contour>
    <contour>
      <point x="566" y="1096" type="move" name="_top"/>
    </contour>
  </outline>
</glyph>
<glyph name="degree" format="1">
  <advance width="844"/>
  <unicode hex="00B0"/>
  <outline>
    <contour>
      <point x="219" y="1232" type="curve" smooth="yes"/>
      <point x="219" y="1101"/>
      <point x="318" y="1005"/>
      <point x="423" y="1005" type="curve" smooth="yes"/>
      <point x="528" y="1005"/>
      <point x="627" y="1102"/>
      <point x="627" y="1232" type="curve" smooth="yes"/>
      <point x="627" y="1362"/>
      <point x="535" y="1460"/>
      <point x="423" y="1460" type="curve" smooth="yes"/>
      <point x="312" y="1460"/>
      <point x="219" y="1362"/>
    </contour>
    <contour>
      <point x="112" y="1230" type="curve" smooth="yes"/>
      <point x="112" y="1417"/>
      <point x="265" y="1562"/>
      <point x="421" y="1562" type="curve" smooth="yes"/>
      <point x="580" y="1562"/>
      <point x="732" y="1417"/>
      <point x="732" y="1230" type="curve" smooth="yes"/>
      <point x="732" y="1050"/>
      <point x="586" y="901"/>
      <point x="421" y="901" type="curve" smooth="yes"/>
      <point x="266" y="901"/>
      <point x="112" y="1041"/>
    </contour>
  </outline>
</glyph>
<glyph name="acute" format="1">
  <advance width="648"/>
  <unicode hex="00B4"/>
  <outline>
    <contour>
      <point x="474" y="1674" type="line"/>
      <point x="201" y="1287" type="line"/>
      <point x="126" y="1287" type="line"/>
      <point x="320" y="1674" type="line"/>
    </contour>
    <contour>
      <point x="294.5" y="1096" type="move" name="_top"/>
    </contour>
  </outline>
</glyph>
<glyph name="paragraph" format="1">
  <advance width="1007"/>
  <unicode hex="00B6"/>
  <outline>
    <contour>
      <point x="381" y="-163" type="line"/>
      <point x="381" y="890" type="line"/>
      <point x="153" y="886"/>
      <point x="-17" y="1087"/>
      <point x="-17" y="1257" type="curve" smooth="yes"/>
      <point x="-17" y="1382"/>
      <point x="60" y="1611"/>
      <point x="394" y="1611" type="curve" smooth="yes"/>
      <point x="882" y="1611" type="line"/>
      <point x="882" y="1506" type="line"/>
      <point x="810" y="1506" type="line"/>
      <point x="810" y="-163" type="line"/>
      <point x="718" y="-163" type="line"/>
      <point x="718" y="1506" type="line"/>
      <point x="475" y="1506" type="line"/>
      <point x="475" y="-163" type="line"/>
    </contour>
  </outline>
</glyph>
<glyph name="middot" format="1">
  <advance width="468"/>
  <unicode hex="00B7"/>
  <outline>
    <contour>
      <point x="318" y="759" type="line"/>
      <point x="318" y="561" type="line"/>
      <point x="150" y="561" type="line"/>
      <point x="150" y="759" type="line"/>
    </contour>
  </outline>
</glyph>
<glyph name="periodcentered" format="1">
  <advance width="489"/>
  <unicode hex="00B7"/>
  <outline>
    <contour>
      <point x="312" y="772" type="line"/>
      <point x="312" y="610" type="line"/>
      <point x="177" y="610" type="line"/>
      <point x="177" y="772" type="line"/>
    </contour>
  </outline>
</glyph>
<glyph name="cedilla" format="1">
  <advance width="599"/>
  <unicode hex="00B8"/>
  <outline>
    <contour>
      <point x="267" y="-410" type="line"/>
      <point x="138" y="-410" type="line"/>
      <point x="245" y="11" type="line"/>
      <point x="304" y="11" type="line"/>
    </contour>
    <contour>
      <point x="335" y="0" type="move" name="_bottom"/>
    </contour>
  </outline>
</glyph>
<glyph name="uni00B9" format="1">
  <advance width="536"/>
  <unicode hex="00B9"/>
  <outline>
    <contour>
      <point x="118" y="1404" type="curve"/>
      <point x="118" y="1476" type="line"/>
      <point x="199" y="1522"/>
      <point x="186" y="1516"/>
      <point x="239" y="1575" type="curve"/>
      <point x="315" y="1574" type="line"/>
      <point x="315" y="744" type="line"/>
      <point x="432" y="744" type="line"/>
      <point x="432" y="683" type="line"/>
      <point x="128" y="683" type="line"/>
      <point x="128" y="744" type="line"/>
      <point x="235" y="744" type="line"/>
      <point x="235" y="1479" type="line"/>
      <point x="184" y="1441"/>
      <point x="177" y="1439"/>
    </contour>
  </outline>
</glyph>
<glyph name="guillemotright" format="1">
  <advance width="941"/>
  <unicode hex="00BB"/>
  <outline>
    <contour>
      <point x="486" y="547" type="line"/>
      <point x="192" y="157" type="line"/>
      <point x="97" y="182" type="line"/>
      <point x="349" y="562" type="line"/>
      <point x="99" y="935" type="line"/>
      <point x="192" y="959" type="line"/>
    </contour>
    <contour>
      <point x="844" y="547" type="line"/>
      <point x="564" y="157" type="line"/>
      <point x="455" y="182" type="line"/>
      <point x="721" y="562" type="line"/>
      <point x="460" y="935" type="line"/>
      <point x="567" y="959" type="line"/>
    </contour>
  </outline>
</glyph>
<glyph name="onequarter" format="1">
  <advance width="1553"/>
  <unicode hex="00BC"/>
  <outline>
    <contour>
      <point x="139" y="1404" type="curve"/>
      <point x="139" y="1476" type="line"/>
      <point x="221" y="1522"/>
      <point x="207" y="1516"/>
      <point x="261" y="1575" type="curve"/>
      <point x="336" y="1574" type="line"/>
      <point x="336" y="744" type="line"/>
      <point x="453" y="744" type="line"/>
      <point x="453" y="683" type="line"/>
      <point x="149" y="683" type="line"/>
      <point x="149" y="744" type="line"/>
      <point x="256" y="744" type="line"/>
      <point x="256" y="1479" type="line"/>
      <point x="205" y="1441"/>
      <point x="198" y="1439"/>
    </contour>
    <contour>
      <point x="1363" y="60" type="line"/>
      <point x="1279" y="60" type="line"/>
      <point x="1279" y="278" type="line"/>
      <point x="895" y="278" type="line"/>
      <point x="895" y="349" type="line"/>
      <point x="1270" y="921" type="line"/>
      <point x="1365" y="921" type="line"/>
      <point x="1365" y="385" type="line"/>
      <point x="1449" y="385" type="line"/>
      <point x="1463" y="278" type="line"/>
      <point x="1362" y="278" type="line"/>
    </contour>
    <contour>
      <point x="1091" y="1597" type="line"/>
      <point x="1199" y="1597" type="line"/>
      <point x="321" y="0" type="line"/>
      <point x="218" y="0" type="line"/>
    </contour>
    <contour>
      <point x="1016" y="385" type="line"/>
      <point x="1278" y="385" type="line"/>
      <point x="1278" y="385"/>
      <point x="1278" y="721"/>
      <point x="1279" y="763" type="curve"/>
    </contour>
  </outline>
</glyph>
<glyph name="onehalf" format="1">
  <advance width="1493"/>
  <unicode hex="00BD"/>
  <outline>
    <contour>
      <point x="1089" y="1597" type="line"/>
      <point x="1195" y="1597" type="line"/>
      <point x="319" y="0" type="line"/>
      <point x="215" y="0" type="line"/>
    </contour>
    <contour>
      <point x="1292" y="658" type="curve" smooth="yes"/>
      <point x="1292" y="752"/>
      <point x="1229" y="811"/>
      <point x="1155" y="811" type="curve" smooth="yes"/>
      <point x="1085" y="811"/>
      <point x="1005" y="777"/>
      <point x="941" y="674" type="curve"/>
      <point x="949" y="653"/>
      <point x="859" y="705"/>
      <point x="859" y="705" type="curve"/>
      <point x="901" y="828"/>
      <point x="1036" y="890"/>
      <point x="1152" y="890" type="curve" smooth="yes"/>
      <point x="1280" y="890"/>
      <point x="1403" y="832"/>
      <point x="1403" y="674" type="curve" smooth="yes"/>
      <point x="1403" y="479"/>
      <point x="1193" y="269"/>
      <point x="964" y="45" type="curve"/>
      <point x="1385" y="45" type="line"/>
      <point x="1393" y="-30" type="line"/>
      <point x="842" y="-30" type="line"/>
      <point x="841" y="34" type="line"/>
      <point x="1109" y="332"/>
      <point x="1292" y="546"/>
    </contour>
    <contour>
      <point x="129" y="1404" type="curve"/>
      <point x="129" y="1476" type="line"/>
      <point x="211" y="1522"/>
      <point x="209" y="1543"/>
      <point x="263" y="1603" type="curve"/>
      <point x="327" y="1574" type="line"/>
      <point x="327" y="744" type="line"/>
      <point x="443" y="744" type="line"/>
      <point x="443" y="683" type="line"/>
      <point x="139" y="683" type="line"/>
      <point x="139" y="744" type="line"/>
      <point x="246" y="744" type="line"/>
      <point x="247" y="1479" type="line"/>
      <point x="196" y="1441"/>
      <point x="188" y="1439"/>
    </contour>
  </outline>
</glyph>
<glyph name="threequarters" format="1">
  <advance width="1606"/>
  <unicode hex="00BE"/>
  <outline>
    <contour>
      <point x="1066" y="385" type="line"/>
      <point x="1329" y="385" type="line"/>
      <point x="1329" y="755"/>
      <point x="1329" y="673"/>
      <point x="1333" y="758" type="curve"/>
    </contour>
    <contour>
      <point x="1226" y="1597" type="line"/>
      <point x="1346" y="1597" type="line"/>
      <point x="457" y="0" type="line"/>
      <point x="355" y="0" type="line"/>
    </contour>
    <contour>
      <point x="1416" y="66" type="line"/>
      <point x="1332" y="66" type="line"/>
      <point x="1332" y="281" type="line"/>
      <point x="945" y="281" type="line"/>
      <point x="945" y="350" type="line"/>
      <point x="1321" y="912" type="line"/>
      <point x="1417" y="912" type="line"/>
      <point x="1417" y="385" type="line"/>
      <point x="1504" y="385" type="line"/>
      <point x="1515" y="281" type="line"/>
      <point x="1416" y="281" type="line"/>
    </contour>
    <contour>
      <point x="177" y="1385" type="curve"/>
      <point x="133" y="1485" type="line"/>
      <point x="181" y="1555"/>
      <point x="254" y="1609"/>
      <point x="332" y="1608" type="curve" smooth="yes"/>
      <point x="447" y="1607"/>
      <point x="585" y="1500"/>
      <point x="585" y="1346" type="curve" smooth="yes"/>
      <point x="585" y="1220"/>
      <point x="544" y="1175"/>
      <point x="476" y="1132" type="curve"/>
      <point x="563" y="1085"/>
      <point x="605" y="1020"/>
      <point x="605" y="909" type="curve" smooth="yes"/>
      <point x="605" y="748"/>
      <point x="466" y="638"/>
      <point x="329" y="638" type="curve" smooth="yes"/>
      <point x="247" y="638"/>
      <point x="178" y="679"/>
      <point x="129" y="756" type="curve"/>
      <point x="182" y="847" type="line"/>
      <point x="235" y="782"/>
      <point x="273" y="748"/>
      <point x="325" y="748" type="curve" smooth="yes"/>
      <point x="407" y="748"/>
      <point x="485" y="817"/>
      <point x="485" y="912" type="curve" smooth="yes"/>
      <point x="485" y="1034"/>
      <point x="408" y="1073"/>
      <point x="290" y="1073" type="curve"/>
      <point x="253" y="1074" type="line"/>
      <point x="253" y="1197" type="line"/>
      <point x="281" y="1197" type="line" smooth="yes"/>
      <point x="377" y="1197"/>
      <point x="464" y="1224"/>
      <point x="464" y="1346" type="curve" smooth="yes"/>
      <point x="464" y="1449"/>
      <point x="406" y="1487"/>
      <point x="335" y="1487" type="curve" smooth="yes"/>
      <point x="275" y="1487"/>
      <point x="232" y="1449"/>
    </contour>
  </outline>
</glyph>
<glyph name="AE" format="1">
  <advance width="2125"/>
  <unicode hex="00C6"/>
  <outline>
    <contour>
      <point x="107" y="0" type="line"/>
      <point x="221" y="0" type="line"/>
      <point x="477" y="461" type="line"/>
      <point x="1190" y="461" type="line"/>
      <point x="1221" y="0" type="line"/>
      <point x="1991" y="0" type="line"/>
      <point x="1985" y="133" type="line"/>
      <point x="1333" y="133" type="line"/>
      <point x="1290" y="770" type="line"/>
      <point x="1938" y="770" type="line"/>
      <point x="1938" y="903" type="line"/>
      <point x="1270" y="903" type="line"/>
      <point x="1228" y="1491" type="line"/>
      <point x="1978" y="1491" type="line"/>
      <point x="1971" y="1626" type="line"/>
      <point x="1056" y="1626" type="line"/>
    </contour>
    <contour>
      <point x="557" y="600" type="line"/>
      <point x="1099" y="1525" type="line"/>
      <point x="1165" y="600" type="line"/>
    </contour>
    <contour>
      <point x="1062" y="1491" type="move" name="top"/>
    </contour>
  </outline>
</glyph>
<glyph name="Eth" format="1">
  <advance width="1521"/>
  <unicode hex="00D0"/>
  <outline>
    <contour>
      <point x="290" y="834" type="line"/>
      <point x="552" y="834" type="line"/>
      <point x="552" y="728" type="line"/>
      <point x="290" y="728" type="line"/>
      <point x="290" y="121" type="line"/>
      <point x="642" y="121" type="line" smooth="yes"/>
      <point x="1018" y="121"/>
      <point x="1247" y="319"/>
      <point x="1247" y="740" type="curve" smooth="yes"/>
      <point x="1247" y="1256"/>
      <point x="948" y="1398"/>
      <point x="539" y="1398" type="curve" smooth="yes"/>
      <point x="290" y="1398" type="line"/>
    </contour>
    <contour>
      <point x="40" y="728" type="line"/>
      <point x="40" y="834" type="line"/>
      <point x="155" y="834" type="line"/>
      <point x="155" y="1518" type="line"/>
      <point x="518" y="1518" type="line" smooth="yes"/>
      <point x="1022" y="1518"/>
      <point x="1399" y="1344"/>
      <point x="1399" y="744" type="curve" smooth="yes"/>
      <point x="1399" y="233"/>
      <point x="1087" y="0"/>
      <point x="623" y="0" type="curve" smooth="yes"/>
      <point x="155" y="0" type="line"/>
      <point x="155" y="728" type="line"/>
    </contour>
  </outline>
</glyph>
<glyph name="multiply" format="1">
  <advance width="809"/>
  <unicode hex="00D7"/>
  <outline>
    <contour>
      <point x="751" y="-14" type="line"/>
      <point x="707" y="-16" type="line"/>
      <point x="674" y="33"/>
      <point x="274" y="549"/>
      <point x="241" y="598" type="curve"/>
      <point x="-75" y="203" type="line"/>
      <point x="-114" y="206" type="line"/>
      <point x="376" y="837" type="line"/>
      <point x="42" y="1254" type="line"/>
      <point x="84" y="1252" type="line"/>
      <point x="552" y="638" type="line"/>
      <point x="871" y="1032" type="line"/>
      <point x="907" y="1033" type="line"/>
      <point x="419" y="398" type="line"/>
    </contour>
  </outline>
</glyph>
<glyph name="Oslash" format="1">
  <advance width="1670"/>
  <unicode hex="00D8"/>
  <outline>
    <contour>
      <point x="835" y="1491" type="move" name="top"/>
    </contour>
    <contour>
      <point x="834" y="1492" type="curve" smooth="yes"/>
      <point x="450" y="1492"/>
      <point x="259" y="1186"/>
      <point x="259" y="816" type="curve" smooth="yes"/>
      <point x="259" y="549"/>
      <point x="350" y="314"/>
      <point x="537" y="201" type="curve"/>
      <point x="1020" y="1465" type="line"/>
      <point x="964" y="1483"/>
      <point x="903" y="1492"/>
    </contour>
    <contour>
      <point x="1149" y="1793" type="line"/>
      <point x="1291" y="1744" type="line"/>
      <point x="1214" y="1546" type="line"/>
      <point x="1443" y="1411"/>
      <point x="1561" y="1151"/>
      <point x="1561" y="803" type="curve" smooth="yes"/>
      <point x="1561" y="338"/>
      <point x="1335" y="-27"/>
      <point x="835" y="-27" type="curve" smooth="yes"/>
      <point x="752" y="-27"/>
      <point x="678" y="-18"/>
      <point x="610" y="0" type="curve"/>
      <point x="544" y="-168" type="line"/>
      <point x="407" y="-125" type="line"/>
      <point x="478" y="53" type="line"/>
      <point x="227" y="185"/>
      <point x="108" y="470"/>
      <point x="108" y="803" type="curve" smooth="yes"/>
      <point x="108" y="1304"/>
      <point x="357" y="1640"/>
      <point x="833" y="1640" type="curve" smooth="yes"/>
      <point x="922" y="1640"/>
      <point x="1003" y="1628"/>
      <point x="1077" y="1607" type="curve"/>
    </contour>
    <contour>
      <point x="669" y="142" type="line"/>
      <point x="719" y="129"/>
      <point x="773" y="123"/>
      <point x="834" y="123" type="curve" smooth="yes"/>
      <point x="1222" y="123"/>
      <point x="1406" y="435"/>
      <point x="1406" y="816" type="curve" smooth="yes"/>
      <point x="1406" y="1063"/>
      <point x="1322" y="1281"/>
      <point x="1153" y="1400" type="curve"/>
    </contour>
  </outline>
</glyph>
<glyph name="Thorn" format="1">
  <advance width="1275"/>
  <unicode hex="00DE"/>
  <outline>
    <contour>
      <point x="133" y="-7" type="line"/>
      <point x="289" y="-7" type="line"/>
      <point x="289" y="356" type="line"/>
      <point x="289" y="356"/>
      <point x="706" y="345"/>
      <point x="717" y="345" type="curve" smooth="yes"/>
      <point x="1078" y="345"/>
      <point x="1179" y="545"/>
      <point x="1179" y="795" type="curve" smooth="yes"/>
      <point x="1179" y="1107"/>
      <point x="1001" y="1209"/>
      <point x="630" y="1209" type="curve" smooth="yes"/>
      <point x="289" y="1209" type="line"/>
      <point x="289" y="1524" type="line"/>
      <point x="133" y="1524" type="line"/>
    </contour>
    <contour>
      <point x="289" y="466" type="line"/>
      <point x="289" y="1078" type="line"/>
      <point x="646" y="1078" type="line" smooth="yes"/>
      <point x="946" y="1078"/>
      <point x="1036" y="980"/>
      <point x="1036" y="775" type="curve" smooth="yes"/>
      <point x="1036" y="606"/>
      <point x="965" y="466"/>
      <point x="695" y="466" type="curve" smooth="yes"/>
    </contour>
  </outline>
</glyph>
<glyph name="ae" format="1">
  <advance width="1672"/>
  <unicode hex="00E6"/>
  <outline>
    <contour>
      <point x="863" y="596" type="curve"/>
      <point x="1414" y="618" type="line"/>
      <point x="1411" y="924"/>
      <point x="1328" y="1010"/>
      <point x="1181" y="1010" type="curve" smooth="yes"/>
      <point x="942" y="1010"/>
      <point x="871" y="786"/>
    </contour>
    <contour>
      <point x="401" y="89" type="curve" smooth="yes"/>
      <point x="515" y="89"/>
      <point x="680" y="146"/>
      <point x="807" y="165" type="curve"/>
      <point x="746" y="287"/>
      <point x="725" y="379"/>
      <point x="717" y="515" type="curve"/>
      <point x="688" y="513"/>
      <point x="692" y="519"/>
      <point x="666" y="516" type="curve"/>
      <point x="289" y="491"/>
      <point x="222" y="408"/>
      <point x="222" y="282" type="curve" smooth="yes"/>
      <point x="222" y="127"/>
      <point x="304" y="89"/>
    </contour>
    <contour>
      <point x="401" y="-28" type="curve" smooth="yes"/>
      <point x="242" y="-28"/>
      <point x="84" y="15"/>
      <point x="84" y="289" type="curve" smooth="yes"/>
      <point x="84" y="567"/>
      <point x="380" y="602"/>
      <point x="671" y="607" type="curve"/>
      <point x="724" y="607" type="line"/>
      <point x="724" y="803" type="line" smooth="yes"/>
      <point x="724" y="938"/>
      <point x="670" y="997"/>
      <point x="532" y="994" type="curve"/>
      <point x="391" y="994"/>
      <point x="256" y="966"/>
      <point x="161" y="908" type="curve"/>
      <point x="131" y="1019" type="line"/>
      <point x="204" y="1066"/>
      <point x="383" y="1120"/>
      <point x="523" y="1117" type="curve"/>
      <point x="676" y="1116"/>
      <point x="806" y="1054"/>
      <point x="832" y="914" type="curve"/>
      <point x="906" y="1065"/>
      <point x="1046" y="1117"/>
      <point x="1184" y="1117" type="curve" smooth="yes"/>
      <point x="1449" y="1117"/>
      <point x="1544" y="918"/>
      <point x="1544" y="723" type="curve" smooth="yes"/>
      <point x="1544" y="603"/>
      <point x="1532" y="543"/>
      <point x="1344" y="532" type="curve"/>
      <point x="1359" y="534"/>
      <point x="894" y="513"/>
      <point x="855" y="514" type="curve"/>
      <point x="874" y="266"/>
      <point x="951" y="86"/>
      <point x="1176" y="87" type="curve" smooth="yes"/>
      <point x="1305" y="87"/>
      <point x="1437" y="160"/>
      <point x="1516" y="216" type="curve"/>
      <point x="1559" y="122" type="line"/>
      <point x="1481" y="47"/>
      <point x="1341" y="-27"/>
      <point x="1168" y="-27" type="curve" smooth="yes"/>
      <point x="1043" y="-27"/>
      <point x="945" y="13"/>
      <point x="865" y="95" type="curve"/>
      <point x="735" y="30"/>
      <point x="540" y="-28"/>
    </contour>
    <contour>
      <point x="1414" y="618" type="curve"/>
      <point x="1415" y="618" type="line" smooth="yes"/>
      <point x="1415" y="618"/>
      <point x="1414" y="624"/>
    </contour>
    <contour>
      <point x="836" y="1096" type="move" name="top"/>
    </contour>
  </outline>
</glyph>
<glyph name="eth" format="1">
  <advance width="1194"/>
  <unicode hex="00F0"/>
  <outline>
    <contour>
      <point x="592" y="872" type="curve" smooth="yes"/>
      <point x="372" y="872"/>
      <point x="244" y="687"/>
      <point x="244" y="490" type="curve" smooth="yes"/>
      <point x="244" y="288"/>
      <point x="356" y="72"/>
      <point x="598" y="72" type="curve" smooth="yes"/>
      <point x="826" y="72"/>
      <point x="950" y="255"/>
      <point x="950" y="472" type="curve" smooth="yes"/>
      <point x="950" y="656"/>
      <point x="826" y="872"/>
    </contour>
    <contour>
      <point x="566" y="1000" type="curve" smooth="yes"/>
      <point x="729" y="1000"/>
      <point x="813" y="929"/>
      <point x="889" y="866" type="curve"/>
      <point x="828" y="996"/>
      <point x="757" y="1097"/>
      <point x="543" y="1338" type="curve"/>
      <point x="261" y="1219" type="line"/>
      <point x="226" y="1326" type="line"/>
      <point x="463" y="1421" type="line"/>
      <point x="212" y="1643" type="line"/>
      <point x="401" y="1643" type="line"/>
      <point x="559" y="1471" type="line"/>
      <point x="856" y="1587" type="line"/>
      <point x="894" y="1484" type="line"/>
      <point x="638" y="1385" type="line"/>
      <point x="810" y="1190"/>
      <point x="926" y="1043"/>
      <point x="996" y="917" type="curve" smooth="yes"/>
      <point x="1068" y="770"/>
      <point x="1097" y="651"/>
      <point x="1096" y="515" type="curve"/>
      <point x="1096" y="226"/>
      <point x="936" y="-28"/>
      <point x="593" y="-28" type="curve" smooth="yes"/>
      <point x="257" y="-28"/>
      <point x="88" y="234"/>
      <point x="88" y="499" type="curve" smooth="yes"/>
      <point x="88" y="798"/>
      <point x="280" y="1000"/>
    </contour>
  </outline>
</glyph>
<glyph name="divide" format="1">
  <advance width="1099"/>
  <unicode hex="00F7"/>
  <outline>
    <contour>
      <point x="598" y="228" type="line"/>
      <point x="598" y="22" type="line"/>
      <point x="446" y="22" type="line"/>
      <point x="446" y="228" type="line"/>
    </contour>
    <contour>
      <point x="644" y="1187" type="line"/>
      <point x="644" y="982" type="line"/>
      <point x="446" y="982" type="line"/>
      <point x="446" y="1187" type="line"/>
    </contour>
    <contour>
      <point x="1017" y="545" type="line"/>
      <point x="60" y="545" type="line"/>
      <point x="60" y="670" type="line"/>
      <point x="1017" y="670" type="line"/>
    </contour>
  </outline>
</glyph>
<glyph name="oslash" format="1">
  <advance width="1206"/>
  <unicode hex="00F8"/>
  <outline>
    <contour>
      <point x="613" y="81" type="curve" smooth="yes"/>
      <point x="874" y="81"/>
      <point x="968" y="329"/>
      <point x="968" y="545" type="curve" smooth="yes"/>
      <point x="968" y="706"/>
      <point x="927" y="868"/>
      <point x="817" y="956" type="curve"/>
      <point x="469" y="108" type="line"/>
      <point x="510" y="90"/>
      <point x="559" y="81"/>
    </contour>
    <contour>
      <point x="395" y="151" type="curve"/>
      <point x="741" y="995" type="line"/>
      <point x="703" y="1008"/>
      <point x="659" y="1015"/>
      <point x="609" y="1015" type="curve" smooth="yes"/>
      <point x="348" y="1015"/>
      <point x="236" y="753"/>
      <point x="236" y="540" type="curve" smooth="yes"/>
      <point x="236" y="396"/>
      <point x="286" y="240"/>
    </contour>
    <contour>
      <point x="296" y="-308" type="line"/>
      <point x="221" y="-268" type="line"/>
      <point x="348" y="42" type="line"/>
      <point x="186" y="142"/>
      <point x="97" y="335"/>
      <point x="97" y="545" type="curve" smooth="yes"/>
      <point x="97" y="847"/>
      <point x="287" y="1127"/>
      <point x="612" y="1127" type="curve" smooth="yes"/>
      <point x="676" y="1127"/>
      <point x="735" y="1115"/>
      <point x="787" y="1096" type="curve"/>
      <point x="911" y="1425" type="line"/>
      <point x="991" y="1389" type="line"/>
      <point x="865" y="1059" type="line"/>
      <point x="1027" y="959"/>
      <point x="1108" y="760"/>
      <point x="1108" y="547" type="curve" smooth="yes"/>
      <point x="1108" y="257"/>
      <point x="930" y="-31"/>
      <point x="610" y="-31" type="curve" smooth="yes"/>
      <point x="541" y="-31"/>
      <point x="479" y="-19"/>
      <point x="423" y="4" type="curve"/>
    </contour>
    <contour>
      <point x="603" y="1096" type="move" name="top"/>
    </contour>
  </outline>
</glyph>
<glyph name="thorn" format="1">
  <advance width="1167"/>
  <unicode hex="00FE"/>
  <outline>
    <contour>
      <point x="249" y="191" type="curve"/>
      <point x="249" y="-477" type="line"/>
      <point x="108" y="-477" type="line"/>
      <point x="108" y="1219" type="line" smooth="yes"/>
      <point x="108" y="1175"/>
      <point x="110" y="1518"/>
      <point x="110" y="1518" type="curve"/>
      <point x="249" y="1518" type="line"/>
      <point x="249" y="930" type="line"/>
      <point x="365" y="1120"/>
      <point x="479" y="1158"/>
      <point x="612" y="1158" type="curve" smooth="yes"/>
      <point x="863" y="1155"/>
      <point x="1050" y="914"/>
      <point x="1050" y="586" type="curve" smooth="yes"/>
      <point x="1050" y="293"/>
      <point x="903" y="-29"/>
      <point x="605" y="-29" type="curve" smooth="yes"/>
      <point x="478" y="-29"/>
      <point x="350" y="0"/>
    </contour>
    <contour>
      <point x="592" y="71" type="curve" smooth="yes"/>
      <point x="839" y="71"/>
      <point x="904" y="370"/>
      <point x="904" y="564" type="curve" smooth="yes"/>
      <point x="904" y="760"/>
      <point x="842" y="1053"/>
      <point x="601" y="1053" type="curve" smooth="yes"/>
      <point x="371" y="1053"/>
      <point x="247" y="812"/>
      <point x="247" y="564" type="curve" smooth="yes"/>
      <point x="247" y="316"/>
      <point x="344" y="71"/>
    </contour>
  </outline>
</glyph>
<glyph name="dcroat" format="1">
  <advance width="1137"/>
  <unicode hex="0111"/>
  <outline>
    <contour>
      <point x="532" y="92" type="curve" smooth="yes"/>
      <point x="787" y="92"/>
      <point x="884" y="339"/>
      <point x="884" y="549" type="curve" smooth="yes"/>
      <point x="884" y="760"/>
      <point x="798" y="1001"/>
      <point x="529" y="1001" type="curve" smooth="yes"/>
      <point x="272" y="1001"/>
      <point x="211" y="706"/>
      <point x="211" y="556" type="curve" smooth="yes"/>
      <point x="211" y="371"/>
      <point x="272" y="92"/>
    </contour>
    <contour>
      <point x="535" y="-26" type="curve"/>
      <point x="244" y="-29"/>
      <point x="72" y="209"/>
      <point x="72" y="559" type="curve" smooth="yes"/>
      <point x="72" y="872"/>
      <point x="264" y="1119"/>
      <point x="528" y="1119" type="curve" smooth="yes"/>
      <point x="659" y="1119"/>
      <point x="821" y="1053"/>
      <point x="884" y="917" type="curve"/>
      <point x="884" y="1193" type="line"/>
      <point x="690" y="1193" type="line"/>
      <point x="690" y="1335" type="line"/>
      <point x="884" y="1335" type="line"/>
      <point x="884" y="1486" type="line"/>
      <point x="1013" y="1507" type="line"/>
      <point x="1013" y="1335" type="line"/>
      <point x="1134" y="1335" type="line"/>
      <point x="1134" y="1193" type="line"/>
      <point x="1013" y="1193" type="line"/>
      <point x="1013" y="0" type="line"/>
      <point x="908" y="0" type="line"/>
      <point x="881" y="183" type="line"/>
      <point x="815" y="63"/>
      <point x="684" y="-26"/>
    </contour>
  </outline>
</glyph>
<glyph name="gcommaaccent" format="1">
  <advance width="1150"/>
  <unicode hex="0123"/>
  <outline>
    <contour>
      <point x="801" y="1762" type="line"/>
      <point x="691" y="1275" type="line"/>
      <point x="508" y="1275" type="line"/>
      <point x="673" y="1762" type="line"/>
    </contour>
    <component base="g"/>
  </outline>
</glyph>
<glyph name="Hbar" format="1">
  <advance width="1450"/>
  <unicode hex="0126"/>
  <outline>
    <contour>
      <point x="1162" y="721" type="line"/>
      <point x="290" y="721" type="line"/>
      <point x="290" y="0" type="line"/>
      <point x="155" y="0" type="line"/>
      <point x="155" y="1125" type="line"/>
      <point x="62" y="1125" type="line"/>
      <point x="62" y="1212" type="line"/>
      <point x="155" y="1212" type="line"/>
      <point x="155" y="1521" type="line"/>
      <point x="290" y="1521" type="line"/>
      <point x="290" y="1212" type="line"/>
      <point x="1162" y="1212" type="line"/>
      <point x="1162" y="1521" type="line"/>
      <point x="1297" y="1521" type="line"/>
      <point x="1297" y="1212" type="line"/>
      <point x="1389" y="1212" type="line"/>
      <point x="1389" y="1125" type="line"/>
      <point x="1297" y="1125" type="line"/>
      <point x="1297" y="0" type="line"/>
      <point x="1162" y="0" type="line"/>
    </contour>
    <contour>
      <point x="290" y="1125" type="line"/>
      <point x="290" y="845" type="line"/>
      <point x="1162" y="845" type="line"/>
      <point x="1162" y="1125" type="line"/>
    </contour>
  </outline>
</glyph>
<glyph name="dotlessi" format="1">
  <advance width="376"/>
  <unicode hex="0131"/>
  <outline>
    <contour>
      <point x="268" y="1098" type="line"/>
      <point x="268" y="0" type="line"/>
      <point x="138" y="0" type="line"/>
      <point x="138" y="1098" type="line"/>
    </contour>
    <contour>
      <point x="188" y="1096" type="move" name="top"/>
    </contour>
    <contour>
      <point x="338" y="10" type="move" name="ogonek"/>
    </contour>
  </outline>
</glyph>
<glyph name="kgreenlandic" format="1">
  <advance width="1095"/>
  <unicode hex="0138"/>
  <outline>
    <contour>
      <point x="817" y="0" type="line"/>
      <point x="271" y="470" type="line"/>
      <point x="261" y="538" type="line"/>
      <point x="261" y="0" type="line"/>
      <point x="162" y="0" type="line"/>
      <point x="162" y="1108" type="line"/>
      <point x="261" y="1108" type="line"/>
      <point x="261" y="578" type="line"/>
      <point x="768" y="1108" type="line"/>
      <point x="924" y="1108" type="line"/>
      <point x="371" y="521" type="line"/>
      <point x="636" y="247"/>
      <point x="727" y="274"/>
      <point x="951" y="0" type="curve"/>
    </contour>
  </outline>
</glyph>
<glyph name="ldot" format="1">
  <advance width="528"/>
  <unicode hex="0140"/>
  <outline>
    <contour>
      <point x="840" y="772" type="line"/>
      <point x="840" y="610" type="line"/>
      <point x="706" y="610" type="line"/>
      <point x="706" y="772" type="line"/>
    </contour>
    <component base="l"/>
  </outline>
</glyph>
<glyph name="Eng" format="1">
  <advance width="1420"/>
  <unicode hex="014A"/>
  <outline>
    <contour>
      <point x="847" y="-340" type="curve"/>
      <point x="1197" y="-340"/>
      <point x="1251" y="-123"/>
      <point x="1251" y="178" type="curve" smooth="yes"/>
      <point x="1251" y="1043" type="line" smooth="yes"/>
      <point x="1251" y="1374"/>
      <point x="1110" y="1540"/>
      <point x="861" y="1540" type="curve" smooth="yes"/>
      <point x="684" y="1540"/>
      <point x="507" y="1527"/>
      <point x="291" y="1284" type="curve"/>
      <point x="277" y="1518" type="line"/>
      <point x="151" y="1518" type="line"/>
      <point x="153" y="0" type="line"/>
      <point x="287" y="0" type="line"/>
      <point x="287" y="1111" type="line"/>
      <point x="384" y="1245"/>
      <point x="544" y="1411"/>
      <point x="804" y="1411" type="curve" smooth="yes"/>
      <point x="1039" y="1411"/>
      <point x="1118" y="1327"/>
      <point x="1118" y="1042" type="curve" smooth="yes"/>
      <point x="1118" y="191" type="line" smooth="yes"/>
      <point x="1118" y="-137"/>
      <point x="1097" y="-218"/>
      <point x="780" y="-218" type="curve" smooth="yes"/>
      <point x="751" y="-218"/>
      <point x="752" y="-216"/>
      <point x="570" y="-204" type="curve"/>
      <point x="594" y="-319" type="line"/>
      <point x="758" y="-337"/>
      <point x="809" y="-340"/>
    </contour>
  </outline>
</glyph>
<glyph name="eng" format="1">
  <advance width="1086"/>
  <unicode hex="014B"/>
  <outline>
    <contour>
      <point x="617" y="-224" type="line"/>
      <point x="691" y="-224" type="line" smooth="yes"/>
      <point x="961" y="-224"/>
      <point x="973" y="-104"/>
      <point x="973" y="191" type="curve" smooth="yes"/>
      <point x="973" y="650" type="line" smooth="yes"/>
      <point x="973" y="978"/>
      <point x="870" y="1120"/>
      <point x="636" y="1117" type="curve" smooth="yes"/>
      <point x="488" y="1116"/>
      <point x="329" y="1050"/>
      <point x="245" y="924" type="curve"/>
      <point x="231" y="1098" type="line"/>
      <point x="119" y="1098" type="line"/>
      <point x="123" y="-3" type="line"/>
      <point x="251" y="-3" type="line"/>
      <point x="251" y="748" type="line"/>
      <point x="271" y="852"/>
      <point x="409" y="1005"/>
      <point x="619" y="1005" type="curve" smooth="yes"/>
      <point x="833" y="1005"/>
      <point x="844" y="854"/>
      <point x="844" y="504" type="curve" smooth="yes"/>
      <point x="844" y="143" type="line" smooth="yes"/>
      <point x="844" y="-93"/>
      <point x="825" y="-115"/>
      <point x="648" y="-115" type="curve" smooth="yes"/>
      <point x="611" y="-115" type="line"/>
    </contour>
  </outline>
</glyph>
<glyph name="OE" format="1">
  <advance width="1890"/>
  <unicode hex="0152"/>
  <outline>
    <contour>
      <point x="945" y="1491" type="move" name="top"/>
    </contour>
    <contour>
      <point x="796" y="1547" type="curve" smooth="yes"/>
      <point x="946" y="1547"/>
      <point x="1073" y="1498"/>
      <point x="1139" y="1432" type="curve"/>
      <point x="1139" y="1517" type="line"/>
      <point x="1770" y="1517" type="line"/>
      <point x="1754" y="1397" type="line"/>
      <point x="1279" y="1397" type="line"/>
      <point x="1279" y="833" type="line"/>
      <point x="1715" y="833" type="line"/>
      <point x="1715" y="712" type="line"/>
      <point x="1279" y="712" type="line"/>
      <point x="1279" y="121" type="line"/>
      <point x="1792" y="121" type="line"/>
      <point x="1778" y="-2" type="line"/>
      <point x="1139" y="-2" type="line"/>
      <point x="1139" y="80" type="line"/>
      <point x="1116" y="43"/>
      <point x="935" y="-25"/>
      <point x="827" y="-25" type="curve" smooth="yes"/>
      <point x="333" y="-25"/>
      <point x="110" y="299"/>
      <point x="110" y="793" type="curve" smooth="yes"/>
      <point x="124" y="1229"/>
      <point x="400" y="1547"/>
    </contour>
    <contour>
      <point x="1139" y="1329" type="line"/>
      <point x="1061" y="1385"/>
      <point x="946" y="1433"/>
      <point x="817" y="1433" type="curve" smooth="yes"/>
      <point x="484" y="1433"/>
      <point x="278" y="1188"/>
      <point x="267" y="798" type="curve" smooth="yes"/>
      <point x="267" y="399"/>
      <point x="405" y="96"/>
      <point x="829" y="90" type="curve" smooth="yes"/>
      <point x="944" y="90"/>
      <point x="1100" y="160"/>
      <point x="1139" y="167" type="curve"/>
    </contour>
  </outline>
</glyph>
<glyph name="oe" format="1">
  <advance width="1932"/>
  <unicode hex="0153"/>
  <outline>
    <contour>
      <point x="1092" y="626" type="curve"/>
      <point x="1710" y="626" type="line"/>
      <point x="1710" y="641" type="line" smooth="yes"/>
      <point x="1705" y="888"/>
      <point x="1589" y="1018"/>
      <point x="1422" y="1018" type="curve" smooth="yes"/>
      <point x="1232" y="1018"/>
      <point x="1113" y="837"/>
    </contour>
    <contour>
      <point x="588" y="84" type="curve" smooth="yes"/>
      <point x="855" y="84"/>
      <point x="942" y="334"/>
      <point x="942" y="544" type="curve" smooth="yes"/>
      <point x="942" y="763"/>
      <point x="865" y="1015"/>
      <point x="584" y="1015" type="curve" smooth="yes"/>
      <point x="319" y="1015"/>
      <point x="227" y="749"/>
      <point x="227" y="540" type="curve" smooth="yes"/>
      <point x="227" y="331"/>
      <point x="316" y="84"/>
    </contour>
    <contour>
      <point x="583" y="-27" type="curve" smooth="yes"/>
      <point x="263" y="-27"/>
      <point x="88" y="227"/>
      <point x="88" y="544" type="curve" smooth="yes"/>
      <point x="88" y="853"/>
      <point x="267" y="1127"/>
      <point x="587" y="1127" type="curve" smooth="yes"/>
      <point x="794" y="1127"/>
      <point x="933" y="1023"/>
      <point x="1011" y="864" type="curve"/>
      <point x="1097" y="1018"/>
      <point x="1260" y="1119"/>
      <point x="1429" y="1127" type="curve"/>
      <point x="1683" y="1127"/>
      <point x="1840" y="938"/>
      <point x="1840" y="599" type="curve" smooth="yes"/>
      <point x="1840" y="589"/>
      <point x="1838" y="560"/>
      <point x="1838" y="531" type="curve"/>
      <point x="1085" y="531" type="line"/>
      <point x="1083" y="265"/>
      <point x="1242" y="93"/>
      <point x="1436" y="93" type="curve" smooth="yes"/>
      <point x="1599" y="93"/>
      <point x="1704" y="154"/>
      <point x="1786" y="208" type="curve"/>
      <point x="1829" y="108" type="line"/>
      <point x="1741" y="28"/>
      <point x="1605" y="-27"/>
      <point x="1432" y="-27" type="curve" smooth="yes"/>
      <point x="1243" y="-27"/>
      <point x="1092" y="68"/>
      <point x="1005" y="234" type="curve"/>
      <point x="920" y="76"/>
      <point x="782" y="-27"/>
    </contour>
    <contour>
      <point x="966" y="1096" type="move" name="top"/>
    </contour>
  </outline>
</glyph>
<glyph name="uni018F" format="1">
  <advance width="1422"/>
  <unicode hex="018F"/>
  <outline>
    <contour>
      <point x="1154" y="655" type="curve"/>
      <point x="172" y="655" type="line"/>
      <point x="184" y="452"/>
      <point x="250" y="88"/>
      <point x="666" y="88" type="curve" smooth="yes"/>
      <point x="945" y="88"/>
      <point x="1123" y="344"/>
    </contour>
    <contour>
      <point x="665" y="-24" type="curve" smooth="yes"/>
      <point x="174" y="-24"/>
      <point x="37" y="414"/>
      <point x="24" y="600" type="curve" smooth="yes"/>
      <point x="24" y="657"/>
      <point x="34" y="782"/>
      <point x="34" y="770" type="curve"/>
      <point x="1161" y="770" type="line"/>
      <point x="1161" y="1083"/>
      <point x="1018" y="1438"/>
      <point x="591" y="1438" type="curve" smooth="yes"/>
      <point x="436" y="1438"/>
      <point x="324" y="1374"/>
      <point x="223" y="1304" type="curve"/>
      <point x="164" y="1407" type="line"/>
      <point x="292" y="1500"/>
      <point x="400" y="1548"/>
      <point x="606" y="1548" type="curve" smooth="yes"/>
      <point x="1074" y="1548"/>
      <point x="1311" y="1193"/>
      <point x="1311" y="769" type="curve" smooth="yes"/>
      <point x="1311" y="329"/>
      <point x="1052" y="-24"/>
    </contour>
  </outline>
</glyph>
<glyph name="florin" format="1">
  <advance width="943"/>
  <unicode hex="0192"/>
  <outline>
    <contour>
      <point x="400" y="917" type="curve"/>
      <point x="242" y="917" type="line"/>
      <point x="251" y="1046" type="line"/>
      <point x="422" y="1046" type="line"/>
      <point x="446" y="1231" type="line"/>
      <point x="472" y="1421"/>
      <point x="544" y="1600"/>
      <point x="752" y="1600" type="curve" smooth="yes"/>
      <point x="786" y="1600"/>
      <point x="807" y="1598"/>
      <point x="865" y="1580" type="curve"/>
      <point x="858" y="1453" type="line"/>
      <point x="810" y="1477"/>
      <point x="801" y="1471"/>
      <point x="776" y="1471" type="curve" smooth="yes"/>
      <point x="669" y="1471"/>
      <point x="634" y="1404"/>
      <point x="619" y="1287" type="curve"/>
      <point x="577" y="1046" type="line"/>
      <point x="759" y="1046" type="line"/>
      <point x="749" y="918" type="line"/>
      <point x="559" y="918" type="line"/>
      <point x="425" y="131" type="line"/>
      <point x="375" y="-154"/>
      <point x="308" y="-372"/>
      <point x="101" y="-372" type="curve" smooth="yes"/>
      <point x="79" y="-372"/>
      <point x="74" y="-372"/>
      <point x="26" y="-356" type="curve"/>
      <point x="34" y="-237" type="line"/>
      <point x="70" y="-253"/>
      <point x="72" y="-250"/>
      <point x="91" y="-250" type="curve" smooth="yes"/>
      <point x="177" y="-250"/>
      <point x="218" y="-140"/>
      <point x="242" y="-11" type="curve"/>
      <point x="306" y="287"/>
      <point x="346" y="614"/>
    </contour>
  </outline>
</glyph>
<glyph name="uni0259" format="1">
  <advance width="1080"/>
  <unicode hex="0259"/>
  <outline>
    <contour>
      <point x="521" y="73" type="curve" smooth="yes"/>
      <point x="712" y="73"/>
      <point x="825" y="248"/>
      <point x="845" y="460" type="curve"/>
      <point x="220" y="460" type="line"/>
      <point x="220" y="200"/>
      <point x="350" y="73"/>
    </contour>
    <contour>
      <point x="508" y="1117" type="curve" smooth="yes"/>
      <point x="800" y="1117"/>
      <point x="987" y="895"/>
      <point x="987" y="542" type="curve" smooth="yes"/>
      <point x="987" y="212"/>
      <point x="392" y="-27"/>
      <point x="507" y="-27" type="curve"/>
      <point x="253" y="-27"/>
      <point x="91" y="151"/>
      <point x="91" y="491" type="curve" smooth="yes"/>
      <point x="91" y="501"/>
      <point x="93" y="543"/>
      <point x="93" y="558" type="curve"/>
      <point x="852" y="558" type="line"/>
      <point x="854" y="825"/>
      <point x="699" y="1003"/>
      <point x="505" y="1003" type="curve" smooth="yes"/>
      <point x="342" y="1003"/>
      <point x="227" y="942"/>
      <point x="144" y="888" type="curve"/>
      <point x="102" y="982" type="line"/>
      <point x="190" y="1062"/>
      <point x="335" y="1117"/>
    </contour>
  </outline>
</glyph>
<glyph name="afii57929" format="1">
  <advance width="558"/>
  <unicode hex="02BC"/>
  <outline>
    <contour>
      <point x="144" y="1184" type="line"/>
      <point x="282" y="1634" type="line"/>
      <point x="418" y="1634" type="line"/>
      <point x="248" y="1184" type="line"/>
    </contour>
  </outline>
</glyph>
<glyph name="circumflex" format="1">
  <advance width="812"/>
  <unicode hex="02C6"/>
  <outline>
    <contour>
      <point x="136" y="1310" type="line"/>
      <point x="294" y="1701" type="line"/>
      <point x="509" y="1701" type="line"/>
      <point x="667" y="1310" type="line"/>
      <point x="556" y="1310" type="line"/>
      <point x="401" y="1617" type="line"/>
      <point x="245" y="1310" type="line"/>
    </contour>
    <contour>
      <point x="401.5" y="1096" type="move" name="_top"/>
    </contour>
  </outline>
</glyph>
<glyph name="caron" format="1">
  <advance width="813"/>
  <unicode hex="02C7"/>
  <outline>
    <contour>
      <point x="139" y="1701" type="line"/>
      <point x="239" y="1701" type="line"/>
      <point x="401" y="1312" type="line"/>
      <point x="560" y="1701" type="line"/>
      <point x="662" y="1701" type="line"/>
      <point x="510" y="1289" type="line"/>
      <point x="292" y="1289" type="line"/>
    </contour>
    <contour>
      <point x="400.5" y="1096" type="move" name="_top"/>
    </contour>
  </outline>
</glyph>
<glyph name="breve" format="1">
  <advance width="774"/>
  <unicode hex="02D8"/>
  <outline>
    <contour>
      <point x="391" y="1097" type="move" name="_top"/>
    </contour>
    <contour>
      <point x="389" y="1345" type="curve" smooth="yes"/>
      <point x="286" y="1345"/>
      <point x="159" y="1435"/>
      <point x="159" y="1608" type="curve"/>
      <point x="251" y="1608" type="line"/>
      <point x="251" y="1493"/>
      <point x="322" y="1437"/>
      <point x="389" y="1437" type="curve" smooth="yes"/>
      <point x="455" y="1437"/>
      <point x="530" y="1493"/>
      <point x="530" y="1608" type="curve"/>
      <point x="624" y="1608" type="line"/>
      <point x="624" y="1436"/>
      <point x="492" y="1345"/>
    </contour>
  </outline>
</glyph>
<glyph name="dotaccent" format="1">
  <advance width="352"/>
  <unicode hex="02D9"/>
  <outline>
    <contour>
      <point x="259" y="1516" type="line"/>
      <point x="259" y="1331" type="line"/>
      <point x="106" y="1331" type="line"/>
      <point x="106" y="1516" type="line"/>
    </contour>
    <contour>
      <point x="185" y="1097" type="move" name="_top"/>
    </contour>
  </outline>
</glyph>
<glyph name="ring" format="1">
  <advance width="621"/>
  <unicode hex="02DA"/>
  <outline>
    <contour>
      <point x="316" y="1392" type="curve" smooth="yes"/>
      <point x="359" y="1392"/>
      <point x="407" y="1432"/>
      <point x="407" y="1495" type="curve" smooth="yes"/>
      <point x="407" y="1567"/>
      <point x="381" y="1608"/>
      <point x="316" y="1608" type="curve" smooth="yes"/>
      <point x="260" y="1608"/>
      <point x="220" y="1578"/>
      <point x="220" y="1495" type="curve" smooth="yes"/>
      <point x="220" y="1423"/>
      <point x="259" y="1392"/>
    </contour>
    <contour>
      <point x="316" y="1672" type="curve" smooth="yes"/>
      <point x="402" y="1672"/>
      <point x="498" y="1611"/>
      <point x="498" y="1495" type="curve" smooth="yes"/>
      <point x="498" y="1375"/>
      <point x="399" y="1332"/>
      <point x="318" y="1332" type="curve" smooth="yes"/>
      <point x="230" y="1332"/>
      <point x="132" y="1375"/>
      <point x="132" y="1495" type="curve" smooth="yes"/>
      <point x="132" y="1622"/>
      <point x="232" y="1672"/>
    </contour>
    <contour>
      <point x="315" y="1097" type="move" name="_top"/>
    </contour>
  </outline>
</glyph>
<glyph name="ogonek" format="1">
  <advance width="596"/>
  <unicode hex="02DB"/>
  <outline>
    <contour>
      <point x="313" y="-337" type="curve" smooth="yes"/>
      <point x="363" y="-337"/>
      <point x="379" y="-338"/>
      <point x="447" y="-307" type="curve"/>
      <point x="447" y="-408" type="line"/>
      <point x="419" y="-419"/>
      <point x="356" y="-437"/>
      <point x="307" y="-437" type="curve" smooth="yes"/>
      <point x="201" y="-437"/>
      <point x="120" y="-370"/>
      <point x="120" y="-258" type="curve" smooth="yes"/>
      <point x="120" y="-163"/>
      <point x="208" y="-77"/>
      <point x="311" y="-14" type="curve"/>
      <point x="428" y="-14" type="line"/>
      <point x="315" y="-100"/>
      <point x="222" y="-175"/>
      <point x="222" y="-246" type="curve" smooth="yes"/>
      <point x="222" y="-307"/>
      <point x="277" y="-337"/>
    </contour>
    <contour>
      <point x="447" y="10" type="move" name="_ogonek"/>
    </contour>
  </outline>
</glyph>
<glyph name="tilde" format="1">
  <advance width="930"/>
  <unicode hex="02DC"/>
  <outline>
    <contour>
      <point x="237" y="1332" type="curve"/>
      <point x="147" y="1332" type="line"/>
      <point x="147" y="1513"/>
      <point x="234" y="1537"/>
      <point x="319" y="1537" type="curve" smooth="yes"/>
      <point x="436" y="1537"/>
      <point x="615" y="1440"/>
      <point x="603" y="1437" type="curve"/>
      <point x="645" y="1442"/>
      <point x="645" y="1502"/>
      <point x="649" y="1537" type="curve"/>
      <point x="740" y="1537" type="line"/>
      <point x="740" y="1373"/>
      <point x="683" y="1332"/>
      <point x="599" y="1332" type="curve" smooth="yes"/>
      <point x="518" y="1332"/>
      <point x="283" y="1433"/>
      <point x="294" y="1433" type="curve"/>
      <point x="261" y="1432"/>
      <point x="241" y="1383"/>
    </contour>
    <contour>
      <point x="443.5" y="1096" type="move" name="_top"/>
    </contour>
  </outline>
</glyph>
<glyph name="hungarumlaut" format="1">
  <advance width="741"/>
  <unicode hex="02DD"/>
  <outline>
    <contour>
      <point x="612" y="1646" type="line"/>
      <point x="403" y="1328" type="line"/>
      <point x="315" y="1328" type="line"/>
      <point x="497" y="1646" type="line"/>
    </contour>
    <contour>
      <point x="414" y="1646" type="line"/>
      <point x="201" y="1328" type="line"/>
      <point x="118" y="1328" type="line"/>
      <point x="294" y="1646" type="line"/>
    </contour>
    <contour>
      <point x="365" y="1096" type="move" name="_top"/>
    </contour>
  </outline>
</glyph>
<glyph name="uni0307" format="1">
  <advance width="364"/>
  <unicode hex="0307"/>
  <outline>
    <contour>
      <point x="282" y="1534" type="line"/>
      <point x="282" y="1350" type="line"/>
      <point x="105" y="1350" type="line"/>
      <point x="105" y="1534" type="line"/>
    </contour>
    <contour>
      <point x="193.5" y="1096" type="move" name="_top"/>
    </contour>
  </outline>
</glyph>
<glyph name="uni0311" format="1">
  <advance width="792"/>
  <unicode hex="0311"/>
  <outline>
    <contour>
      <point x="397" y="1608" type="curve" smooth="yes"/>
      <point x="507" y="1608"/>
      <point x="632" y="1603"/>
      <point x="632" y="1345" type="curve"/>
      <point x="538" y="1345" type="line"/>
      <point x="538" y="1489"/>
      <point x="467" y="1516"/>
      <point x="397" y="1516" type="curve" smooth="yes"/>
      <point x="326" y="1516"/>
      <point x="259" y="1489"/>
      <point x="259" y="1345" type="curve"/>
      <point x="167" y="1345" type="line"/>
      <point x="167" y="1603"/>
      <point x="287" y="1608"/>
    </contour>
  </outline>
</glyph>
<glyph name="uni0326" format="1">
  <advance width="552"/>
  <unicode hex="0326"/>
  <outline>
    <contour>
      <point x="283" y="0" type="move" name="_bottom"/>
    </contour>
    <contour>
      <point x="170" y="-671" type="line"/>
      <point x="257" y="-185" type="line"/>
      <point x="396" y="-185" type="line"/>
      <point x="264" y="-671" type="line"/>
    </contour>
  </outline>
</glyph>
<glyph name="Alpha" format="1">
  <advance width="1276"/>
  <unicode hex="0391"/>
  <outline>
    <component base="A"/>
    <contour>
      <point x="638" y="1488" type="move" name="top"/>
    </contour>
  </outline>
</glyph>
<glyph name="Delta" format="1">
  <advance width="1265"/>
  <unicode hex="0394"/>
  <outline>
    <contour>
      <point x="1092" y="111" type="line"/>
      <point x="631" y="1339" type="line"/>
      <point x="171" y="111" type="line"/>
    </contour>
    <contour>
      <point x="-10" y="0" type="line"/>
      <point x="569" y="1488" type="line"/>
      <point x="688" y="1488" type="line"/>
      <point x="1275" y="0" type="line"/>
    </contour>
  </outline>
</glyph>
<glyph name="Epsilon" format="1">
  <advance width="1142"/>
  <unicode hex="0395"/>
  <outline>
    <component base="E"/>
    <contour>
      <point x="571" y="1488" type="move" name="top"/>
    </contour>
  </outline>
</glyph>
<glyph name="omicron" format="1">
  <advance width="1191"/>
  <unicode hex="03BF"/>
  <outline>
    <contour>
      <point x="588" y="1097" type="move" name="top"/>
    </contour>
    <component base="o"/>
  </outline>
</glyph>
<glyph name="pi" format="1">
  <advance width="1472"/>
  <unicode hex="03C0"/>
  <outline>
    <contour>
      <point x="1285" y="1128" type="line"/>
      <point x="1285" y="1009" type="line"/>
      <point x="1109" y="1009" type="line"/>
      <point x="1109" y="306" type="line" smooth="yes"/>
      <point x="1109" y="253"/>
      <point x="1108" y="135"/>
      <point x="1205" y="135" type="curve" smooth="yes"/>
      <point x="1217" y="135"/>
      <point x="1240" y="136"/>
      <point x="1268" y="143" type="curve"/>
      <point x="1269" y="174"/>
      <point x="1274" y="6"/>
      <point x="1274" y="6" type="curve"/>
      <point x="1229" y="-2"/>
      <point x="1193" y="-8"/>
      <point x="1163" y="-8" type="curve" smooth="yes"/>
      <point x="1047" y="-8"/>
      <point x="1002" y="49"/>
      <point x="1002" y="294" type="curve" smooth="yes"/>
      <point x="1001" y="1007" type="line"/>
      <point x="572" y="1007" type="line"/>
      <point x="555" y="550"/>
      <point x="524" y="103"/>
      <point x="463" y="0" type="curve"/>
      <point x="345" y="0" type="line"/>
      <point x="425" y="171"/>
      <point x="444" y="535"/>
      <point x="454" y="1004" type="curve"/>
      <point x="352" y="1003"/>
      <point x="278" y="989"/>
      <point x="218" y="946" type="curve"/>
      <point x="207" y="1066" type="line"/>
      <point x="252" y="1115"/>
      <point x="341" y="1128"/>
      <point x="490" y="1128" type="curve" smooth="yes"/>
    </contour>
  </outline>
</glyph>
<glyph name="afii10053" format="1">
  <advance width="1293"/>
  <unicode hex="0404"/>
  <outline>
    <contour>
      <point x="220" y="675" type="line"/>
      <point x="246" y="377"/>
      <point x="411" y="90"/>
      <point x="762" y="90" type="curve" smooth="yes"/>
      <point x="927" y="90"/>
      <point x="1070" y="149"/>
      <point x="1141" y="208" type="curve"/>
      <point x="1197" y="112" type="line"/>
      <point x="1114" y="30"/>
      <point x="972" y="-25"/>
      <point x="758" y="-25" type="curve" smooth="yes"/>
      <point x="271" y="-25"/>
      <point x="59" y="333"/>
      <point x="59" y="769" type="curve" smooth="yes"/>
      <point x="59" y="1173"/>
      <point x="263" y="1548"/>
      <point x="764" y="1548" type="curve" smooth="yes"/>
      <point x="973" y="1548"/>
      <point x="1109" y="1508"/>
      <point x="1189" y="1423" type="curve"/>
      <point x="1142" y="1314" type="line"/>
      <point x="1073" y="1371"/>
      <point x="938" y="1433"/>
      <point x="778" y="1433" type="curve" smooth="yes"/>
      <point x="358" y="1433"/>
      <point x="221" y="1116"/>
      <point x="215" y="798" type="curve"/>
      <point x="916" y="798" type="line"/>
      <point x="916" y="675" type="line"/>
    </contour>
  </outline>
</glyph>
<glyph name="afii10020" format="1">
  <advance width="804"/>
  <unicode hex="0413"/>
  <outline>
    <contour>
      <point x="402" y="1491" type="move" name="top"/>
    </contour>
    <contour>
      <point x="982" y="1398" type="line"/>
      <point x="289" y="1398" type="line"/>
      <point x="289" y="0" type="line"/>
      <point x="153" y="0" type="line"/>
      <point x="153" y="1521" type="line"/>
      <point x="994" y="1521" type="line"/>
    </contour>
  </outline>
</glyph>
<glyph name="afii10025" format="1">
  <advance width="1101"/>
  <unicode hex="0417"/>
  <outline>
    <contour>
      <point x="491" y="698" type="curve" smooth="yes"/>
      <point x="406" y="698" type="line"/>
      <point x="406" y="827" type="line"/>
      <point x="503" y="827" type="line" smooth="yes"/>
      <point x="736" y="827"/>
      <point x="815" y="1185"/>
      <point x="822" y="1153" type="curve"/>
      <point x="807" y="1352"/>
      <point x="671" y="1436"/>
      <point x="525" y="1436" type="curve" smooth="yes"/>
      <point x="411" y="1436"/>
      <point x="246" y="1383"/>
      <point x="152" y="1334" type="curve"/>
      <point x="99" y="1437" type="line"/>
      <point x="208" y="1512"/>
      <point x="363" y="1546"/>
      <point x="537" y="1546" type="curve" smooth="yes"/>
      <point x="864" y="1546"/>
      <point x="964" y="1279"/>
      <point x="964" y="1158" type="curve" smooth="yes"/>
      <point x="964" y="996"/>
      <point x="841" y="812"/>
      <point x="702" y="781" type="curve"/>
      <point x="845" y="765"/>
      <point x="1000" y="606"/>
      <point x="1000" y="395" type="curve" smooth="yes"/>
      <point x="1000" y="148"/>
      <point x="828" y="-25"/>
      <point x="494" y="-25" type="curve" smooth="yes"/>
      <point x="297" y="-25"/>
      <point x="165" y="34"/>
      <point x="64" y="86" type="curve"/>
      <point x="74" y="109"/>
      <point x="123" y="229"/>
      <point x="113" y="201" type="curve"/>
      <point x="197" y="136"/>
      <point x="343" y="88"/>
      <point x="488" y="88" type="curve" smooth="yes"/>
      <point x="649" y="88"/>
      <point x="851" y="157"/>
      <point x="851" y="390" type="curve" smooth="yes"/>
      <point x="851" y="539"/>
      <point x="779" y="698"/>
    </contour>
    <contour>
      <point x="64" y="86" type="line" smooth="yes"/>
      <point x="62" y="81"/>
      <point x="62" y="81"/>
      <point x="64" y="86" type="curve"/>
    </contour>
    <contour>
      <point x="551" y="1488" type="move" name="top"/>
    </contour>
    <contour>
      <point x="551" y="0" type="move" name="bottom"/>
    </contour>
  </outline>
</glyph>
<glyph name="afii10028" format="1">
  <advance width="1206"/>
  <unicode hex="041A"/>
  <outline>
    <contour>
      <point x="603" y="1491" type="move" name="top"/>
    </contour>
    <component base="K"/>
  </outline>
</glyph>
<glyph name="afii10033" format="1">
  <advance width="1466"/>
  <unicode hex="041F"/>
  <outline>
    <contour>
      <point x="1173" y="1395" type="line"/>
      <point x="290" y="1395" type="line"/>
      <point x="290" y="0" type="line"/>
      <point x="155" y="0" type="line"/>
      <point x="155" y="1521" type="line"/>
      <point x="1309" y="1521" type="line"/>
      <point x="1309" y="0" type="line"/>
      <point x="1173" y="0" type="line"/>
    </contour>
  </outline>
</glyph>
<glyph name="afii10038" format="1">
  <advance width="1688"/>
  <unicode hex="0424"/>
  <outline>
    <contour>
      <point x="892" y="1264" type="curve"/>
      <point x="892" y="228" type="line"/>
      <point x="1262" y="275"/>
      <point x="1421" y="449"/>
      <point x="1421" y="742" type="curve" smooth="yes"/>
      <point x="1421" y="1040"/>
      <point x="1262" y="1216"/>
    </contour>
    <contour>
      <point x="773" y="1261" type="line"/>
      <point x="423" y="1208"/>
      <point x="266" y="1039"/>
      <point x="266" y="742" type="curve" smooth="yes"/>
      <point x="266" y="449"/>
      <point x="422" y="282"/>
      <point x="773" y="229" type="curve"/>
    </contour>
    <contour>
      <point x="892" y="1521" type="line"/>
      <point x="892" y="1387" type="line"/>
      <point x="1327" y="1343"/>
      <point x="1576" y="1139"/>
      <point x="1576" y="739" type="curve" smooth="yes"/>
      <point x="1576" y="345"/>
      <point x="1327" y="146"/>
      <point x="892" y="103" type="curve"/>
      <point x="892" y="0" type="line"/>
      <point x="772" y="0" type="line"/>
      <point x="773" y="106" type="line"/>
      <point x="330" y="162"/>
      <point x="110" y="377"/>
      <point x="110" y="739" type="curve" smooth="yes"/>
      <point x="110" y="1107"/>
      <point x="330" y="1328"/>
      <point x="773" y="1384" type="curve"/>
      <point x="772" y="1521" type="line"/>
    </contour>
  </outline>
</glyph>
<glyph name="afii10042" format="1">
  <advance width="1597"/>
  <unicode hex="0428"/>
  <outline>
    <contour>
      <point x="290" y="128" type="line"/>
      <point x="720" y="128" type="line"/>
      <point x="720" y="1521" type="line"/>
      <point x="855" y="1521" type="line"/>
      <point x="855" y="128" type="line"/>
      <point x="1304" y="128" type="line"/>
      <point x="1304" y="1521" type="line"/>
      <point x="1439" y="1521" type="line"/>
      <point x="1439" y="0" type="line"/>
      <point x="155" y="0" type="line"/>
      <point x="155" y="1521" type="line"/>
      <point x="290" y="1521" type="line"/>
    </contour>
  </outline>
</glyph>
<glyph name="afii10043" format="1">
  <advance width="1662"/>
  <unicode hex="0429"/>
  <outline>
    <contour>
      <point x="1390" y="-215" type="line"/>
      <point x="1391" y="0" type="line"/>
      <point x="155" y="0" type="line"/>
      <point x="155" y="1521" type="line"/>
      <point x="290" y="1521" type="line"/>
      <point x="290" y="128" type="line"/>
      <point x="721" y="128" type="line"/>
      <point x="721" y="1521" type="line"/>
      <point x="857" y="1521" type="line"/>
      <point x="857" y="128" type="line"/>
      <point x="1305" y="128" type="line"/>
      <point x="1305" y="1521" type="line"/>
      <point x="1441" y="1521" type="line"/>
      <point x="1441" y="188" type="line"/>
      <point x="1540" y="188" type="line"/>
      <point x="1540" y="-215" type="line"/>
    </contour>
  </outline>
</glyph>
<glyph name="afii10044" format="1">
  <advance width="1368"/>
  <unicode hex="042A"/>
  <outline>
    <contour>
      <point x="435" y="-7" type="line"/>
      <point x="435" y="1400" type="line"/>
      <point x="31" y="1400" type="line"/>
      <point x="31" y="1524" type="line"/>
      <point x="584" y="1524" type="line"/>
      <point x="584" y="794" type="line"/>
      <point x="768" y="794" type="line" smooth="yes"/>
      <point x="1126" y="794"/>
      <point x="1292" y="660"/>
      <point x="1292" y="391" type="curve" smooth="yes"/>
      <point x="1292" y="122"/>
      <point x="1093" y="-7"/>
      <point x="763" y="-7" type="curve" smooth="yes"/>
    </contour>
    <contour>
      <point x="1151" y="402" type="curve" smooth="yes"/>
      <point x="1151" y="569"/>
      <point x="1061" y="673"/>
      <point x="789" y="673" type="curve" smooth="yes"/>
      <point x="584" y="673" type="line"/>
      <point x="584" y="118" type="line"/>
      <point x="785" y="118" type="line" smooth="yes"/>
      <point x="1047" y="118"/>
      <point x="1151" y="216"/>
    </contour>
  </outline>
</glyph>
<glyph name="afii10046" format="1">
  <advance width="1077"/>
  <unicode hex="042C"/>
  <outline>
    <contour>
      <point x="285" y="1524" type="line"/>
      <point x="285" y="794" type="line"/>
      <point x="368" y="794" type="line" smooth="yes"/>
      <point x="713" y="794"/>
      <point x="932" y="660"/>
      <point x="932" y="409" type="curve" smooth="yes"/>
      <point x="932" y="171"/>
      <point x="766" y="-7"/>
      <point x="376" y="-7" type="curve" smooth="yes"/>
      <point x="133" y="-7" type="line"/>
      <point x="133" y="1524" type="line"/>
    </contour>
    <contour>
      <point x="285" y="673" type="line"/>
      <point x="285" y="117" type="line"/>
      <point x="396" y="117" type="line" smooth="yes"/>
      <point x="668" y="117"/>
      <point x="791" y="216"/>
      <point x="791" y="402" type="curve" smooth="yes"/>
      <point x="791" y="579"/>
      <point x="673" y="673"/>
      <point x="387" y="673" type="curve" smooth="yes"/>
    </contour>
  </outline>
</glyph>
<glyph name="afii10048" format="1">
  <advance width="2209"/>
  <unicode hex="042E"/>
  <outline>
    <contour>
      <point x="1274" y="-25" type="curve" smooth="yes"/>
      <point x="883" y="-25"/>
      <point x="655" y="304"/>
      <point x="628" y="706" type="curve"/>
      <point x="285" y="706" type="line"/>
      <point x="285" y="-7" type="line"/>
      <point x="133" y="-7" type="line"/>
      <point x="133" y="1522" type="line"/>
      <point x="285" y="1522" type="line"/>
      <point x="285" y="828" type="line"/>
      <point x="630" y="828" type="line"/>
      <point x="657" y="1257"/>
      <point x="877" y="1548"/>
      <point x="1262" y="1548" type="curve" smooth="yes"/>
      <point x="1676" y="1548"/>
      <point x="1925" y="1211"/>
      <point x="1925" y="749" type="curve" smooth="yes"/>
      <point x="1925" y="327"/>
      <point x="1690" y="-25"/>
    </contour>
    <contour>
      <point x="1265" y="1433" type="curve" smooth="yes"/>
      <point x="946" y="1433"/>
      <point x="785" y="1100"/>
      <point x="785" y="751" type="curve" smooth="yes"/>
      <point x="785" y="263"/>
      <point x="955" y="90"/>
      <point x="1277" y="90" type="curve" smooth="yes"/>
      <point x="1597" y="90"/>
      <point x="1763" y="399"/>
      <point x="1763" y="754" type="curve" smooth="yes"/>
      <point x="1763" y="1087"/>
      <point x="1598" y="1433"/>
    </contour>
  </outline>
</glyph>
<glyph name="afii10049" format="1">
  <advance width="1299"/>
  <unicode hex="042F"/>
  <outline>
    <contour>
      <point x="632" y="784" type="curve" smooth="yes"/>
      <point x="1008" y="784" type="line"/>
      <point x="1008" y="1397" type="line"/>
      <point x="634" y="1397" type="line" smooth="yes"/>
      <point x="355" y="1397"/>
      <point x="245" y="1287"/>
      <point x="245" y="1093" type="curve" smooth="yes"/>
      <point x="245" y="918"/>
      <point x="320" y="784"/>
    </contour>
    <contour>
      <point x="1008" y="0" type="line"/>
      <point x="1008" y="659" type="line"/>
      <point x="833" y="659" type="line" smooth="yes"/>
      <point x="643" y="659"/>
      <point x="588" y="669"/>
      <point x="540" y="674" type="curve"/>
      <point x="540" y="674"/>
      <point x="412" y="393"/>
      <point x="425" y="432" type="curve"/>
      <point x="219" y="0" type="line"/>
      <point x="55" y="0" type="line"/>
      <point x="115" y="144"/>
      <point x="180" y="238"/>
      <point x="287" y="476" type="curve"/>
      <point x="356" y="618"/>
      <point x="412" y="731"/>
      <point x="390" y="696" type="curve"/>
      <point x="220" y="761"/>
      <point x="111" y="906"/>
      <point x="111" y="1093" type="curve" smooth="yes"/>
      <point x="111" y="1359"/>
      <point x="306" y="1521"/>
      <point x="684" y="1521" type="curve" smooth="yes"/>
      <point x="1143" y="1521" type="line"/>
      <point x="1143" y="0" type="line"/>
    </contour>
  </outline>
</glyph>
<glyph name="afii10067" format="1">
  <advance width="996"/>
  <unicode hex="0432"/>
  <outline>
    <contour>
      <point x="930" y="314" type="curve" smooth="yes"/>
      <point x="930" y="179"/>
      <point x="822" y="0"/>
      <point x="530" y="0" type="curve" smooth="yes"/>
      <point x="119" y="0" type="line"/>
      <point x="119" y="1098" type="line"/>
      <point x="539" y="1098" type="line" smooth="yes"/>
      <point x="808" y="1098"/>
      <point x="894" y="928"/>
      <point x="894" y="814" type="curve" smooth="yes"/>
      <point x="894" y="731"/>
      <point x="858" y="635"/>
      <point x="757" y="575" type="curve"/>
      <point x="875" y="508"/>
      <point x="923" y="402"/>
    </contour>
    <contour>
      <point x="539" y="515" type="curve" smooth="yes"/>
      <point x="247" y="515" type="line"/>
      <point x="247" y="101" type="line"/>
      <point x="539" y="101" type="line" smooth="yes"/>
      <point x="704" y="101"/>
      <point x="798" y="185"/>
      <point x="798" y="323" type="curve" smooth="yes"/>
      <point x="792" y="414"/>
      <point x="704" y="515"/>
    </contour>
    <contour>
      <point x="247" y="631" type="line"/>
      <point x="543" y="631" type="line" smooth="yes"/>
      <point x="692" y="631"/>
      <point x="764" y="723"/>
      <point x="764" y="808" type="curve" smooth="yes"/>
      <point x="764" y="915"/>
      <point x="691" y="990"/>
      <point x="543" y="990" type="curve" smooth="yes"/>
      <point x="247" y="990" type="line"/>
    </contour>
  </outline>
</glyph>
<glyph name="afii10068" format="1">
  <advance width="633"/>
  <unicode hex="0433"/>
  <outline>
    <contour>
      <point x="631" y="992" type="line"/>
      <point x="247" y="992" type="line"/>
      <point x="247" y="0" type="line"/>
      <point x="119" y="0" type="line"/>
      <point x="119" y="1098" type="line"/>
      <point x="631" y="1098" type="line"/>
    </contour>
    <contour>
      <point x="317" y="1096" type="move" name="top"/>
    </contour>
  </outline>
</glyph>
<glyph name="afii10069" format="1">
  <advance width="1054"/>
  <unicode hex="0434"/>
  <outline>
    <contour>
      <point x="-3" y="-221" type="line"/>
      <point x="-3" y="101" type="line"/>
      <point x="99" y="101" type="line"/>
      <point x="188" y="189"/>
      <point x="194" y="380"/>
      <point x="204" y="435" type="curve" smooth="yes"/>
      <point x="247" y="1098" type="line"/>
      <point x="895" y="1098" type="line"/>
      <point x="895" y="98" type="line"/>
      <point x="967" y="98" type="line"/>
      <point x="967" y="-221" type="line"/>
      <point x="830" y="-221" type="line"/>
      <point x="838" y="0" type="line"/>
      <point x="120" y="0" type="line"/>
      <point x="124" y="-221" type="line"/>
    </contour>
    <contour>
      <point x="242" y="98" type="curve"/>
      <point x="767" y="98" type="line"/>
      <point x="767" y="993" type="line"/>
      <point x="359" y="993" type="line"/>
      <point x="359" y="1019"/>
      <point x="343" y="562"/>
      <point x="344" y="586" type="curve" smooth="yes"/>
      <point x="342" y="469"/>
      <point x="307" y="191"/>
    </contour>
  </outline>
</glyph>
<glyph name="afii10070" format="1">
  <advance width="1086"/>
  <unicode hex="0435"/>
  <outline>
    <component base="e"/>
    <contour>
      <point x="543" y="1096" type="move" name="top"/>
    </contour>
  </outline>
</glyph>
<glyph name="afii10073" format="1">
  <advance width="936"/>
  <unicode hex="0437"/>
  <outline>
    <contour>
      <point x="401" y="-27" type="curve" smooth="yes"/>
      <point x="294" y="-27"/>
      <point x="139" y="-2"/>
      <point x="67" y="86" type="curve"/>
      <point x="95" y="156"/>
      <point x="106" y="96"/>
      <point x="131" y="166" type="curve"/>
      <point x="195" y="105"/>
      <point x="308" y="78"/>
      <point x="415" y="78" type="curve" smooth="yes"/>
      <point x="603" y="78"/>
      <point x="704" y="188"/>
      <point x="704" y="311" type="curve" smooth="yes"/>
      <point x="704" y="411"/>
      <point x="632" y="529"/>
      <point x="462" y="529" type="curve" smooth="yes"/>
      <point x="281" y="529" type="line"/>
      <point x="281" y="630" type="line"/>
      <point x="462" y="630" type="line" smooth="yes"/>
      <point x="612" y="630"/>
      <point x="669" y="744"/>
      <point x="669" y="829" type="curve" smooth="yes"/>
      <point x="669" y="937"/>
      <point x="595" y="1035"/>
      <point x="408" y="1035" type="curve" smooth="yes"/>
      <point x="308" y="1035"/>
      <point x="171" y="973"/>
      <point x="130" y="923" type="curve"/>
      <point x="130" y="923"/>
      <point x="90" y="963"/>
      <point x="70" y="1015" type="curve"/>
      <point x="148" y="1111"/>
      <point x="290" y="1144"/>
      <point x="413" y="1144" type="curve" smooth="yes"/>
      <point x="731" y="1144"/>
      <point x="803" y="956"/>
      <point x="803" y="829" type="curve" smooth="yes"/>
      <point x="803" y="743"/>
      <point x="784" y="647"/>
      <point x="633" y="580" type="curve"/>
      <point x="802" y="534"/>
      <point x="834" y="419"/>
      <point x="841" y="315" type="curve"/>
      <point x="841" y="167"/>
      <point x="745" y="-27"/>
    </contour>
    <contour>
      <point x="468" y="1096" type="move" name="top"/>
    </contour>
    <contour>
      <point x="468" y="0" type="move" name="bottom"/>
    </contour>
  </outline>
</glyph>
<glyph name="afii10074" format="1">
  <advance width="1087"/>
  <unicode hex="0438"/>
  <outline>
    <contour>
      <point x="544" y="1097" type="move" name="top"/>
    </contour>
    <contour>
      <point x="966" y="0" type="line"/>
      <point x="829" y="0" type="line"/>
      <point x="829" y="813" type="line"/>
      <point x="247" y="0" type="line"/>
      <point x="119" y="0" type="line"/>
      <point x="119" y="1098" type="line"/>
      <point x="254" y="1098" type="line"/>
      <point x="254" y="194" type="line"/>
      <point x="829" y="1002" type="line"/>
      <point x="829" y="1098" type="line"/>
      <point x="966" y="1098" type="line"/>
    </contour>
  </outline>
</glyph>
<glyph name="afii10078" format="1">
  <advance width="1124"/>
  <unicode hex="043C"/>
  <outline>
    <contour>
      <point x="621" y="410" type="line"/>
      <point x="515" y="410" type="line"/>
      <point x="253" y="871" type="line"/>
      <point x="253" y="0" type="line"/>
      <point x="117" y="0" type="line"/>
      <point x="117" y="1098" type="line"/>
      <point x="227" y="1098" type="line"/>
      <point x="559" y="550" type="line"/>
      <point x="894" y="1098" type="line"/>
      <point x="1003" y="1098" type="line"/>
      <point x="1003" y="0" type="line"/>
      <point x="865" y="0" type="line"/>
      <point x="865" y="871" type="line"/>
    </contour>
  </outline>
</glyph>
<glyph name="afii10079" format="1">
  <advance width="1082"/>
  <unicode hex="043D"/>
  <outline>
    <contour>
      <point x="119" y="1098" type="line"/>
      <point x="247" y="1098" type="line"/>
      <point x="247" y="630" type="line"/>
      <point x="832" y="630" type="line"/>
      <point x="832" y="1098" type="line"/>
      <point x="961" y="1098" type="line"/>
      <point x="961" y="0" type="line"/>
      <point x="832" y="0" type="line"/>
      <point x="832" y="533" type="line"/>
      <point x="247" y="533" type="line"/>
      <point x="247" y="0" type="line"/>
      <point x="119" y="0" type="line"/>
    </contour>
  </outline>
</glyph>
<glyph name="afii10085" format="1">
  <advance width="1088"/>
  <unicode hex="0443"/>
  <outline>
    <contour>
      <point x="546" y="118" type="line"/>
      <point x="870" y="1098" type="line"/>
      <point x="1011" y="1098" type="line"/>
      <point x="644" y="65" type="line"/>
      <point x="526" y="-273"/>
      <point x="573" y="-410"/>
      <point x="168" y="-410" type="curve" smooth="yes"/>
      <point x="140" y="-410" type="line"/>
      <point x="114" y="-264" type="line"/>
      <point x="186" y="-264" type="line" smooth="yes"/>
      <point x="399" y="-264"/>
      <point x="385" y="-204"/>
      <point x="462" y="25" type="curve"/>
      <point x="65" y="1098" type="line"/>
      <point x="213" y="1098" type="line"/>
    </contour>
    <contour>
      <point x="544" y="1096" type="move" name="top"/>
    </contour>
  </outline>
</glyph>
<glyph name="afii10086" format="1">
  <advance width="1375"/>
  <unicode hex="0444"/>
  <outline>
    <contour>
      <point x="899" y="155" type="curve" smooth="yes"/>
      <point x="1045" y="155"/>
      <point x="1140" y="348"/>
      <point x="1140" y="562" type="curve" smooth="yes"/>
      <point x="1140" y="778"/>
      <point x="1056" y="946"/>
      <point x="909" y="946" type="curve" smooth="yes"/>
      <point x="849" y="946"/>
      <point x="819" y="935"/>
      <point x="750" y="898" type="curve"/>
      <point x="750" y="200" type="line"/>
      <point x="815" y="163"/>
      <point x="841" y="155"/>
    </contour>
    <contour>
      <point x="472" y="155" type="curve" smooth="yes"/>
      <point x="530" y="155"/>
      <point x="557" y="164"/>
      <point x="622" y="197" type="curve"/>
      <point x="622" y="905" type="line"/>
      <point x="553" y="942"/>
      <point x="519" y="946"/>
      <point x="461" y="946" type="curve" smooth="yes"/>
      <point x="313" y="946"/>
      <point x="233" y="778"/>
      <point x="233" y="562" type="curve" smooth="yes"/>
      <point x="233" y="349"/>
      <point x="325" y="155"/>
    </contour>
    <contour>
      <point x="622" y="-201" type="line"/>
      <point x="622" y="82" type="line"/>
      <point x="559" y="53"/>
      <point x="527" y="44"/>
      <point x="467" y="44" type="curve" smooth="yes"/>
      <point x="248" y="44"/>
      <point x="86" y="261"/>
      <point x="86" y="562" type="curve" smooth="yes"/>
      <point x="86" y="863"/>
      <point x="237" y="1056"/>
      <point x="462" y="1056" type="curve" smooth="yes"/>
      <point x="520" y="1056"/>
      <point x="559" y="1038"/>
      <point x="622" y="1010" type="curve"/>
      <point x="622" y="1349" type="line"/>
      <point x="750" y="1349" type="line"/>
      <point x="750" y="1010" type="line"/>
      <point x="813" y="1038"/>
      <point x="848" y="1056"/>
      <point x="908" y="1056" type="curve" smooth="yes"/>
      <point x="1131" y="1056"/>
      <point x="1287" y="864"/>
      <point x="1287" y="562" type="curve" smooth="yes"/>
      <point x="1287" y="264"/>
      <point x="1122" y="44"/>
      <point x="902" y="44" type="curve" smooth="yes"/>
      <point x="841" y="44"/>
      <point x="813" y="53"/>
      <point x="750" y="82" type="curve"/>
      <point x="750" y="-201" type="line"/>
    </contour>
  </outline>
</glyph>
<glyph name="afii10088" format="1">
  <advance width="1060"/>
  <unicode hex="0446"/>
  <outline>
    <contour>
      <point x="899" y="0" type="line"/>
      <point x="136" y="0" type="line"/>
      <point x="136" y="1098" type="line"/>
      <point x="265" y="1098" type="line"/>
      <point x="265" y="94" type="line"/>
      <point x="785" y="94" type="line"/>
      <point x="785" y="1098" type="line"/>
      <point x="914" y="1098" type="line"/>
      <point x="914" y="156" type="line"/>
      <point x="1002" y="156" type="line"/>
      <point x="1002" y="-223" type="line"/>
      <point x="905" y="-223" type="line"/>
    </contour>
  </outline>
</glyph>
<glyph name="afii10090" format="1">
  <advance width="1251"/>
  <unicode hex="0448"/>
  <outline>
    <contour>
      <point x="254" y="109" type="line"/>
      <point x="556" y="109" type="line"/>
      <point x="556" y="1098" type="line"/>
      <point x="691" y="1098" type="line"/>
      <point x="691" y="109" type="line"/>
      <point x="992" y="109" type="line"/>
      <point x="992" y="1098" type="line"/>
      <point x="1129" y="1098" type="line"/>
      <point x="1129" y="0" type="line"/>
      <point x="119" y="0" type="line"/>
      <point x="119" y="1098" type="line"/>
      <point x="254" y="1098" type="line"/>
    </contour>
  </outline>
</glyph>
<glyph name="afii10092" format="1">
  <advance width="1135"/>
  <unicode hex="044A"/>
  <outline>
    <contour>
      <point x="408" y="1098" type="line"/>
      <point x="408" y="631" type="line"/>
      <point x="709" y="631" type="line" smooth="yes"/>
      <point x="1000" y="631"/>
      <point x="1085" y="450"/>
      <point x="1085" y="326" type="curve" smooth="yes"/>
      <point x="1085" y="181"/>
      <point x="995" y="0"/>
      <point x="712" y="0" type="curve" smooth="yes"/>
      <point x="279" y="0" type="line"/>
      <point x="279" y="988" type="line"/>
      <point x="37" y="988" type="line"/>
      <point x="37" y="1098" type="line"/>
    </contour>
    <contour>
      <point x="744" y="524" type="curve" smooth="yes"/>
      <point x="407" y="524" type="line"/>
      <point x="407" y="101" type="line"/>
      <point x="750" y="101" type="line" smooth="yes"/>
      <point x="895" y="101"/>
      <point x="954" y="229"/>
      <point x="954" y="325" type="curve" smooth="yes"/>
      <point x="954" y="413"/>
      <point x="885" y="524"/>
    </contour>
  </outline>
</glyph>
<glyph name="afii10094" format="1">
  <advance width="903"/>
  <unicode hex="044C"/>
  <outline>
    <contour>
      <point x="248" y="1098" type="line"/>
      <point x="119" y="1098" type="line"/>
      <point x="119" y="0" type="line"/>
      <point x="466" y="0" type="line" smooth="yes"/>
      <point x="750" y="0"/>
      <point x="834" y="199"/>
      <point x="834" y="358" type="curve" smooth="yes"/>
      <point x="834" y="509"/>
      <point x="754" y="697"/>
      <point x="462" y="697" type="curve" smooth="yes"/>
      <point x="248" y="697" type="line"/>
    </contour>
    <contour>
      <point x="500" y="591" type="line"/>
      <point x="640" y="591"/>
      <point x="704" y="473"/>
      <point x="704" y="362" type="curve" smooth="yes"/>
      <point x="704" y="255"/>
      <point x="651" y="101"/>
      <point x="507" y="101" type="curve" smooth="yes"/>
      <point x="247" y="101" type="line"/>
      <point x="247" y="591" type="line"/>
    </contour>
  </outline>
</glyph>
<glyph name="afii10095" format="1">
  <advance width="1006"/>
  <unicode hex="044D"/>
  <outline>
    <contour>
      <point x="382" y="-27" type="curve" smooth="yes"/>
      <point x="242" y="-27"/>
      <point x="114" y="10"/>
      <point x="55" y="68" type="curve"/>
      <point x="98" y="158" type="line"/>
      <point x="201" y="96"/>
      <point x="291" y="77"/>
      <point x="374" y="77" type="curve" smooth="yes"/>
      <point x="601" y="77"/>
      <point x="747" y="253"/>
      <point x="768" y="485" type="curve"/>
      <point x="319" y="485" type="line"/>
      <point x="319" y="605" type="line"/>
      <point x="767" y="605" type="line"/>
      <point x="747" y="839"/>
      <point x="627" y="1024"/>
      <point x="371" y="1024" type="curve" smooth="yes"/>
      <point x="259" y="1024"/>
      <point x="170" y="987"/>
      <point x="95" y="939" type="curve"/>
      <point x="50" y="1025" type="line"/>
      <point x="125" y="1094"/>
      <point x="263" y="1127"/>
      <point x="370" y="1127" type="curve" smooth="yes"/>
      <point x="770" y="1127"/>
      <point x="910" y="803"/>
      <point x="910" y="532" type="curve" smooth="yes"/>
      <point x="910" y="288"/>
      <point x="750" y="-27"/>
    </contour>
  </outline>
</glyph>
<glyph name="afii10096" format="1">
  <advance width="1432"/>
  <unicode hex="044E"/>
  <outline>
    <contour>
      <point x="1335" y="547" type="curve" smooth="yes"/>
      <point x="1335" y="246"/>
      <point x="1225" y="-27"/>
      <point x="890" y="-27" type="curve" smooth="yes"/>
      <point x="578" y="-27"/>
      <point x="448" y="195"/>
      <point x="436" y="490" type="curve"/>
      <point x="247" y="490" type="line"/>
      <point x="247" y="0" type="line"/>
      <point x="119" y="0" type="line"/>
      <point x="119" y="1098" type="line"/>
      <point x="247" y="1098" type="line"/>
      <point x="247" y="602" type="line"/>
      <point x="436" y="602" type="line"/>
      <point x="449" y="890"/>
      <point x="580" y="1127"/>
      <point x="894" y="1127" type="curve" smooth="yes"/>
      <point x="1236" y="1127"/>
      <point x="1335" y="862"/>
    </contour>
    <contour>
      <point x="894" y="77" type="curve" smooth="yes"/>
      <point x="1130" y="77"/>
      <point x="1195" y="306"/>
      <point x="1195" y="545" type="curve" smooth="yes"/>
      <point x="1195" y="792"/>
      <point x="1138" y="1023"/>
      <point x="890" y="1023" type="curve" smooth="yes"/>
      <point x="652" y="1023"/>
      <point x="574" y="779"/>
      <point x="574" y="541" type="curve" smooth="yes"/>
      <point x="574" y="306"/>
      <point x="652" y="77"/>
    </contour>
  </outline>
</glyph>
<glyph name="afii10097" format="1">
  <advance width="1005"/>
  <unicode hex="044F"/>
  <outline>
    <contour>
      <point x="756" y="0" type="line"/>
      <point x="756" y="439" type="line"/>
      <point x="427" y="439" type="line"/>
      <point x="232" y="0" type="line"/>
      <point x="71" y="0" type="line"/>
      <point x="291" y="453" type="line"/>
      <point x="126" y="501"/>
      <point x="64" y="643"/>
      <point x="64" y="760" type="curve" smooth="yes"/>
      <point x="64" y="907"/>
      <point x="154" y="1098"/>
      <point x="440" y="1098" type="curve" smooth="yes"/>
      <point x="884" y="1098" type="line"/>
      <point x="884" y="0" type="line"/>
    </contour>
    <contour>
      <point x="413" y="547" type="curve" smooth="yes"/>
      <point x="756" y="547" type="line"/>
      <point x="756" y="991" type="line"/>
      <point x="413" y="991" type="line" smooth="yes"/>
      <point x="272" y="991"/>
      <point x="189" y="862"/>
      <point x="188" y="762" type="curve" smooth="yes"/>
      <point x="186" y="672"/>
      <point x="270" y="547"/>
    </contour>
  </outline>
</glyph>
<glyph name="afii10101" format="1">
  <advance width="1006"/>
  <unicode hex="0454"/>
  <outline>
    <contour>
      <point x="578" y="-27" type="curve" smooth="yes"/>
      <point x="210" y="-27"/>
      <point x="51" y="288"/>
      <point x="51" y="532" type="curve" smooth="yes"/>
      <point x="51" y="803"/>
      <point x="190" y="1127"/>
      <point x="590" y="1127" type="curve" smooth="yes"/>
      <point x="697" y="1127"/>
      <point x="835" y="1094"/>
      <point x="911" y="1025" type="curve"/>
      <point x="865" y="939" type="line"/>
      <point x="790" y="987"/>
      <point x="701" y="1024"/>
      <point x="589" y="1024" type="curve" smooth="yes"/>
      <point x="333" y="1024"/>
      <point x="213" y="839"/>
      <point x="193" y="605" type="curve"/>
      <point x="641" y="605" type="line"/>
      <point x="641" y="485" type="line"/>
      <point x="193" y="485" type="line"/>
      <point x="213" y="253"/>
      <point x="360" y="77"/>
      <point x="586" y="77" type="curve" smooth="yes"/>
      <point x="669" y="77"/>
      <point x="759" y="96"/>
      <point x="862" y="158" type="curve"/>
      <point x="905" y="68" type="line"/>
      <point x="846" y="10"/>
      <point x="718" y="-27"/>
    </contour>
  </outline>
</glyph>
<glyph name="afii10103" format="1">
  <advance width="445"/>
  <unicode hex="0456"/>
  <outline>
    <component base="i"/>
    <contour>
      <point x="223" y="1096" type="move" name="top"/>
    </contour>
  </outline>
</glyph>
<glyph name="afii10107" format="1">
  <advance width="1591"/>
  <unicode hex="045A"/>
  <outline>
    <contour>
      <point x="882" y="597" type="line"/>
      <point x="882" y="98" type="line"/>
      <point x="1140" y="98" type="line" smooth="yes"/>
      <point x="1281" y="98"/>
      <point x="1331" y="260"/>
      <point x="1331" y="364" type="curve" smooth="yes"/>
      <point x="1331" y="471"/>
      <point x="1272" y="597"/>
      <point x="1131" y="597" type="curve" smooth="yes"/>
    </contour>
    <contour>
      <point x="119" y="1098" type="line"/>
      <point x="247" y="1098" type="line"/>
      <point x="247" y="633" type="line"/>
      <point x="753" y="633" type="line"/>
      <point x="753" y="1098" type="line"/>
      <point x="882" y="1098" type="line"/>
      <point x="882" y="703" type="line"/>
      <point x="1089" y="703" type="line" smooth="yes"/>
      <point x="1375" y="703"/>
      <point x="1468" y="508"/>
      <point x="1468" y="362" type="curve" smooth="yes"/>
      <point x="1468" y="197"/>
      <point x="1387" y="0"/>
      <point x="1100" y="0" type="curve" smooth="yes"/>
      <point x="753" y="0" type="line"/>
      <point x="753" y="536" type="line"/>
      <point x="247" y="536" type="line"/>
      <point x="247" y="0" type="line"/>
      <point x="119" y="0" type="line"/>
    </contour>
  </outline>
</glyph>
<glyph name="quoteright" format="1">
  <advance width="532"/>
  <unicode hex="2019"/>
  <outline>
    <contour>
      <point x="259" y="1161" type="line"/>
      <point x="166" y="1161" type="line"/>
      <point x="252" y="1619" type="line"/>
      <point x="382" y="1619" type="line"/>
    </contour>
  </outline>
</glyph>
<glyph name="quotedblright" format="1">
  <advance width="723"/>
  <unicode hex="201D"/>
  <outline>
    <contour>
      <point x="394" y="1161" type="line"/>
      <point x="481" y="1619" type="line"/>
      <point x="619" y="1619" type="line"/>
      <point x="492" y="1161" type="line"/>
    </contour>
    <contour>
      <point x="113" y="1161" type="line"/>
      <point x="200" y="1619" type="line"/>
      <point x="335" y="1619" type="line"/>
      <point x="206" y="1161" type="line"/>
    </contour>
  </outline>
</glyph>
<glyph name="quotedblbase" format="1">
  <advance width="734"/>
  <unicode hex="201E"/>
  <outline>
    <contour>
      <point x="409" y="-240" type="line"/>
      <point x="487" y="218" type="line"/>
      <point x="621" y="218" type="line"/>
      <point x="498" y="-240" type="line"/>
    </contour>
    <contour>
      <point x="111" y="-240" type="line"/>
      <point x="192" y="218" type="line"/>
      <point x="321" y="218" type="line"/>
      <point x="204" y="-240" type="line"/>
    </contour>
  </outline>
</glyph>
<glyph name="dagger" format="1">
  <advance width="829"/>
  <unicode hex="2020"/>
  <outline>
    <contour>
      <point x="362" y="125" type="line"/>
      <point x="362" y="1098" type="line"/>
      <point x="73" y="1098" type="line"/>
      <point x="73" y="1155" type="line"/>
      <point x="362" y="1155" type="line"/>
      <point x="362" y="1611" type="line"/>
      <point x="461" y="1611" type="line"/>
      <point x="461" y="1155" type="line"/>
      <point x="756" y="1155" type="line"/>
      <point x="756" y="1098" type="line"/>
      <point x="466" y="1098" type="line"/>
      <point x="466" y="125" type="line"/>
    </contour>
  </outline>
</glyph>
<glyph name="daggerdbl" format="1">
  <advance width="929"/>
  <unicode hex="2021"/>
  <outline>
    <contour>
      <point x="418" y="218" type="line"/>
      <point x="418" y="534" type="line"/>
      <point x="98" y="534" type="line"/>
      <point x="98" y="654" type="line"/>
      <point x="418" y="654" type="line"/>
      <point x="418" y="1125" type="line"/>
      <point x="104" y="1125" type="line"/>
      <point x="104" y="1249" type="line"/>
      <point x="418" y="1249" type="line"/>
      <point x="418" y="1615" type="line"/>
      <point x="516" y="1615" type="line"/>
      <point x="516" y="1249" type="line"/>
      <point x="837" y="1249" type="line"/>
      <point x="837" y="1125" type="line"/>
      <point x="516" y="1125" type="line"/>
      <point x="516" y="654" type="line"/>
      <point x="828" y="654" type="line"/>
      <point x="828" y="534" type="line"/>
      <point x="516" y="534" type="line"/>
      <point x="516" y="218" type="line"/>
    </contour>
  </outline>
</glyph>
<glyph name="bullet" format="1">
  <advance width="808"/>
  <unicode hex="2022"/>
  <outline>
    <contour>
      <point x="674" y="789" type="curve" smooth="yes"/>
      <point x="674" y="612"/>
      <point x="543" y="455"/>
      <point x="402" y="455" type="curve" smooth="yes"/>
      <point x="255" y="455"/>
      <point x="134" y="611"/>
      <point x="134" y="783" type="curve" smooth="yes"/>
      <point x="134" y="961"/>
      <point x="269" y="1119"/>
      <point x="405" y="1119" type="curve" smooth="yes"/>
      <point x="547" y="1119"/>
      <point x="674" y="962"/>
    </contour>
  </outline>
</glyph>
<glyph name="guilsinglright" format="1">
  <advance width="632"/>
  <unicode hex="203A"/>
  <outline>
    <contour>
      <point x="493" y="595" type="line"/>
      <point x="267" y="187" type="line"/>
      <point x="155" y="187" type="line"/>
      <point x="373" y="595" type="line"/>
      <point x="161" y="993" type="line"/>
      <point x="272" y="993" type="line"/>
    </contour>
  </outline>
</glyph>
<glyph name="uni2074" format="1">
  <advance width="705"/>
  <unicode hex="2074"/>
  <outline>
    <contour>
      <point x="539" y="684" type="line"/>
      <point x="455" y="684" type="line"/>
      <point x="455" y="908" type="line"/>
      <point x="134" y="908" type="line"/>
      <point x="134" y="994" type="line"/>
      <point x="92" y="907"/>
      <point x="482" y="1653"/>
      <point x="441" y="1567" type="curve"/>
      <point x="541" y="1567" type="line"/>
      <point x="541" y="994" type="line"/>
      <point x="631" y="994" type="line"/>
      <point x="639" y="908" type="line"/>
      <point x="539" y="908" type="line"/>
    </contour>
    <contour>
      <point x="218" y="994" type="line"/>
      <point x="454" y="994" type="line"/>
      <point x="454" y="994"/>
      <point x="454" y="1391"/>
      <point x="456" y="1433" type="curve"/>
    </contour>
  </outline>
</glyph>
<glyph name="summation" format="1">
  <advance width="1294"/>
  <unicode hex="2211"/>
  <outline>
    <contour>
      <point x="1193" y="-232" type="line"/>
      <point x="1193" y="-369" type="line"/>
      <point x="92" y="-369" type="line"/>
      <point x="92" y="-284" type="line"/>
      <point x="716" y="615" type="line"/>
      <point x="115" y="1494" type="line"/>
      <point x="115" y="1581" type="line"/>
      <point x="1155" y="1581" type="line"/>
      <point x="1155" y="1453" type="line"/>
      <point x="287" y="1453" type="line"/>
      <point x="909" y="623" type="line"/>
      <point x="264" y="-232" type="line"/>
    </contour>
  </outline>
</glyph>
<glyph name="minus" format="1">
  <advance width="1212"/>
  <unicode hex="2212"/>
  <outline>
    <contour>
      <point x="123" y="701" type="line"/>
      <point x="1098" y="701" type="line"/>
      <point x="1098" y="578" type="line"/>
      <point x="123" y="578" type="line"/>
    </contour>
  </outline>
</glyph>
<glyph name="notequal" format="1">
  <advance width="1135"/>
  <unicode hex="2260"/>
  <outline>
    <contour>
      <point x="779" y="1243" type="line"/>
      <point x="779" y="1243"/>
      <point x="872" y="1231"/>
      <point x="871" y="1231" type="curve"/>
      <point x="755" y="931" type="line"/>
      <point x="1032" y="931" type="line"/>
      <point x="1039" y="823" type="line"/>
      <point x="706" y="823" type="line"/>
      <point x="535" y="479" type="line"/>
      <point x="1034" y="479" type="line"/>
      <point x="1039" y="378" type="line"/>
      <point x="484" y="378" type="line"/>
      <point x="337" y="50" type="line"/>
      <point x="247" y="68" type="line"/>
      <point x="364" y="378" type="line"/>
      <point x="106" y="378" type="line"/>
      <point x="100" y="479" type="line"/>
      <point x="420" y="479" type="line"/>
      <point x="586" y="823" type="line"/>
      <point x="106" y="823" type="line"/>
      <point x="98" y="930" type="line"/>
      <point x="636" y="930" type="line"/>
    </contour>
  </outline>
</glyph>
